<svg xmlns="http://www.w3.org/2000/svg" version="1.1" xmlns:xlink="http://www.w3.org/1999/xlink" xmlns:svgjs="http://svgjs.dev/svgjs" width="100%" height="100%" viewBox="0 0 1000 600"><rect width="1000" height="600" x="0" y="0" fill="none"/><g><circle r="166.66666666666666" cx="410.11352030436194" cy="432.33584239809727" fill="white" transform="matrix(0.5134589276782735,0,0,0.5134589276782735,0,78.01331000551824)"/><path d="M320.32301139868827 503.25960556361593L294.05390485201576 503.25960556361593Q296.48832636388414 493.0690038860275 300.67779594244826 480.5289023772172Q304.83895829413024 467.98880086840694 310.24563862862857 454.3447175111913Q315.6523189631269 440.7006341539756 321.34207156644715 427.22639415805304L321.34207156644715 427.22639415805304Q327.0601313966495 413.7804613890127 332.3535828236191 401.46681769526Q337.64703425058866 389.124866774625 344.5823048367253 376.4998435851682L344.5823048367253 376.4998435851682Q346.025973407717 374.03711484641764 347.1299552561224 371.99899451089993Q348.26224433141005 369.96087417538223 349.67760567551954 368.54551283127273L349.67760567551954 368.54551283127273Q341.72327492162407 368.74366341944807 332.6649623193232 370.47040425926167Q323.6066497170223 372.19714509907527 315.3409394674228 375.2543256023518Q307.0752292178233 378.3115061056283 301.27224770697427 382.38774677666373Q295.46926619612526 386.46398744769914 293.82744703695823 391.36113769831803L293.82744703695823 391.36113769831803Q293.6292964487829 391.98389668972624 293.03484468425694 391.98389668972624L293.03484468425694 391.98389668972624Q291.1948749369146 391.98389668972624 291.1948749369146 389.124866774625L291.1948749369146 389.124866774625Q291.1948749369146 388.50210778321684 291.5911761132652 387.2848970272826L291.5911761132652 387.2848970272826Q293.43114586060756 381.99144560031306 296.17694686818004 377.91520492927765Q298.92274787575246 373.8389642582423 301.7817777908537 370.9799343431411L301.7817777908537 370.9799343431411Q308.51889778881497 364.04466375700446 316.86952971906106 362.51607350536625Q325.22016164930716 360.98748325372793 334.58985374731213 360.98748325372793L334.58985374731213 360.98748325372793L384.127500791145 360.98748325372793Q392.6762833095665 360.98748325372793 399.41340330752774 362.7425313204237Q406.150523305489 364.4692721602373 410.6230651528751 367.5264526635139L410.6230651528751 367.5264526635139Q416.53927557125286 371.4045427463739 419.17184767129646 377.0093736690476Q421.83272699822237 382.61420459172126 421.83272699822237 388.7285655982744L421.83272699822237 388.7285655982744Q421.83272699822237 398.0982576962793 417.756486327187 405.42982945876656Q413.6802456561516 412.76140122125383 407.0563545657191 418.0548526482234Q400.4324634752866 423.37661130207516 392.2799821332158 426.631942393527Q384.127500791145 429.88727348497895 375.7768688608989 431.529092644146L375.7768688608989 431.529092644146L369.237899451113 432.74630340008014Q374.1350497017319 449.24941667239705 381.6930792792767 462.4971988532621Q389.2228016299393 475.7449810341271 397.37528297201004 485.73743212354026Q405.5277643140808 495.7298832129534 412.0384264969845 502.8633043872653L412.0384264969845 502.8633043872653Q408.981245993708 503.45775615179133 402.6687343989796 503.45775615179133L402.6687343989796 503.45775615179133Q397.1771323838347 503.45775615179133 392.0818315450405 503.14637665608717Q386.98653070624624 502.8633043872653 386.98653070624624 502.8633043872653L386.98653070624624 502.8633043872653Q381.89122986745195 502.8633043872653 376.99407961683306 497.34339514523816Q372.09692936621417 491.8517931300933 367.6243875188281 483.18978170414306Q363.12353844455987 474.5277702781929 359.5568278574039 465.0448492726592Q355.99011727024794 455.56192826712544 353.6689246659084 447.4094469250547Q351.3194248346866 439.2569655829839 350.49851525510303 434.78442373559784L350.49851525510303 434.78442373559784Q350.49851525510303 434.16166474418964 350.38528634757427 433.5672129796637Q350.3003646669277 432.9444539882555 350.3003646669277 432.123544408672L350.3003646669277 432.123544408672Q350.3003646669277 430.90633365273777 350.80989475080713 430.0005023925077Q351.3194248346866 429.0663639053954 352.9329367669714 428.86821331722007L352.9329367669714 428.86821331722007Q363.12353844455987 427.6510025612859 371.5024776016882 425.18827382253534L371.5024776016882 425.18827382253534Q379.8531095319343 422.5557017224916 386.7883801180709 417.96993096757683Q393.6953434773253 413.38416021266204 397.99804196341825 406.5621185340542Q402.272433222629 399.7117696285642 402.272433222629 390.3420775305592L402.272433222629 390.3420775305592Q402.272433222629 382.8123551798966 398.08296364406476 376.5847652658147Q393.92180129238284 370.3854825786151 384.7502597825532 368.3473622430974L384.7502597825532 368.3473622430974Q382.28753104380263 367.7246032516892 379.5417300362302 367.5264526635139Q376.7959290286578 367.3283020753385 373.93689911355654 367.10184426028104L373.93689911355654 367.10184426028104Q369.4643572661705 373.21620526683415 364.56720701555156 381.7932950121378Q359.67005676493267 390.3420775305592 354.97105710248906 399.8249985360929Q350.3003646669277 409.30791954162663 346.1108950883636 418.56438273210284Q341.9497327366816 427.84915314946124 338.66609441834754 435.6053333151813L338.66609441834754 435.6053333151813Q337.0525824860627 439.87972457439207 333.8821730752574 448.03220591646283Q330.74007089133426 456.18468725853364 327.4564325730002 465.7525299447139Q324.20110148154833 475.3486798577764 321.85160165032653 484.20884187190194Q319.5304090459869 493.0690038860275 319.5304090459869 498.7870637162299L319.5304090459869 498.7870637162299Q319.5304090459869 501.8442442195065 320.32301139868827 503.25960556361593L320.32301139868827 503.25960556361593ZM457.1035316934314 507.33584623465134L457.1035316934314 507.33584623465134Q446.9129300158429 507.33584623465134 438.13768968236394 505.495876487309Q429.362449348885 503.6559067399666 423.4745461573894 499.3815154807559L423.4745461573894 499.3815154807559Q419.398305486354 496.3243349774794 417.2469562433076 491.653642541918Q415.0956070002611 486.9546428794744 415.0956070002611 482.0574926288555L415.0956070002611 482.0574926288555Q415.0956070002611 475.9431316223024 418.5773959067705 470.64968019533285Q422.0308775863977 465.3562287683633 429.5889071639425 463.5162590210209L429.5889071639425 463.5162590210209Q430.60796733170133 463.3181084328456 431.51379859193145 463.2048795253168Q432.41962985216156 463.11995784467024 433.24053943174505 463.11995784467024L433.24053943174505 463.11995784467024Q437.31678010278046 463.11995784467024 440.48718951358575 464.9316203651304Q443.62929169750885 466.7715901124728 444.8748096803252 469.23431885122335L444.8748096803252 469.23431885122335Q444.0539001007417 469.8287706157493 442.61023152975 471.3573608673876Q441.19487018564047 472.88595111902583 440.79856900928985 473.9050112867847L440.79856900928985 473.9050112867847Q437.74138850601327 479.00031212557894 437.74138850601327 484.0956129643732L437.74138850601327 484.0956129643732Q437.74138850601327 491.0308835505098 443.11976161362946 495.4185037172493Q448.52644194812774 499.80612388398873 457.3016822816067 499.80612388398873L457.3016822816067 499.80612388398873Q465.2560130355022 499.80612388398873 472.2762053022854 495.81480489359996Q479.2963975690685 491.8517931300933 483.684017735808 485.11467313213205Q488.0716379025475 478.40586036105293 488.0716379025475 469.630620027574L488.0716379025475 469.630620027574Q488.0716379025475 463.11995784467024 485.01445739927095 455.7600788553008L485.01445739927095 455.7600788553008Q482.35357807234504 449.4475672605724 477.76780731743025 444.5504170099535Q473.1820365625154 439.68157398621673 469.10579589148006 435.3788755001238L469.10579589148006 435.3788755001238Q463.61419387633515 429.4909723086283 458.6321219450697 423.8861413859546Q453.62174278692197 418.28131046328093 450.4796406029989 411.65741937284844Q447.3092311921936 405.0335282824159 447.3092311921936 396.6545891252876L447.3092311921936 396.6545891252876Q447.3092311921936 388.7285655982744 450.6777911911742 381.17053602072957Q454.04635119015484 373.64081367006696 460.35886278488323 368.3473622430974L460.35886278488323 368.3473622430974Q467.4922839591952 362.23300123654434 476.66382546902486 359.77027249779377Q485.83536697885444 357.33585098592545 495.8278180682676 357.33585098592545L495.8278180682676 357.33585098592545Q508.2546906695491 357.33585098592545 515.4730335245076 360.4779531698485Q522.7196836063483 363.6483625806538 525.8900930171537 368.54551283127273Q529.0321952010768 373.4426630818916 529.0321952010768 378.93426509703653L529.0321952010768 378.93426509703653Q529.0321952010768 384.2277165240061 526.6826953698551 389.124866774625Q524.3615027655153 394.0220170252439 520.28526209448 397.39057702422457Q516.2090214234447 400.730829796323 511.3118711728257 401.5517393759065L511.3118711728257 401.5517393759065Q510.49096159324216 401.74988996408183 509.6700520136586 401.74988996408183Q508.84914243407513 401.74988996408183 507.83008226631625 401.74988996408183L507.83008226631625 401.74988996408183Q503.35754041893017 401.74988996408183 499.9889804199496 399.7117696285642Q496.62042042096897 397.6736492930465 496.62042042096897 392.8048062693097L496.62042042096897 392.8048062693097Q496.62042042096897 392.1820472779016 496.73364932849773 391.36113769831803Q496.84687823602644 390.54022811873455 497.04502882420184 389.7476257660332L497.04502882420184 389.7476257660332Q500.6966610920043 389.7476257660332 504.57475117486433 387.08674643910734Q508.45284125772446 384.42586711218144 509.6700520136586 381.17053602072957L509.6700520136586 381.17053602072957Q510.68911218141744 378.53796392068585 510.68911218141744 376.2733857701107L510.68911218141744 376.2733857701107Q510.68911218141744 370.7817837549658 505.707040250152 367.6113743441604Q500.6966610920043 364.4692721602373 493.98784832092525 364.4692721602373L493.98784832092525 364.4692721602373Q486.03351756702983 364.4692721602373 479.80592765294796 367.83783215921795Q473.60664496574833 371.1780849313164 470.1248560592389 376.5847652658147Q466.6713743796117 381.99144560031306 466.6713743796117 388.3039571950415L466.6713743796117 388.3039571950415Q466.6713743796117 394.6164687897699 470.54946446247175 400.53267920814767L470.54946446247175 400.53267920814767Q473.8047955539236 405.2316788705912 478.7019458045425 410.21375080185675Q483.59909605516145 415.2241299600044 488.6943968939557 419.8099007149192Q493.78969773274997 424.39567146983404 497.44133000055245 428.24545432581186L497.44133000055245 428.24545432581186Q505.79196193079855 436.3979356678827 509.47190142548334 444.86179650565754Q513.1518409201681 453.3256573434324 513.1518409201681 461.4781386855032L513.1518409201681 461.4781386855032Q513.1518409201681 470.8478307835082 508.76422075342856 479.1135410331077Q504.37660058668905 487.3509440558251 496.62042042096897 493.6917628774357Q488.89254748213096 500.0042744721641 478.7019458045425 503.6559067399666Q468.51134412695404 507.33584623465134 457.1035316934314 507.33584623465134Z " fill="purple" transform="matrix(0.5134589276782735,0,0,0.5134589276782735,0,78.01331000551824)"/><path d="M681.7221057138207 469.83059831441994L662.2344955492841 469.83059831441994Q664.0404594222907 462.2707495436945 667.1483972502557 452.9679356397185Q670.2353354983019 443.6651217357425 674.2462552627701 433.54332421493785Q678.2571750272383 423.42152669413326 682.4780905908933 413.42572665284075L682.4780905908933 413.42572665284075Q686.720005734467 403.4509261914669 690.6469271792605 394.3161089268404Q694.573848624054 385.16029208229514 699.718745704131 375.7944794385631L699.718745704131 375.7944794385631Q700.7897242799837 373.96751598563776 701.6087078968125 372.4555462314927Q702.4486910935597 370.94357647734756 703.4986700894937 369.8935974814135L703.4986700894937 369.8935974814135Q697.5977881323441 370.04059454084427 690.877922558366 371.3215689158839Q684.1580569843878 372.60254329092345 678.0261796481328 374.8704979221411Q671.8943023118777 377.1384525533587 667.589388428548 380.16239206164886Q663.2844745452181 383.18633156993906 662.0664989099347 386.819258895871L662.0664989099347 386.819258895871Q661.9195018505039 387.281249654082 661.4785106722115 387.281249654082L661.4785106722115 387.281249654082Q660.1135379774972 387.281249654082 660.1135379774972 385.16029208229514L660.1135379774972 385.16029208229514Q660.1135379774972 384.6983013240842 660.4075320963588 383.79531938758083L660.4075320963588 383.79531938758083Q661.7725047910732 379.86839794278734 663.8094640431852 376.8444584344972Q665.8464232952973 373.820518926207 667.9673808670842 371.69956135442015L667.9673808670842 371.69956135442015Q672.9652808877305 366.5546642743431 679.1601569637415 365.4206869587343Q685.3550330397527 364.2867096431255 692.3058939928363 364.2867096431255L692.3058939928363 364.2867096431255L729.0551588505294 364.2867096431255Q735.3970319859712 364.2867096431255 740.3949320066175 365.5886835980838Q745.3928320272638 366.8696579731233 748.7107656544155 369.137612604341L748.7107656544155 369.137612604341Q753.09967785742 372.01455505320035 755.0526387898575 376.1724718770993Q757.0265993022135 380.33038870099836 757.0265993022135 384.8662979634336L757.0265993022135 384.8662979634336Q757.0265993022135 391.81715891651726 754.0026597939233 397.2560501154558Q750.9787202856331 402.6949413143944 746.0648185846616 406.6218627591879Q741.1509168836901 410.56978378390005 735.1030378671097 412.9847354745485Q729.0551588505294 415.39968716519684 722.8602827745183 416.6176628004804L722.8602827745183 416.6176628004804L718.0093798133029 417.5206447369837Q721.6423071392347 429.7633998295752 727.2491949775227 439.59120323151825Q732.8350832358922 449.41900663346127 738.8829622524725 456.8318583447559Q744.9308412690528 464.24471005605056 749.7607446503496 469.53660419555837L749.7607446503496 469.53660419555837Q747.492790019132 469.9775953738507 742.809883697266 469.9775953738507L742.809883697266 469.9775953738507Q738.7359651930417 469.9775953738507 734.956040807679 469.74659999474517Q731.1761164223163 469.53660419555837 731.1761164223163 469.53660419555837L731.1761164223163 469.53660419555837Q727.3961920369535 469.53660419555837 723.7632647110216 465.44168611141544Q720.1303373850897 461.3677676071912 716.8124037579379 454.94189615207455Q713.4734705508675 448.51602469695797 710.8275234811136 441.48116542419956Q708.1815764113597 434.4463061514412 706.4596108580279 428.3984271348608Q704.7166457247773 422.3505481182805 704.1076579071355 419.0326144911288L704.1076579071355 419.0326144911288Q704.1076579071355 418.5706237329178 704.0236595874608 418.12963255462546Q703.9606608477047 417.6676417964145 703.9606608477047 417.0586539787727L703.9606608477047 417.0586539787727Q703.9606608477047 416.1556720422694 704.3386532862411 415.48368548487156Q704.7166457247773 414.79069934755506 705.9136217801421 414.6437022881243L705.9136217801421 414.6437022881243Q713.4734705508675 413.740720351621 719.6893462067974 411.9137568986957L719.6893462067974 411.9137568986957Q725.8842222828085 409.9607959662583 731.0291193628856 406.55886401943184Q736.1530168630438 403.1569320726054 739.3449530106835 398.09603331220313Q742.5158895784044 393.01413497188213 742.5158895784044 386.0632740187985L742.5158895784044 386.0632740187985Q742.5158895784044 380.4773857604291 739.4079517504396 375.8574781783191Q736.3210135023933 371.2585701761278 729.5171496087404 369.74660042198275L729.5171496087404 369.74660042198275Q727.6901861558151 369.28460966377173 725.653226903703 369.137612604341Q723.6162676515909 368.9906155449102 721.495310079804 368.8226189055608L721.495310079804 368.8226189055608Q718.1773764526523 373.358528167996 714.5444491267203 379.7214008833566Q710.9115218007884 386.0632740187985 707.4255915342873 393.09813329155685Q703.9606608477047 400.1329925643152 700.8527230197399 406.9998551977241Q697.7657847716936 413.88771741105177 695.3298335011265 419.6416023087706L695.3298335011265 419.6416023087706Q694.1328574457617 422.8125388764915 691.7809044948693 428.8604178930718Q689.4499511238956 434.9082969096522 687.0139998533285 442.0061549221666Q684.5990481626801 449.12501251459975 682.8560830294296 455.6978810291471Q681.1341174760977 462.2707495436945 681.1341174760977 466.5126646872682L681.1341174760977 466.5126646872682Q681.1341174760977 468.78061931848583 681.7221057138207 469.83059831441994L681.7221057138207 469.83059831441994ZM787.874982202757 397.2560501154558L787.874982202757 397.2560501154558Q783.9480607579635 395.8910774207415 783.9480607579635 392.1111530353788L783.9480607579635 392.1111530353788Q783.9480607579635 388.6462223487963 786.7410048871482 384.92929670318966Q789.5339490163328 381.23337063750165 792.8518826434846 380.16239206164886L792.8518826434846 380.16239206164886Q793.6078675205571 379.86839794278734 794.1538565984429 379.86839794278734Q794.6788460964099 379.86839794278734 795.2878339140516 379.86839794278734L795.2878339140516 379.86839794278734Q797.8497826641308 379.86839794278734 799.5087494777067 381.3803676969324Q801.1677162912825 382.8923374510775 801.1677162912825 384.8662979634336L801.1677162912825 384.8662979634336Q801.1677162912825 387.57524377294357 798.3117734223417 389.40220722586884L798.3117734223417 389.40220722586884Q796.0438187911242 389.08721352708864 793.9228612193374 390.45218622180295Q791.8019036475505 391.81715891651726 790.2059355737307 393.77011984895466Q788.6309670798296 395.74408036131075 787.874982202757 397.2560501154558ZM761.8565026835103 470.73358025092324L761.8565026835103 470.73358025092324Q759.9035417510729 470.73358025092324 758.0765782981476 469.91459663409466Q756.2706144251409 469.0746134373474 755.0526387898575 466.659661746699L755.0526387898575 466.659661746699Q753.3936719762816 463.026734420767 753.3936719762816 458.0288344001208L753.3936719762816 458.0288344001208Q753.3936719762816 452.5899432011822 755.0526387898575 445.87007762720407Q756.732605183352 439.12921247330723 759.441550992862 432.0313544607928L759.441550992862 432.0313544607928Q760.5125295687146 429.4694057107136 762.1714963822906 425.6894813253509Q763.8304631958664 421.9095569399882 766.0984178270841 418.12963255462546Q768.3663724583016 414.3497081692628 771.3063136469171 411.85075815893964Q774.2672544154512 409.3518081486165 777.7321851020337 409.3518081486165L777.7321851020337 409.3518081486165Q779.4121514955283 409.3518081486165 782.4360910038184 409.49880520804726Q785.4600305121086 409.6458022674781 786.8040036269042 409.49880520804726L786.8040036269042 409.49880520804726Q785.9010216904009 410.10779302568903 784.704045635036 411.9137568986957Q783.4860699997525 413.740720351621 782.4360910038184 415.6306825443024Q781.3651124279656 417.5206447369837 780.7561246103239 418.5706237329178L780.7561246103239 418.5706237329178Q776.8292031655304 426.44546620242346 773.3642724789479 434.1523120325797Q769.8783422124468 441.85915786273586 768.0723783394401 448.9570158752503L768.0723783394401 448.9570158752503Q767.7573846406599 450.1749915105338 767.6103875812291 451.39296714581735Q767.4633905217984 452.5899432011822 767.4633905217984 453.66092177703496L767.4633905217984 453.66092177703496Q767.4633905217984 458.0288344001208 770.3403329706578 458.0288344001208L770.3403329706578 458.0288344001208Q771.5373090260226 458.0288344001208 772.9862800404117 457.35684784272297Q774.414251474882 456.68486128532516 776.388211987238 455.17289153118L776.388211987238 455.17289153118Q779.8531426738206 452.44294614175146 782.4360910038184 448.9570158752503L782.4360910038184 448.9570158752503Q785.4600305121086 445.0300944304568 788.1689763216185 440.57818348769626Q790.8989217110471 436.10527296501704 792.8518826434846 432.3253485796543L792.8518826434846 432.3253485796543Q793.6078675205571 431.1283725242895 793.9228612193374 431.1283725242895L793.9228612193374 431.1283725242895Q794.8258431558406 431.1283725242895 794.8258431558406 433.6903212743686L794.8258431558406 433.6903212743686Q794.8258431558406 434.9082969096522 794.4478507173044 436.48326540355333Q794.0698582787682 438.0792334773731 793.3138734016956 439.44420617208743L793.3138734016956 439.44420617208743Q791.1929158299088 443.0771334980194 788.3159733810493 447.44504612110524Q785.4600305121086 451.8339583241097 782.4360910038184 455.9288764082526L782.4360910038184 455.9288764082526Q780.3151334320315 458.7848192771933 776.8292031655304 462.2707495436945Q773.3642724789479 465.75667981019564 769.4163514542357 468.2346302406001Q765.4894300094422 470.73358025092324 761.8565026835103 470.73358025092324ZM794.0698582787682 469.0746134373474L794.0698582787682 469.0746134373474Q791.0459187704779 471.4895651279958 788.9249611986911 471.4895651279958L788.9249611986911 471.4895651279958Q786.3630124486119 471.4895651279958 786.3630124486119 468.4656256197056L786.3630124486119 468.4656256197056Q786.3630124486119 465.90367686962645 788.4839700203988 463.17373148019783L788.4839700203988 463.17373148019783Q790.1429368339747 461.052773908411 792.4738902049482 459.54080415426586Q794.8258431558406 458.0288344001208 796.9468007276275 456.22287052711414L796.9468007276275 456.22287052711414Q802.3856919265661 451.8339583241097 808.3495726234717 446.5420641846019Q814.334452900296 441.2501700450941 819.4793499803731 436.48326540355333Q824.6032474805313 431.73736034193126 827.858182367927 428.62942251396635Q831.1131172553228 425.52148468600143 831.1131172553228 425.52148468600143L831.1131172553228 425.52148468600143Q831.1131172553228 425.52148468600143 827.795183628171 424.99649518803443Q824.4562504211005 424.4715056900674 820.2353348574455 423.9465161921003Q815.9934197138718 423.42152669413326 813.1164772650125 423.42152669413326L813.1164772650125 423.42152669413326Q809.0425587607882 423.42152669413326 806.3126133713596 424.4715056900674Q803.6036675618496 425.52148468600143 801.6297070494935 427.34844813892676L801.6297070494935 427.34844813892676Q800.41173141421 428.5454241942916 798.5217692215286 431.27536958372025Q796.6318070288473 434.00531497314887 794.8258431558406 436.94525616176435Q793.019879282834 439.88519735037977 791.6549065881197 442.1531519815974L791.6549065881197 442.1531519815974Q791.3399128893395 442.76213979923915 791.0459187704779 441.9431561824106Q790.7519246516164 441.1031729856633 790.7519246516164 439.59120323151825L790.7519246516164 439.59120323151825Q790.7519246516164 438.22623053680394 790.9619204508032 436.79825910233353Q791.1929158299088 435.3492880879445 791.8019036475505 434.4463061514412L791.8019036475505 434.4463061514412Q792.7048855840537 432.7873393378653 793.6918658402318 430.6663817660785Q794.6788460964099 428.5454241942916 795.5818280329131 426.739460321285Q796.4848099694166 424.9334964482784 796.6318070288473 424.4715056900674L796.6318070288473 424.4715056900674Q798.8997616600649 419.78859936820135 801.2517146109573 416.76465985991115Q803.6036675618496 413.740720351621 807.2155953078629 412.2287505974759L807.2155953078629 412.2287505974759Q809.7985436378607 411.3257686609726 812.6754860867202 411.3257686609726L812.6754860867202 411.3257686609726Q814.334452900296 411.3257686609726 816.2874138327334 411.61976277983416Q818.2613743450895 411.9137568986957 820.3823319168763 412.2287505974759L820.3823319168763 412.2287505974759L822.188295789883 412.52274471633746Q827.9421806876018 413.42572665284075 831.7221050729645 414.0347144704825Q835.5020294583271 414.6437022881243 837.9169811489755 414.6437022881243L837.9169811489755 414.6437022881243Q841.2349147761273 414.6437022881243 843.2928736081581 413.50972497251547Q845.3298328602702 412.3757476569067 847.5977874914879 409.6458022674781L847.5977874914879 409.6458022674781Q848.5007694279911 408.59582327154396 850.3067333009978 408.59582327154396L850.3067333009978 408.59582327154396Q851.5247089362814 408.59582327154396 852.742684571565 408.97381571008026Q853.9396606269297 409.3518081486165 854.8426425634331 409.6458022674781L854.8426425634331 409.6458022674781Q850.9157211186396 413.27872959341 846.1488164770988 417.7516401160892Q841.4029114154768 422.20355105884977 836.2580143353997 427.03345444014656L836.2580143353997 427.03345444014656Q828.5511685052435 434.4463061514412 820.9073214148434 441.9431561824106Q813.2634743244432 449.41900663346127 805.7036255537178 456.8318583447559L805.7036255537178 456.8318583447559Q809.3365528796497 459.70880079361535 813.3474726441179 461.052773908411Q817.3583924085862 462.4177466031253 821.4323109128104 462.4177466031253L821.4323109128104 462.4177466031253Q828.5511685052435 462.4177466031253 835.3550323988964 458.7218205374373Q842.1588962925493 455.0048948918306 846.8418026144153 448.9570158752503L846.8418026144153 448.9570158752503Q849.8657421227056 445.0300944304568 852.742684571565 440.263189788916Q855.5986274405057 435.51728472729394 857.5725879528617 431.73736034193126L857.5725879528617 431.73736034193126Q858.1815757705035 430.5193847066477 858.7905635881452 430.5193847066477L858.7905635881452 430.5193847066477Q859.5465484652177 430.5193847066477 859.5465484652177 432.7873393378653L859.5465484652177 432.7873393378653Q859.5465484652177 434.29930909201045 859.1685560266815 436.042274225261Q858.7905635881452 437.7852393585116 857.7195850122924 439.44420617208743L857.7195850122924 439.44420617208743Q855.7666240798551 442.76213979923915 854.4646501248968 444.73610031159524Q853.1836757498572 446.68906124403264 851.5247089362814 449.2720095740305L851.5247089362814 449.2720095740305Q850.3067333009978 451.0779734470371 849.172755985389 452.736940260613Q848.0387786697802 454.4169066541075 846.8418026144153 455.9288764082526L846.8418026144153 455.9288764082526Q843.9648601655559 459.70880079361535 841.1719160363713 463.17373148019783Q838.3789719071866 466.659661746699 835.3550323988964 468.78061931848583L835.3550323988964 468.78061931848583Q832.478089950037 470.880577310354 829.8321428802831 471.80455882677603Q827.1861958105292 472.7075407632793 824.6032474805313 472.7075407632793L824.6032474805313 472.7075407632793Q820.5293289763072 472.7075407632793 816.6024075315136 470.73358025092324Q812.6754860867202 468.78061931848583 807.9715801849354 466.3446680479188L807.9715801849354 466.3446680479188Q805.7036255537178 465.1476919925539 803.7506646212804 464.3917071154813Q801.7767041089244 463.63572223840885 800.41173141421 463.63572223840885L800.41173141421 463.63572223840885Q799.5087494777067 463.63572223840885 798.7527646006341 464.0767134167011L798.7527646006341 464.0767134167011Q797.7027856047 465.44168611141544 796.4848099694166 466.80665880612975Q795.2878339140516 468.17163150084406 794.0698582787682 469.0746134373474ZM858.937560647576 470.73358025092324L858.937560647576 470.73358025092324Q855.0106392027825 470.73358025092324 852.3646921330286 466.89065712580447Q849.7187450632747 463.026734420767 850.3067333009978 456.0758734676834L850.3067333009978 456.0758734676834Q850.621726999778 451.6869612646789 852.5746879322155 444.883097371026Q854.5486484445715 438.0792334773731 857.488589633187 431.04437420461477Q860.4495304017212 424.00951493185636 863.4734699100113 419.17961155055957L863.4734699100113 419.17961155055957Q867.4003913548047 412.9847354745485 872.2302947361015 411.15777202162315Q877.0811976973171 409.3518081486165 884.6410464680424 409.3518081486165L884.6410464680424 409.3518081486165Q885.0820376463348 409.3518081486165 885.0820376463348 409.8137989068275L885.0820376463348 409.8137989068275Q885.0820376463348 410.56978378390005 884.1790557098315 411.47276572040334L884.1790557098315 411.47276572040334Q882.0580981380447 413.27872959341 879.4121510682908 417.7516401160892Q876.7662039985369 422.20355105884977 874.3512523078884 427.6424422577883Q871.93630061724 433.0813334567269 870.1303367442333 438.0792334773731L870.1303367442333 438.0792334773731Q869.8153430454531 439.12921247330723 868.7653640495191 442.1531519815974Q867.6943854736663 445.1770914898876 866.791403537163 448.74702007606345Q865.8884216006597 452.29594908232065 865.8884216006597 455.31988859061084L865.8884216006597 455.31988859061084Q865.8884216006597 457.7348402812592 866.791403537163 459.33080835507906Q867.6943854736663 460.90577684898017 869.8153430454531 460.90577684898017L869.8153430454531 460.90577684898017Q872.6922854943125 460.7587797895494 876.0102191214643 457.35684784272297Q879.3491523285347 453.95491589589653 882.6670859556864 448.66302175638873Q886.0060191627567 443.3711276168809 889.029958671047 437.8482380982676Q892.0538981793371 432.3253485796543 894.3848515503107 427.8734376368938Q896.7368045012031 423.42152669413326 897.7867834971372 421.59456324120794L897.7867834971372 421.59456324120794Q900.0547381283549 417.961635915276 902.6376864583527 415.3156888455221Q905.1996352084319 412.6697417757682 908.5175688355836 412.6697417757682L908.5175688355836 412.6697417757682Q909.7355444708671 412.6697417757682 912.1504961615155 412.75374009544294Q914.565447852164 412.83773841511766 916.7704037436256 412.83773841511766Q918.9543600551684 412.83773841511766 919.710344932241 412.6697417757682L919.710344932241 412.6697417757682Q919.1013571145992 412.9847354745485 917.9043810592343 413.9717157307265Q916.6864054239509 414.9376964069858 916.077417606309 416.1556720422694L916.077417606309 416.1556720422694Q913.6624659156606 420.8385783641354 911.2475142250122 425.98347544421244Q908.8325625343639 431.1283725242895 906.4176108437155 438.0792334773731L906.4176108437155 438.0792334773731Q906.1026171449353 439.12921247330723 904.9686398293263 442.1531519815974Q903.8346625137176 445.1770914898876 902.9316805772143 448.74702007606345Q902.0286986407109 452.29594908232065 902.0286986407109 455.31988859061084L902.0286986407109 455.31988859061084Q902.0286986407109 458.95281591654276 903.3096730157505 460.4647856706879Q904.5906473907901 461.97675542483296 906.5646079031462 461.97675542483296L906.5646079031462 461.97675542483296Q909.2735537126562 461.97675542483296 912.6754856594825 459.7717995333714Q916.077417606309 457.58784322182845 918.8073629957377 454.4169066541075L918.8073629957377 454.4169066541075Q923.4902693176036 448.9570158752503 926.2832134467883 442.99313517834463Q929.0971571558916 437.02925448143907 930.1471361518259 434.00531497314887L930.1471361518259 434.00531497314887Q929.8531420329643 432.3253485796543 929.6221466538587 430.37238764721695Q929.3911512747533 428.3984271348608 929.3911512747533 426.44546620242346L929.3911512747533 426.44546620242346Q929.3911512747533 423.71552081299484 929.9161407727204 420.8385783641354Q930.4411302706874 417.961635915276 931.5121088465401 415.2526901057661L931.5121088465401 415.2526901057661Q933.4650697789775 410.4017871445506 937.0979971049094 409.3518081486165L937.0979971049094 409.3518081486165Q937.7069849225512 409.20481108918574 938.2319744205182 409.120812769511Q938.7569639184853 409.057814029755 939.365951736127 409.057814029755L939.365951736127 409.057814029755Q942.2428941849864 409.057814029755 943.2298744411646 411.01077496219233Q944.2168546973426 412.9847354745485 944.2168546973426 415.6936812840584L944.2168546973426 415.6936812840584Q944.2168546973426 418.42362667348704 943.6078668797009 421.06957374324094Q942.998879062059 423.71552081299484 942.3898912444173 425.2274905671399L942.3898912444173 425.2274905671399Q941.3399122484832 428.1044330159993 939.9749395537689 430.7503800857532Q938.6099668590546 433.3963271555071 937.4129908036897 435.9582759055863L937.4129908036897 435.9582759055863Q937.4129908036897 436.86125784208957 937.8539819819821 438.54122423558414L937.8539819819821 438.54122423558414Q939.5129487955578 445.78607930752935 945.2668336932768 445.78607930752935L945.2668336932768 445.78607930752935Q948.7527639597779 445.78607930752935 952.5326883451405 442.46814568037763L952.5326883451405 442.46814568037763Q954.6326463370087 440.6411822274523 956.3756114702594 437.8482380982676Q958.1185766035098 435.055293969083 959.4835492982243 432.64034227843456L959.4835492982243 432.64034227843456Q960.2395341752967 431.422366643151 960.4705295544022 432.0313544607928Q960.680525353589 432.64034227843456 960.680525353589 434.00531497314887L960.680525353589 434.00531497314887Q960.680525353589 435.51728472729394 960.3865312347275 437.47024565973135Q960.092537115866 439.44420617208743 959.3365522387935 440.6411822274523L959.3365522387935 440.6411822274523Q957.0685976075758 444.5891032521645 954.6326463370087 446.6260625042766Q952.2176946463603 448.66302175638873 949.1937551380702 449.8809973916723L949.1937551380702 449.8809973916723Q947.9967790827053 450.3219885699646 946.631806387991 450.6369822687448Q945.2668336932768 450.93097638760634 944.0488580579931 450.93097638760634L944.0488580579931 450.93097638760634Q940.43693031198 450.93097638760634 937.4759895434458 448.8940171354942Q934.5360483548303 446.8570578833821 933.171075660116 442.46814568037763L933.171075660116 442.46814568037763L932.709084901905 440.95617592623256Q931.1971151477599 443.5181246763117 929.2441542153225 446.8570578833821Q927.2701937029665 450.1749915105338 925.5272285697158 452.9049368999624Q923.8052630163838 455.6138827094724 922.8812814999619 456.8318583447559L922.8812814999619 456.8318583447559Q917.7573839998036 463.3207285396286 911.7725037229793 467.10065292499127Q905.8086230260737 470.880577310354 899.1517561918515 470.880577310354L899.1517561918515 470.880577310354Q898.395771314779 470.880577310354 897.6397864377066 470.880577310354Q896.883801560634 470.880577310354 896.1278166835614 470.73358025092324L896.1278166835614 470.73358025092324Q890.3739317858426 469.9775953738507 888.4209708534052 465.52568443109016Q886.4470103410491 461.052773908411 886.4470103410491 456.51686464597566L886.4470103410491 456.51686464597566Q886.4470103410491 454.85789783239983 886.6780057201546 453.2829293384987Q886.9090010992601 451.6869612646789 887.0559981586908 450.6369822687448L887.0559981586908 450.6369822687448Q884.7880435274733 453.8079188364658 882.2890935171501 456.51686464597566Q879.790143506827 459.24681003540434 877.2281947567478 461.97675542483296L877.2281947567478 461.97675542483296Q871.4743098590291 467.7096407426331 866.9384005965937 469.22161049677817Q862.4024913341585 470.73358025092324 858.937560647576 470.73358025092324ZM994.5528477624227 470.73358025092324L994.5528477624227 470.73358025092324Q989.8699414405567 470.73358025092324 988.1269763073062 467.10065292499127Q986.3840111740556 463.48872517897803 986.3840111740556 458.1968310394702L986.3840111740556 458.1968310394702Q986.3840111740556 453.34592807825476 987.3079926904775 448.66302175638873L987.3079926904775 448.66302175638873Q987.7489838687698 446.5420641846019 988.2739733667369 444.35810787305894Q988.8199624446227 442.1531519815974 989.5759473216951 439.738200290949L989.5759473216951 439.738200290949Q986.9929989916973 444.42110661281504 984.2000548625126 448.8100188158195Q981.407110733328 453.198931018824 978.5301682844686 456.51686464597566L978.5301682844686 456.51686464597566Q973.7002649031717 462.4177466031253 968.3243724439892 466.3446680479188Q962.9484799848067 470.2925890726309 957.6565858452989 470.2925890726309L957.6565858452989 470.2925890726309Q953.4356702816439 470.2925890726309 950.4747295131098 467.18465124466604Q947.5347883244942 464.0767134167011 947.5347883244942 456.36986758654496L947.5347883244942 456.36986758654496Q947.5347883244942 448.51602469695797 950.264733713923 440.20019104915997Q952.9736795234328 431.884357401362 957.8875812244044 424.70250106917285Q962.8014829253759 417.5206447369837 969.5423480792726 413.13173253397923Q976.2622136532509 408.7428203309747 984.2840531821873 408.7428203309747L984.2840531821873 408.7428203309747Q986.8460019322665 408.7428203309747 989.8699414405567 409.49880520804726Q992.8938809488468 410.25479008511985 995.455829698926 412.291749337232Q998.0387780289238 414.3497081692628 998.9417599654271 417.961635915276L998.9417599654271 417.961635915276Q999.0887570248581 417.6676417964145 999.3197524039635 417.5206447369837Q999.550747783069 417.3736476775529 999.6977448424998 417.2056510382035L999.6977448424998 417.2056510382035Q1001.8187024142866 413.88771741105177 1004.5276482237966 411.61976277983416Q1007.2575936132253 409.3518081486165 1010.5755272403769 409.3518081486165L1010.5755272403769 409.3518081486165Q1012.2554936338714 409.3518081486165 1015.2794331421616 409.49880520804726Q1018.3033726504518 409.6458022674781 1019.6473457652475 409.49880520804726L1019.6473457652475 409.49880520804726Q1018.8913608881749 410.10779302568903 1017.6103865131354 411.9137568986957Q1016.3294121380957 413.740720351621 1015.2794331421616 415.6306825443024Q1014.2084545663088 417.5206447369837 1013.599466748667 418.5706237329178L1013.599466748667 418.5706237329178Q1009.5255482444428 426.44546620242346 1006.207614617291 434.1523120325797Q1002.8686814102207 441.85915786273586 1001.0627175372141 448.9570158752503L1001.0627175372141 448.9570158752503Q1000.600726779003 450.4689856293954 1000.4537297195723 451.77095958435365Q1000.3067326601415 453.05193395939324 1000.3067326601415 454.24891001475805L1000.3067326601415 454.24891001475805Q1000.3067326601415 458.1968310394702 1002.8686814102207 458.1968310394702L1002.8686814102207 458.1968310394702Q1005.2836331008691 458.1968310394702 1008.916560426801 455.17289153118L1008.916560426801 455.17289153118Q1014.2084545663088 450.93097638760634 1018.2193743307771 444.5891032521645Q1022.2302940952452 438.22623053680394 1025.2542336035353 432.3253485796543L1025.2542336035353 432.3253485796543Q1025.863221421177 431.27536958372025 1026.3042125994693 431.27536958372025L1026.3042125994693 431.27536958372025Q1027.207194535973 431.27536958372025 1027.207194535973 433.83731833379943L1027.207194535973 433.83731833379943Q1027.207194535973 435.055293969083 1026.8292020974368 436.56726372322805Q1026.4512096589006 438.0792334773731 1025.6952247818276 439.44420617208743L1025.6952247818276 439.44420617208743Q1023.5952667899596 443.0771334980194 1020.193334843133 448.36902763752715Q1016.7914028963066 453.66092177703496 1012.5494877527331 458.7218205374373Q1008.3075726091593 463.7827192978396 1003.7086646069679 467.26864956434076Q999.0887570248581 470.73358025092324 994.5528477624227 470.73358025092324ZM964.4604497389518 457.58784322182845L964.4604497389518 457.58784322182845Q964.9224404971628 457.7348402812592 965.8254224336661 457.7348402812592L965.8254224336661 457.7348402812592Q968.7023648825254 457.7348402812592 972.0202985096771 455.31988859061084Q975.3592317167477 452.9049368999624 978.6771653438993 449.041014194925Q982.0160985509698 445.1770914898876 984.5780473010489 441.2501700450941L984.5780473010489 441.2501700450941Q991.234914135271 430.6663817660785 994.405850702992 425.37448762657067Q997.5767872707129 420.08259348706287 998.0387780289238 419.32660860999033L998.0387780289238 419.32660860999033Q997.2827931518514 416.76465985991115 995.3928309591699 415.54668422462765Q993.5028687664886 414.3497081692628 990.9199204364907 414.3497081692628L990.9199204364907 414.3497081692628Q987.601986809339 414.3497081692628 983.9060607436511 416.1556720422694Q980.1891350980445 417.961635915276 977.6271863479653 420.5445842452739L977.6271863479653 420.5445842452739Q973.7002649031717 424.4715056900674 970.1303363169959 430.6663817660785Q966.5814073107385 436.86125784208957 964.3974509991958 442.9091368586699Q962.1924951077341 448.9570158752503 962.1924951077341 453.05193395939324L962.1924951077341 453.05193395939324Q962.1924951077341 456.8318583447559 964.4604497389518 457.58784322182845ZM1060.1765350083033 470.73358025092324L1060.1765350083033 470.73358025092324Q1055.0316379282262 470.73358025092324 1053.141675735545 467.64664200287706Q1051.2517135428634 464.5387041749121 1051.2517135428634 460.4647856706879L1051.2517135428634 460.4647856706879Q1051.2517135428634 455.4668856500416 1053.2256740552198 448.43202637728325Q1055.178634987657 441.39716710452484 1057.8245820574107 434.2153107723357Q1060.4705291271648 427.03345444014656 1062.5914866989515 421.4475661817772L1062.5914866989515 421.4475661817772Q1063.2004745165937 420.08259348706287 1063.2004745165937 418.5706237329178L1063.2004745165937 418.5706237329178Q1063.2004745165937 416.91165691934197 1062.1504955206592 416.1556720422694Q1061.0795169448065 415.39968716519684 1059.4205501312308 415.39968716519684L1059.4205501312308 415.39968716519684Q1057.0055984405822 415.39968716519684 1053.9816589322922 416.91165691934197L1053.9816589322922 416.91165691934197Q1049.2987526104262 419.32660860999033 1045.0568374668524 424.61850274949813Q1040.8149223232786 429.91039688900594 1038.2529735731996 435.66428178672476L1038.2529735731996 435.66428178672476Q1035.37603112434 442.1531519815974 1033.1080764931226 448.66302175638873Q1030.8401218619051 455.17289153118 1029.4751491671905 459.24681003540434L1029.4751491671905 459.24681003540434Q1028.5721672306872 461.8087587854835 1027.8161823536147 464.5387041749121Q1027.0601974765423 467.26864956434076 1026.3042125994693 469.83059831441994L1026.3042125994693 469.83059831441994L1011.6465058162296 469.83059831441994Q1011.6465058162296 469.83059831441994 1012.6334860724077 466.0506739290572Q1013.599466748667 462.2707495436945 1015.1114365028121 458.4908251583318L1015.1114365028121 458.4908251583318Q1017.69438483281 451.8339583241097 1020.340331902564 445.1770914898876Q1022.9862789723178 438.54122423558414 1024.9392399047551 433.3963271555071L1024.9392399047551 433.3963271555071Q1025.5482277223969 431.884357401362 1026.8292020974368 427.72644057746305Q1028.131176052395 423.5685237535641 1029.2651533680037 419.0326144911288Q1030.3991306836124 414.49670522869354 1030.3991306836124 411.61976277983416L1030.3991306836124 411.61976277983416Q1030.3991306836124 409.9607959662583 1029.9371399254014 409.3518081486165L1029.9371399254014 409.3518081486165Q1031.302112620116 409.3518081486165 1033.0450777533665 409.2678098289418Q1034.7670433066983 409.20481108918574 1036.2790130608432 409.20481108918574L1036.2790130608432 409.20481108918574Q1038.3999706326304 409.20481108918574 1040.2899328253116 409.3518081486165Q1042.1798950179932 409.49880520804726 1042.788882835635 410.10779302568903L1042.788882835635 410.10779302568903Q1044.5948467086414 411.47276572040334 1044.5948467086414 414.0347144704825L1044.5948467086414 414.0347144704825Q1044.5948467086414 415.86167792340785 1043.9228601512436 417.6676417964145Q1043.2508735938459 419.4736056694211 1042.9358798950657 420.69158130470464L1042.9358798950657 420.69158130470464Q1045.0568374668524 418.71762079234855 1047.3247920980702 416.91165691934197Q1049.5927467292877 415.1056930463353 1054.2756530511538 412.2287505974759L1054.2756530511538 412.2287505974759Q1057.0055984405822 410.56978378390005 1061.0795169448065 409.49880520804726Q1065.1744350289496 408.4488262121132 1068.4923686561015 408.4488262121132L1068.4923686561015 408.4488262121132Q1077.1021964227607 408.4488262121132 1077.1021964227607 416.44966616113095L1077.1021964227607 416.44966616113095Q1077.1021964227607 417.81463885584526 1076.892200623574 419.4736056694211Q1076.6612052444684 421.15357206291566 1075.905220367396 423.10653299535306L1075.905220367396 423.10653299535306Q1075.1492354903235 425.52148468600143 1073.4902686767473 429.7633998295752Q1071.810302283253 434.00531497314887 1070.0883367299211 438.75122003477094Q1068.3453715966702 443.5181246763117 1067.1273959613868 447.76003981988544Q1065.930419906022 451.98095538354045 1065.930419906022 454.5639037135383L1065.930419906022 454.5639037135383Q1065.930419906022 458.1968310394702 1068.6393657155322 458.1968310394702L1068.6393657155322 458.1968310394702Q1071.0543174061804 458.1968310394702 1074.6872447321125 455.17289153118L1074.6872447321125 455.17289153118Q1078.1731749986134 452.29594908232065 1080.7351237486928 448.9570158752503L1080.7351237486928 448.9570158752503Q1083.9060603164135 445.0300944304568 1086.5520073861676 440.57818348769626Q1089.1979544559213 436.10527296501704 1091.1719149682776 432.3253485796543L1091.1719149682776 432.3253485796543Q1091.92789984535 431.1283725242895 1092.2218939642116 431.1283725242895L1092.2218939642116 431.1283725242895Q1093.1458754806335 431.1283725242895 1093.1458754806335 433.6903212743686L1093.1458754806335 433.6903212743686Q1093.1458754806335 434.9082969096522 1092.7678830420973 436.48326540355333Q1092.389890603561 438.0792334773731 1091.6339057264886 439.44420617208743L1091.6339057264886 439.44420617208743Q1089.5129481547015 443.0771334980194 1086.6360057058423 447.44504612110524Q1083.7590632569827 451.8339583241097 1080.7351237486928 455.9288764082526L1080.7351237486928 455.9288764082526Q1078.6141661769057 458.7848192771933 1075.1492354903235 462.2707495436945Q1071.6633052238221 465.75667981019564 1067.7363837790285 468.2346302406001Q1063.8094623342354 470.73358025092324 1060.1765350083033 470.73358025092324ZM1099.9497393742863 400.8889774413878L1099.9497393742863 400.8889774413878Q1105.3886305732249 392.72014085302055 1108.097576382735 384.55130426465337Q1110.8275217721634 376.3824676762862 1111.5835066492364 371.2585701761278L1111.5835066492364 371.2585701761278Q1111.7305037086671 370.1875916002751 1113.6204659013483 369.74660042198275Q1115.5104280940295 369.28460966377173 1117.7783827252474 369.28460966377173L1117.7783827252474 369.28460966377173Q1120.5083281146758 369.28460966377173 1122.692284426219 369.8095991617388Q1124.8972403176804 370.33458865970584 1124.4352495594694 371.5525642949894L1124.4352495594694 371.5525642949894Q1122.3142919876827 376.6974613750664 1118.8493613011 382.51434501254124Q1115.3634310345988 388.33122865001604 1111.7305037086671 393.18213161123157Q1108.097576382735 398.01203499252836 1105.0736368744447 400.279989623746L1105.0736368744447 400.279989623746Q1104.4856486367216 400.741980381957 1103.7296637596492 401.1199728204933Q1102.9736788825767 401.4979652590295 1102.0496973661548 401.4979652590295L1102.0496973661548 401.4979652590295Q1100.9997183702208 401.4979652590295 1099.9497393742863 400.8889774413878ZM1122.0202978688212 472.8545378227101L1122.0202978688212 472.8545378227101Q1116.8754007887442 472.8545378227101 1112.3394915263088 471.4895651279958Q1107.8035822638735 470.12459243328146 1104.926639815014 467.26864956434076Q1102.0496973661548 464.3917071154813 1102.0496973661548 460.0027949124769L1102.0496973661548 460.0027949124769Q1102.0496973661548 456.68486128532516 1104.1076561981854 453.4929251376855Q1106.1446154502978 450.3219885699646 1109.9245398356602 450.3219885699646L1109.9245398356602 450.3219885699646Q1111.5835066492364 450.3219885699646 1112.9484793439506 451.0779734470371Q1114.3134520386648 451.8339583241097 1114.754443216957 453.05193395939324L1114.754443216957 453.05193395939324Q1114.6074461575263 453.198931018824 1113.9984583398846 454.03891421557125Q1113.3894705222428 454.85789783239983 1113.242473462812 455.17289153118L1113.242473462812 455.17289153118Q1111.877500768098 457.88183734069 1111.877500768098 460.14979197190763L1111.877500768098 460.14979197190763Q1111.877500768098 463.3207285396286 1114.22945371899 465.2946890519847Q1116.5814066698827 467.26864956434076 1120.361331055245 467.26864956434076L1120.361331055245 467.26864956434076Q1125.3382314959727 467.10065292499127 1129.0551571415795 463.6987209781649Q1132.7510832072676 460.2967890313384 1132.7510832072676 455.6138827094724L1132.7510832072676 455.6138827094724Q1132.7510832072676 452.9049368999624 1131.5331075719837 450.4689856293954L1131.5331075719837 450.4689856293954Q1129.5801466395465 446.3950671251711 1126.3252117521506 443.45512593655565Q1123.0702768647552 440.49418516802154 1120.1303356761396 437.47024565973135Q1117.1693949076057 434.4463061514412 1115.8254217928097 430.2253905877862L1115.8254217928097 430.2253905877862Q1115.216433975168 428.25143007543005 1115.216433975168 425.37448762657067L1115.216433975168 425.37448762657067Q1115.216433975168 422.4975451777113 1115.9724188522405 419.7046010485266Q1116.728403729313 416.91165691934197 1118.2403734834584 414.9376964069858L1118.2403734834584 414.9376964069858Q1120.361331055245 412.0817535380451 1124.5822466189002 409.6458022674781L1124.5822466189002 409.6458022674781Q1129.874140758408 406.7898593985373 1136.992998350841 406.7898593985373L1136.992998350841 406.7898593985373Q1141.675904672707 406.7898593985373 1145.308831998639 407.9868354539022L1145.308831998639 407.9868354539022Q1148.0177778081488 408.88981739040554 1150.0547370602612 410.94777622243635Q1152.1126958922919 412.9847354745485 1152.1126958922919 416.3026691017002L1152.1126958922919 416.3026691017002Q1152.1126958922919 420.08259348706287 1149.7607429413997 423.4845254338893Q1147.408789990507 426.88645738071574 1143.0408773674212 427.6424422577883L1143.0408773674212 427.6424422577883Q1140.3109319779928 427.95743595656853 1138.1899744062057 426.65546200161026Q1136.069016834419 425.37448762657067 1136.6780046520607 421.74156030063875L1136.6780046520607 421.74156030063875Q1140.7729227362038 420.8385783641354 1142.5788866092103 418.42362667348704L1142.5788866092103 418.42362667348704Q1143.481868545714 417.0586539787727 1143.481868545714 415.6936812840584L1143.481868545714 415.6936812840584Q1143.481868545714 413.13173253397923 1141.4449092936015 412.14475227780116Q1139.4079500414896 411.15777202162315 1137.580986588564 411.15777202162315L1137.580986588564 411.15777202162315Q1135.3130319573465 411.15777202162315 1133.2760727052346 411.7037610995089Q1131.2391134531222 412.2287505974759 1129.5801466395465 413.42572665284075L1129.5801466395465 413.42572665284075Q1126.241213432476 416.3026691017002 1126.241213432476 420.08259348706287L1126.241213432476 420.08259348706287Q1126.241213432476 420.69158130470464 1126.4722088115814 421.4475661817772Q1126.7032041906868 422.20355105884977 1126.8502012501176 422.95953593592225L1126.8502012501176 422.95953593592225Q1127.60618612719 424.9334964482784 1129.1181558813355 426.5924632618542Q1130.6301256354805 428.25143007543005 1132.1420953896254 429.4694057107136L1132.1420953896254 429.4694057107136Q1135.9220197749883 432.17835152022354 1139.9329395394566 435.3492880879445Q1143.943859303925 438.54122423558414 1145.8968202363621 443.0771334980194L1145.8968202363621 443.0771334980194Q1147.408789990507 446.2480700657403 1147.408789990507 449.566003692892L1147.408789990507 449.566003692892Q1147.408789990507 454.1019129553273 1145.1408353592897 457.818838600934Q1142.8728807280722 461.51476466662194 1140.0169378591313 463.63572223840885L1140.0169378591313 463.63572223840885Q1144.993838299859 461.51476466662194 1149.7607429413997 456.1388722074394Q1154.52764758294 450.7839793281756 1157.9925782695227 445.4920851886678L1157.9925782695227 445.4920851886678Q1160.2605329007406 442.0061549221666 1162.1504950934218 438.9192166741204Q1164.040457286103 435.8112788461555 1166.0144177984594 432.0313544607928L1166.0144177984594 432.0313544607928Q1166.623405616101 430.9813754648587 1167.0643967943934 430.9813754648587L1167.0643967943934 430.9813754648587Q1167.9883783108153 430.9813754648587 1167.9883783108153 433.54332421493785L1167.9883783108153 433.54332421493785Q1167.9883783108153 434.59330321087197 1167.610385872279 436.10527296501704Q1167.2323934337428 437.6172427191621 1166.4764085566703 439.12921247330723L1166.4764085566703 439.12921247330723Q1163.7464631672415 443.6651217357425 1161.3315114765933 447.5290444407799Q1158.9165597859446 451.39296714581735 1155.4306295194438 455.9288764082526L1155.4306295194438 455.9288764082526Q1148.4797685663598 465.1476919925539 1140.6049260968543 468.9906151176727Q1132.7510832072676 472.8545378227101 1122.0202978688212 472.8545378227101ZM1224.5192474519067 469.83059831441994L1205.03163728737 469.83059831441994Q1206.8376011603764 462.2707495436945 1209.9455389883415 452.9679356397185Q1213.0324772363874 443.6651217357425 1217.0433970008557 433.54332421493785Q1221.054316765324 423.42152669413326 1225.2752323289792 413.42572665284075L1225.2752323289792 413.42572665284075Q1229.517147472553 403.4509261914669 1233.4440689173462 394.3161089268404Q1237.3709903621398 385.16029208229514 1242.5158874422168 375.7944794385631L1242.5158874422168 375.7944794385631Q1243.5868660180695 373.96751598563776 1244.405849634898 372.4555462314927Q1245.2458328316452 370.94357647734756 1246.2958118275797 369.8935974814135L1246.2958118275797 369.8935974814135Q1240.3949298704301 370.04059454084427 1233.6750642964516 371.3215689158839Q1226.9551987224736 372.60254329092345 1220.8233213862186 374.8704979221411Q1214.6914440499636 377.1384525533587 1210.3865301666337 380.16239206164886Q1206.081616283304 383.18633156993906 1204.8636406480205 386.819258895871L1204.8636406480205 386.819258895871Q1204.7166435885897 387.281249654082 1204.2756524102974 387.281249654082L1204.2756524102974 387.281249654082Q1202.9106797155828 387.281249654082 1202.9106797155828 385.16029208229514L1202.9106797155828 385.16029208229514Q1202.9106797155828 384.6983013240842 1203.2046738344447 383.79531938758083L1203.2046738344447 383.79531938758083Q1204.569646529159 379.86839794278734 1206.606605781271 376.8444584344972Q1208.6435650333833 373.820518926207 1210.76452260517 371.69956135442015L1210.76452260517 371.69956135442015Q1215.7624226258163 366.5546642743431 1221.9572987018273 365.4206869587343Q1228.1521747778384 364.2867096431255 1235.1030357309223 364.2867096431255L1235.1030357309223 364.2867096431255L1273.3642703427604 364.2867096431255Q1283.8010615623452 364.2867096431255 1290.079935958031 367.47864579076514Q1296.337810773798 370.64958235848604 1299.067756163227 375.8574781783191Q1301.7977015526553 381.0863735780709 1301.1887137350136 386.96625595530173L1301.1887137350136 386.96625595530173Q1300.117735159161 398.91501692903165 1292.7888817675407 406.7058610788626Q1285.460028375921 414.49670522869354 1275.6322249739778 418.2766296140563L1275.6322249739778 418.2766296140563Q1268.828361080325 420.8385783641354 1260.2185333136654 422.43454643795525Q1251.5877059670875 424.00951493185636 1243.41886937872 424.00951493185636L1243.41886937872 424.00951493185636Q1241.6129055057136 424.00951493185636 1239.8699403724627 423.9465161921003Q1238.1269752392122 423.8625178724256 1236.4680084256365 423.71552081299484L1236.4680084256365 423.71552081299484Q1234.5150474931993 428.5454241942916 1232.3100916017374 434.5303044711159Q1230.1261352901947 440.49418516802154 1228.236173097513 446.5420641846019Q1226.3462109048319 452.5899432011822 1225.1282352695484 457.818838600934Q1223.9312592141832 463.026734420767 1223.9312592141832 466.5126646872682L1223.9312592141832 466.5126646872682Q1223.9312592141832 468.78061931848583 1224.5192474519067 469.83059831441994L1224.5192474519067 469.83059831441994ZM1240.5629265097796 413.88771741105177L1237.3709903621398 421.3005691223464Q1244.342850895142 421.4475661817772 1251.9026996658677 420.0195947473068Q1259.462548436593 418.5706237329178 1266.4134093896764 415.16869178609136Q1273.3642703427604 411.7667598392649 1278.1941737240572 406.32786864032636L1278.1941737240572 406.32786864032636Q1281.680103990558 402.40094719553286 1283.6540645029145 397.34004843513054Q1285.6070254353517 392.2581500948096 1285.6070254353517 387.42824671351275L1285.6070254353517 387.42824671351275Q1285.6070254353517 381.23337063750165 1282.4360888676306 376.23547061685537Q1279.26515229991 371.2585701761278 1272.3142913468264 369.74660042198275L1272.3142913468264 369.74660042198275Q1270.4873278939008 369.28460966377173 1268.6813640208943 369.137612604341Q1266.8544005679692 368.9906155449102 1264.7544425761007 368.8226189055608L1264.7544425761007 368.8226189055608Q1261.4155093690306 372.9175369897037 1257.950578682448 378.8184189468532Q1254.4646484159466 384.6983013240842 1251.2097135285508 391.12417277920076Q1247.9547786411554 397.55004423431734 1245.161834511971 403.5349245111417Q1242.368890382786 409.49880520804726 1240.5629265097796 413.88771741105177L1240.5629265097796 413.88771741105177ZM1295.8968195955058 471.04857394970344L1295.8968195955058 471.04857394970344Q1288.9459586424223 471.04857394970344 1283.8640603021013 466.659661746699Q1278.803161541699 462.2707495436945 1278.803161541699 452.5899432011822L1278.803161541699 452.5899432011822Q1278.803161541699 445.4920851886678 1281.3861098716966 437.7852393585116Q1283.948058621776 430.0573939484367 1288.7149632633168 423.42152669413326Q1293.4818679048576 416.76465985991115 1300.2857317985104 412.52274471633746Q1307.0895956921631 408.30182915268244 1315.552426399392 408.30182915268244L1315.552426399392 408.30182915268244Q1322.5032873524756 408.30182915268244 1326.3672100575131 410.94777622243635Q1330.2101331826316 413.5937232921902 1331.8690999962078 417.961635915276Q1333.5490663897021 422.3505481182805 1333.5490663897021 427.34844813892676L1333.5490663897021 427.34844813892676Q1333.5490663897021 431.1283725242895 1332.709083192955 434.9712956494082Q1331.8690999962078 438.83521835444566 1330.3571302420623 442.6151427398084L1330.3571302420623 442.6151427398084Q1332.9400785720604 445.6390822480986 1336.867000016854 445.6390822480986L1336.867000016854 445.6390822480986Q1341.1089151604274 445.6390822480986 1344.7208429064408 442.46814568037763L1344.7208429064408 442.46814568037763Q1346.841800478228 440.6411822274523 1348.5847656114784 437.8482380982676Q1350.3277307447288 435.055293969083 1351.692703439443 432.64034227843456L1351.692703439443 432.64034227843456Q1352.1336946177353 431.73736034193126 1352.7426824353774 431.73736034193126L1352.7426824353774 431.73736034193126Q1353.49866731245 431.73736034193126 1353.49866731245 433.83731833379943L1353.49866731245 433.83731833379943Q1353.49866731245 435.20229102851374 1353.1206748739137 437.02925448143907Q1352.7426824353774 438.83521835444566 1351.524706800094 440.6411822274523L1351.524706800094 440.6411822274523Q1349.2567521688761 444.5891032521645 1346.841800478228 446.6260625042766Q1344.4268487875793 448.66302175638873 1341.4029092792894 449.8809973916723L1341.4029092792894 449.8809973916723Q1339.1349546480715 450.7839793281756 1336.5730058979925 450.7839793281756L1336.5730058979925 450.7839793281756Q1331.8690999962078 450.7839793281756 1328.089175610845 447.9070368793162L1328.089175610845 447.9070368793162Q1326.8921995554801 450.4689856293954 1325.065236102555 453.198931018824L1325.065236102555 453.198931018824Q1320.697323479469 460.61178273011865 1313.7254629464665 465.81967854995173Q1306.774601993383 471.04857394970344 1295.8968195955058 471.04857394970344ZM1301.6297049133059 465.2946890519847L1301.6297049133059 465.2946890519847Q1305.1156351798072 465.2946890519847 1308.3705700672026 462.9427361010923Q1311.6255049545985 460.61178273011865 1314.3344507641082 457.1258524636175Q1317.064396153537 453.66092177703496 1319.1013554056494 449.8809973916723Q1321.1383146577614 446.10107300630955 1322.5032873524756 443.22413055745017L1322.5032873524756 443.22413055745017Q1317.3583902723985 438.83521835444566 1317.3583902723985 432.17835152022354L1317.3583902723985 432.17835152022354Q1317.3583902723985 427.7894393172191 1319.7733419630472 425.37448762657067Q1322.209293233614 422.95953593592225 1326.4302087972692 423.2535300547838L1326.4302087972692 423.2535300547838Q1326.2832117378384 419.78859936820135 1324.6242449242627 417.5206447369837Q1322.9652781106865 415.2526901057661 1319.1853537253237 415.2526901057661L1319.1853537253237 415.2526901057661Q1315.6994234588228 415.2526901057661 1312.5914856308577 417.3736476775529Q1309.5045473828118 419.4736056694211 1306.8586003130577 422.72854055681677Q1304.2126532433035 425.98347544421244 1302.1756939911916 429.3854073910389Q1300.117735159161 432.7873393378653 1298.7737620443654 435.51728472729394L1298.7737620443654 435.51728472729394Q1296.799801532009 439.44420617208743 1295.1408347184333 445.0300944304568Q1293.4818679048576 450.6369822687448 1293.4818679048576 455.4668856500416L1293.4818679048576 455.4668856500416Q1293.4818679048576 459.70880079361535 1295.2038334581894 462.5017449228Q1296.9467985914398 465.2946890519847 1301.6297049133059 465.2946890519847ZM1371.49530730276 470.880577310354L1371.49530730276 470.880577310354Q1366.6444043415445 470.880577310354 1364.5444463496765 466.80665880612975L1364.5444463496765 466.80665880612975Q1362.864479956182 463.17373148019783 1362.864479956182 458.1968310394702L1362.864479956182 458.1968310394702Q1362.864479956182 452.5899432011822 1364.5444463496765 445.78607930752935Q1366.2034131632522 438.9822154138764 1369.0803556121118 431.884357401362L1369.0803556121118 431.884357401362Q1370.1303346080458 429.30140907136416 1371.8732997412963 425.37448762657067Q1373.6162648745471 421.4475661817772 1376.0312165651953 417.6676417964145L1376.0312165651953 417.6676417964145Q1373.9102589934087 419.4736056694211 1371.033316544549 420.6075829850299Q1368.1563740956894 421.74156030063875 1365.4474282861797 421.74156030063875L1365.4474282861797 421.74156030063875Q1363.326470714393 421.74156030063875 1361.9614980196784 421.15357206291566L1361.9614980196784 421.15357206291566Q1360.7645219643136 423.5685237535641 1358.0345765748853 429.00741495250264Q1355.3046311854564 434.4463061514412 1350.768721923021 441.85915786273586L1350.768721923021 441.85915786273586Q1350.3277307447288 442.6151427398084 1349.9497383061926 441.77515954306114Q1349.5717458676563 440.95617592623256 1349.5717458676563 439.44420617208743L1349.5717458676563 439.44420617208743Q1349.5717458676563 438.22623053680394 1349.8657399865178 436.86125784208957Q1350.180733685298 435.51728472729394 1350.768721923021 434.29930909201045L1350.768721923021 434.29930909201045Q1352.2806916771665 431.422366643151 1353.7926614313114 428.33542839510477Q1355.3046311854564 425.2274905671399 1356.5226068207403 422.8125388764915Q1357.7405824560237 420.3975871858431 1357.8875795154545 419.78859936820135L1357.8875795154545 419.78859936820135Q1355.1576341260256 418.42362667348704 1353.7926614313114 415.9246766631639Q1352.448688316516 413.42572665284075 1352.448688316516 411.01077496219233L1352.448688316516 411.01077496219233Q1352.448688316516 408.59582327154396 1353.5826656321246 406.6218627591879Q1354.7166429477334 404.66890182675047 1356.9845975789513 403.59792325089774L1356.9845975789513 403.59792325089774Q1358.3285706937468 403.1569320726054 1359.5465463290302 403.1569320726054L1359.5465463290302 403.1569320726054Q1362.864479956182 403.1569320726054 1364.9854375279688 405.27788964439225L1364.9854375279688 405.27788964439225Q1364.838440468538 405.86587788211534 1364.7544421488633 406.55886401943184Q1364.6914434091073 407.23085057682965 1364.6914434091073 407.9868354539022L1364.6914434091073 407.9868354539022Q1364.6914434091073 412.6697417757682 1368.47136779447 414.9376964069858Q1372.2512921798325 417.2056510382035 1376.640204382837 416.6176628004804L1376.640204382837 416.6176628004804Q1378.7401623747055 413.5937232921902 1381.470107764134 411.3257686609726Q1384.2000531535627 409.057814029755 1387.3709897212834 409.057814029755L1387.3709897212834 409.057814029755Q1389.0299565348591 409.057814029755 1392.1378943628242 409.20481108918574Q1395.2248326108706 409.3518081486165 1396.5898053055848 409.20481108918574L1396.5898053055848 409.20481108918574Q1395.6868233690816 409.8137989068275 1394.4688477337977 411.61976277983416Q1393.271871678433 413.42572665284075 1392.2008931025803 415.39968716519684Q1391.1509141066463 417.3736476775529 1390.5419262890046 418.42362667348704L1390.5419262890046 418.42362667348704Q1386.4680077847802 426.277469563074 1382.9820775182789 434.0683137129049Q1379.496147251778 441.85915786273586 1377.690183378771 448.9570158752503L1377.690183378771 448.9570158752503Q1377.3961892599095 450.3219885699646 1377.165193880804 451.4559658855734Q1376.9341985016986 452.5899432011822 1376.9341985016986 453.8079188364658L1376.9341985016986 453.8079188364658Q1376.9341985016986 458.34382809890104 1379.958138009989 458.34382809890104L1379.958138009989 458.34382809890104Q1382.0790955817756 458.34382809890104 1386.0060170265692 455.31988859061084L1386.0060170265692 455.31988859061084Q1389.49194729307 452.44294614175146 1392.2008931025803 448.9570158752503L1392.2008931025803 448.9570158752503Q1395.2248326108706 445.0300944304568 1397.954778000299 440.49418516802154Q1400.6637238098092 435.9582759055863 1402.6376843221651 432.17835152022354L1402.6376843221651 432.17835152022354Q1403.3936691992376 430.9813754648587 1403.687663318099 430.9813754648587L1403.687663318099 430.9813754648587Q1404.611644834521 430.9813754648587 1404.611644834521 433.6903212743686L1404.611644834521 433.6903212743686Q1404.611644834521 434.7612998502214 1404.2966511357408 436.2732696043665Q1404.0026570168793 437.7852393585116 1403.2466721398068 439.12921247330723L1403.2466721398068 439.12921247330723Q1400.9787175085894 442.9091368586699 1398.1017750597298 447.38204738134914Q1395.2248326108706 451.8339583241097 1392.2008931025803 456.0758734676834L1392.2008931025803 456.0758734676834Q1390.247932170143 458.7848192771933 1386.678003583967 462.2707495436945Q1383.1290745777096 465.75667981019564 1379.1181548132417 468.3186285602748Q1375.128234628692 470.880577310354 1371.49530730276 470.880577310354ZM1409.4415482158179 470.73358025092324L1409.4415482158179 470.73358025092324Q1405.0526360128133 470.73358025092324 1402.7846813815959 467.26864956434076L1402.7846813815959 467.26864956434076Q1401.7347023856619 465.5886831708462 1401.272711627451 463.3207285396286Q1400.8317204491586 461.052773908411 1400.8317204491586 458.63782221776256L1400.8317204491586 458.63782221776256Q1400.8317204491586 456.22287052711414 1401.1257145680202 453.723920516791Q1401.4197086868817 451.2249705064679 1401.8816994450926 448.8100188158195L1401.8816994450926 448.8100188158195Q1402.6376843221651 444.883097371026 1403.624664578343 441.6281624836303Q1404.611644834521 438.37322759623464 1405.6616238304555 435.3492880879445L1405.6616238304555 435.3492880879445L1405.6616238304555 435.20229102851374Q1404.4436481951716 437.47024565973135 1402.6376843221651 440.11619272948525Q1400.8317204491586 442.76213979923915 1400.0757355720862 443.9801154345227L1400.0757355720862 443.9801154345227Q1399.004756996233 445.6390822480986 1398.3957691785913 445.6390822480986L1398.3957691785913 445.6390822480986Q1397.8077809408683 445.6390822480986 1397.8077809408683 444.2741095533842L1397.8077809408683 444.2741095533842Q1397.8077809408683 441.2501700450941 1399.6137448138747 437.6172427191621L1399.6137448138747 437.6172427191621Q1400.8317204491586 435.20229102851374 1402.9316784410266 431.35936790339497Q1405.0526360128133 427.4954451983576 1407.3205906440312 422.95953593592225Q1409.5885452752486 418.42362667348704 1411.2475120888248 414.1817115299133L1411.2475120888248 414.1817115299133L1401.1257145680202 414.1817115299133Q1400.3697296909477 414.1817115299133 1400.8317204491586 412.9847354745485Q1401.272711627451 411.7667598392649 1402.1756935639542 410.6327825236561Q1403.099675080376 409.49880520804726 1403.5406662586684 409.49880520804726L1403.5406662586684 409.49880520804726L1415.0274364741872 409.49880520804726Q1416.707402867682 405.57188376325377 1418.8913591792248 401.03597450081855Q1421.075315490768 396.5000652383833 1423.889259199871 392.4891454739151Q1426.6822033290555 388.47822570944686 1430.0001369562074 385.9162769593677Q1433.339070163278 383.35432820928855 1437.1189945486408 383.35432820928855L1437.1189945486408 383.35432820928855Q1438.7779613622165 383.35432820928855 1441.2769113725394 383.35432820928855Q1443.754861802944 383.35432820928855 1444.3638496205858 383.18633156993906L1444.3638496205858 383.18633156993906Q1441.1929130528647 385.3072891417259 1436.950997909291 391.5861635374118Q1432.7300823456362 397.8650379330976 1427.73218232499 409.49880520804726L1427.73218232499 409.49880520804726L1442.9988769258716 409.49880520804726Q1443.4608676840826 409.49880520804726 1442.7048828070097 410.6327825236561Q1441.9488979299372 411.7667598392649 1440.8149206143285 412.9847354745485Q1439.6809432987197 414.1817115299133 1438.6309643027857 414.1817115299133L1438.6309643027857 414.1817115299133L1425.6112247532028 414.1817115299133Q1423.6582638207656 419.17961155055957 1421.3063108698734 425.08049350770915Q1418.9753574988995 430.9813754648587 1417.0853953062183 436.6512620429028Q1415.1954331135366 442.3211486209469 1414.2714515971147 447.00405494281284L1414.2714515971147 447.00405494281284Q1413.6834633593917 449.8809973916723 1413.6834633593917 452.29594908232065L1413.6834633593917 452.29594908232065Q1413.6834633593917 458.0288344001208 1417.295391105405 458.0288344001208L1417.295391105405 458.0288344001208Q1419.731342375972 458.0288344001208 1423.0492760031239 455.6138827094724Q1426.3672096302757 453.198931018824 1429.7061428373459 448.9570158752503L1429.7061428373459 448.9570158752503Q1432.7300823456362 445.0300944304568 1435.5230264748207 440.49418516802154Q1438.3159706040055 435.9582759055863 1440.2899311163615 432.17835152022354L1440.2899311163615 432.17835152022354Q1440.8989189340032 431.1283725242895 1441.3399101122955 431.1283725242895L1441.3399101122955 431.1283725242895Q1442.2428920487991 431.1283725242895 1442.2428920487991 433.54332421493785L1442.2428920487991 433.54332421493785Q1442.2428920487991 434.7612998502214 1441.8648996102625 436.3362683441225Q1441.4869071717262 437.93223641794236 1440.583925235223 439.44420617208743L1440.583925235223 439.44420617208743Q1438.4629676634363 443.0771334980194 1435.6070247944954 447.38204738134914Q1432.7300823456362 451.6869612646789 1429.7061428373459 455.9288764082526L1429.7061428373459 455.9288764082526Q1427.5851852655592 458.63782221776256 1424.1832533187326 462.1237524842637Q1420.781321371906 465.5886831708462 1416.9173986668688 468.17163150084406Q1413.07447554175 470.73358025092324 1409.4415482158179 470.73358025092324ZM1418.0513759824776 507.33584804918553L1418.0513759824776 507.33584804918553Q1410.1975330928908 507.33584804918553 1406.879599465739 503.5559236638228Q1403.5406662586684 499.7759992784601 1403.5406662586684 495.3870870754556L1403.5406662586684 495.3870870754556Q1403.5406662586684 492.657141686027 1404.674643574277 490.24218999537857Q1405.8086208898862 487.8272383047302 1407.7825814022422 486.7562597288774L1407.7825814022422 486.7562597288774Q1409.2945511563871 486.0002748518049 1410.4915272117519 486.0002748518049L1410.4915272117519 486.0002748518049Q1412.1714936052467 486.0002748518049 1413.5154667200422 487.0712534276576Q1414.8804394147564 488.1212324235917 1414.8804394147564 489.948195876517L1414.8804394147564 489.948195876517Q1414.8804394147564 490.3891870548094 1414.8174406750004 490.7671794933456Q1414.7334423553257 491.14517193188186 1414.586445295895 491.6071626900929L1414.586445295895 491.6071626900929Q1413.6834633593917 492.3631475671654 1412.8434801626445 493.8751173213105Q1412.0034969658973 495.3870870754556 1411.7095028470358 496.8990568296007L1411.7095028470358 496.8990568296007Q1411.562505787605 497.19305094846226 1411.562505787605 497.6550417066732Q1411.562505787605 498.0960328849656 1411.562505787605 498.4110265837458L1411.562505787605 498.4110265837458Q1411.562505787605 500.36398751618316 1412.7594818429698 501.72896021089747Q1413.9774574782532 503.0939329056118 1415.4894272323982 503.0939329056118L1415.4894272323982 503.0939329056118Q1419.4163486771918 503.0939329056118 1423.0492760031239 500.2169904567524Q1426.6822033290555 497.340048007893 1429.769141577102 493.0351341245633Q1432.8770794050665 488.7302202412335 1435.2920310957152 484.341308038229Q1437.7069827863638 479.95239583522454 1439.2189525405088 476.7814592675036L1439.2189525405088 476.7814592675036Q1446.190813073511 462.7327403019055 1452.448687889278 447.44504612110524Q1458.7275622849638 432.17835152022354 1464.3344501232518 417.6676417964145L1464.3344501232518 417.6676417964145L1460.0925349796785 417.6676417964145Q1457.3625895902496 417.6676417964145 1454.4226484016344 418.5706237329178Q1451.4827072130188 419.4736056694211 1449.8027408195244 422.4975451777113L1449.8027408195244 422.4975451777113Q1447.3877891288757 427.201451079496 1444.5948449996913 432.4933452190038Q1441.8019008705064 437.7852393585116 1438.3159706040055 443.0771334980194L1438.3159706040055 443.0771334980194Q1437.7069827863638 444.12711249395346 1437.2659916080715 444.12711249395346L1437.2659916080715 444.12711249395346Q1436.5100067309986 444.12711249395346 1436.5100067309986 441.85915786273586L1436.5100067309986 441.85915786273586Q1436.5100067309986 439.12921247330723 1437.4129886675018 437.3232486003006L1437.4129886675018 437.3232486003006Q1439.6809432987197 433.54332421493785 1441.8648996102625 428.92341663282787Q1444.0698555017243 424.32450863063656 1445.8758193747308 420.08259348706287Q1447.702782827656 415.86167792340785 1448.6057647641596 413.13173253397923L1448.6057647641596 413.13173253397923Q1449.361749641232 411.01077496219233 1450.1807332580606 410.25479008511985Q1451.0207164548078 409.49880520804726 1453.7506618442367 409.8137989068275L1453.7506618442367 409.8137989068275L1467.043395932762 410.86377790276157Q1468.8703593856872 406.0338745214648 1470.5923249390194 401.4139669393548Q1472.3352900722698 396.7940593572448 1473.9942568858455 392.5731437935898L1473.9942568858455 392.5731437935898Q1477.4801871523468 383.79531938758083 1482.0160964147822 375.7944794385631Q1486.5520056772175 367.77263990962666 1493.2718712511955 362.71174114922434Q1500.0127364050923 357.65084238882207 1509.6935427476046 357.65084238882207L1509.6935427476046 357.65084238882207Q1515.279431005974 357.4828457494726 1519.2063524507676 359.3098092023979Q1523.1332738955612 361.11577307540455 1524.9602373484863 366.11367309605083L1524.9602373484863 366.11367309605083Q1525.4012285267786 367.47864579076514 1525.4012285267786 369.28460966377173L1525.4012285267786 369.28460966377173Q1525.4012285267786 372.30854917206193 1523.8892587726336 375.4794857397829Q1522.3772890184882 378.6504223075038 1519.8153402684093 379.86839794278734L1519.8153402684093 379.86839794278734Q1519.0593553913368 380.33038870099836 1518.156373454833 380.4773857604291Q1517.2533915183299 380.62438281985993 1516.4974066412574 380.62438281985993L1516.4974066412574 380.62438281985993Q1514.5234461289015 380.62438281985993 1513.0114763747565 379.5744038239258Q1511.4995066206116 378.50342524807303 1511.4995066206116 376.5504643156356L1511.4995066206116 376.5504643156356Q1511.4995066206116 375.62648279921365 1511.961497378822 374.57650380327954L1511.961497378822 374.57650380327954Q1514.6704431883322 372.60254329092345 1515.741421764185 368.9906155449102L1515.741421764185 368.9906155449102Q1515.8884188236157 368.38162772726844 1515.9514175633717 367.9196369690574Q1516.0354158830464 367.47864579076514 1516.0354158830464 367.0166550325541L1516.0354158830464 367.0166550325541Q1516.0354158830464 363.99271552426393 1513.767461251829 362.6277428295496L1513.767461251829 362.6277428295496Q1512.8644793153258 361.8717579524771 1511.7935007394726 361.6407625733716Q1510.7435217435386 361.43076677418475 1509.6935427476046 361.43076677418475L1509.6935427476046 361.43076677418475Q1504.6956427269583 361.43076677418475 1500.7687212821652 366.11367309605083L1500.7687212821652 366.11367309605083Q1495.9178183209497 371.69956135442015 1491.9278981364 379.86839794278734Q1487.9169783719317 388.0372345311545 1484.8090405439666 396.5000652383833Q1481.7221022959206 404.96289594561205 1479.2861510253533 411.47276572040334L1479.2861510253533 411.47276572040334Q1485.502026681283 411.47276572040334 1491.3189103187583 411.24177034129787Q1497.135793956233 411.01077496219233 1501.3777090998065 410.48578546422533Q1505.5986246634616 409.9607959662583 1506.5016065999648 409.3518081486165L1506.5016065999648 409.3518081486165Q1505.4516276040308 412.2287505974759 1502.952677593708 413.88771741105177Q1500.4537275833845 415.54668422462765 1495.476827142657 416.3026691017002L1495.476827142657 416.3026691017002Q1491.990896876156 416.91165691934197 1487.1609934948592 417.14265229844744Q1482.3100905336437 417.3736476775529 1477.1861930334853 417.5206447369837L1477.1861930334853 417.5206447369837L1472.7972808304808 430.2253905877862Q1470.676323258694 436.2732696043665 1467.7363820700784 444.2741095533842Q1464.7754413015446 452.29594908232065 1460.9955169161817 460.98977516865494Q1457.2155925308189 469.6836012549891 1452.6166845286275 477.85243784335637Q1447.996776946518 486.0002748518049 1442.6208844873354 492.7411400057017Q1437.2659916080715 499.46100557967986 1431.134114271816 503.38792702447336Q1425.0232365154798 507.33584804918553 1418.0513759824776 507.33584804918553ZM1508.4755671123212 471.04857394970344L1508.4755671123212 471.04857394970344Q1501.5247061592377 471.04857394970344 1496.4638073988353 466.659661746699Q1491.3819090585143 462.2707495436945 1491.3819090585143 452.5899432011822L1491.3819090585143 452.5899432011822Q1491.3819090585143 445.4920851886678 1493.964857388512 437.7852393585116Q1496.5268061385914 430.0573939484367 1501.2937107801317 423.42152669413326Q1506.0606154216725 416.76465985991115 1512.8644793153258 412.52274471633746Q1519.6683432089785 408.30182915268244 1528.1311739162074 408.30182915268244L1528.1311739162074 408.30182915268244Q1535.082034869291 408.30182915268244 1538.9459575743285 410.94777622243635Q1542.788880699447 413.5937232921902 1544.4688470929418 417.961635915276Q1546.1278139065175 422.3505481182805 1546.1278139065175 427.34844813892676L1546.1278139065175 427.34844813892676Q1546.1278139065175 431.1283725242895 1545.2878307097703 434.9712956494082Q1544.4688470929418 438.83521835444566 1542.9568773387964 442.6151427398084L1542.9568773387964 442.6151427398084Q1545.5188260888758 445.6390822480986 1549.4457475336694 445.6390822480986L1549.4457475336694 445.6390822480986Q1553.6876626772428 445.6390822480986 1557.3205900031749 442.46814568037763L1557.3205900031749 442.46814568037763Q1559.4205479950429 440.6411822274523 1561.1635131282937 437.8482380982676Q1562.9064782615442 435.055293969083 1564.2714509562584 432.64034227843456L1564.2714509562584 432.64034227843456Q1564.7124421345507 431.73736034193126 1565.3214299521928 431.73736034193126L1565.3214299521928 431.73736034193126Q1566.0774148292649 431.73736034193126 1566.0774148292649 433.83731833379943L1566.0774148292649 433.83731833379943Q1566.0774148292649 435.20229102851374 1565.6994223907286 437.02925448143907Q1565.3214299521928 438.83521835444566 1564.1244538968276 440.6411822274523L1564.1244538968276 440.6411822274523Q1561.8564992656102 444.5891032521645 1559.4205479950429 446.6260625042766Q1557.0055963043947 448.66302175638873 1553.9816567961043 449.8809973916723L1553.9816567961043 449.8809973916723Q1551.7137021648869 450.7839793281756 1549.1517534148074 450.7839793281756L1549.1517534148074 450.7839793281756Q1544.4688470929418 450.7839793281756 1540.688922707579 447.9070368793162L1540.688922707579 447.9070368793162Q1539.4709470722955 450.4689856293954 1537.6649831992886 453.198931018824L1537.6649831992886 453.198931018824Q1533.276070996284 460.61178273011865 1526.3252100432005 465.81967854995173Q1519.3533495101983 471.04857394970344 1508.4755671123212 471.04857394970344ZM1514.22945201004 465.2946890519847L1514.22945201004 465.2946890519847Q1517.6943826966226 465.2946890519847 1520.949317584018 462.9427361010923Q1524.2042524714138 460.61178273011865 1526.9131982809236 457.1258524636175Q1529.6431436703524 453.66092177703496 1531.6801029224644 449.8809973916723Q1533.7170621745768 446.10107300630955 1535.082034869291 443.22413055745017L1535.082034869291 443.22413055745017Q1529.937137789214 438.83521835444566 1529.937137789214 432.17835152022354L1529.937137789214 432.17835152022354Q1529.937137789214 427.7894393172191 1532.3730890597808 425.37448762657067Q1534.7880407504294 422.95953593592225 1539.0089563140846 423.2535300547838L1539.0089563140846 423.2535300547838Q1538.8619592546538 419.78859936820135 1537.2029924410776 417.5206447369837Q1535.544025627502 415.2526901057661 1531.764101242139 415.2526901057661L1531.764101242139 415.2526901057661Q1528.2781709756377 415.2526901057661 1525.1912327275918 417.3736476775529Q1522.0832948996267 419.4736056694211 1519.437347829873 422.72854055681677Q1516.791400760119 425.98347544421244 1514.754441508007 429.3854073910389Q1512.717482255895 432.7873393378653 1511.3525095611803 435.51728472729394L1511.3525095611803 435.51728472729394Q1509.3785490488244 439.44420617208743 1507.7195822352487 445.0300944304568Q1506.0606154216725 450.6369822687448 1506.0606154216725 455.4668856500416L1506.0606154216725 455.4668856500416Q1506.0606154216725 459.70880079361535 1507.8035805549234 462.5017449228Q1509.5255461082552 465.2946890519847 1514.22945201004 465.2946890519847ZM1567.148393405118 470.73358025092324L1567.148393405118 470.73358025092324Q1562.9064782615442 470.73358025092324 1560.7855206897575 467.64664200287706Q1558.6645631179704 464.5387041749121 1558.6645631179704 459.24681003540434L1558.6645631179704 459.24681003540434Q1558.6645631179704 458.4908251583318 1558.6645631179704 457.7348402812592Q1558.6645631179704 456.97885540418673 1558.8325597573198 456.22287052711414L1558.8325597573198 456.22287052711414Q1559.5885446343927 450.4689856293954 1561.478506827074 443.22413055745017Q1563.3684690197551 435.9582759055863 1565.9304177698345 427.95743595656853L1565.9304177698345 427.95743595656853Q1567.4423875239795 423.42152669413326 1569.7943404748717 416.53366448080567Q1572.1252938458456 409.6458022674781 1575.2962304135663 401.70796105821637Q1578.488166561206 393.77011984895466 1582.331089686325 385.9162769593677Q1586.195012391362 378.0624340697807 1590.8779187132282 371.6365626146641Q1595.5608250350942 365.2106911595475 1600.789720434846 361.2627701348353Q1605.997616254679 357.3358486900418 1611.8984982118286 357.3358486900418L1611.8984982118286 357.3358486900418Q1616.7284015931255 357.3358486900418 1618.5553650460506 359.6878016409342Q1620.3613289190575 362.01875501190784 1620.3613289190575 365.2106911595475L1620.3613289190575 365.2106911595475Q1620.3613289190575 368.5286247866992 1619.143353283774 371.93055673352563Q1617.9463772284093 375.33248868035207 1616.7284015931255 377.6004433115697L1616.7284015931255 377.6004433115697Q1614.0194557836157 383.0393345105083 1609.6305435806112 389.84319840416117Q1605.2416313776066 396.64706229781405 1600.4117279963098 402.5479442549636L1600.4117279963098 402.5479442549636Q1597.5347855474502 406.32786864032636 1593.2928704038768 411.01077496219233Q1589.0719548402217 415.6936812840584 1585.3550291946149 419.6416023087706Q1581.6591031289267 423.5685237535641 1580.000136315351 425.08049350770915L1580.000136315351 425.08049350770915L1577.5641850447842 432.0313544607928Q1576.5142060488502 434.9082969096522 1575.5272257926717 438.83521835444566Q1574.5402455364938 442.76213979923915 1573.868258979096 446.6260625042766Q1573.1962724216983 450.4689856293954 1572.7342816634873 453.34592807825476L1572.7342816634873 453.34592807825476Q1572.5872846040565 453.95491589589653 1572.5872846040565 454.5639037135383Q1572.5872846040565 455.17289153118 1572.5872846040565 455.6138827094724L1572.5872846040565 455.6138827094724Q1572.5872846040565 460.14979197190763 1576.0522152906392 460.14979197190763L1576.0522152906392 460.14979197190763Q1578.1731728624259 460.14979197190763 1581.344109430147 458.1968310394702L1581.344109430147 458.1968310394702Q1584.368048938437 456.36986758654496 1587.18199264754 453.4299263979295Q1589.974936776725 450.4689856293954 1591.1719128320897 448.9570158752503L1591.1719128320897 448.9570158752503Q1594.19585234038 445.0300944304568 1596.9257977298084 440.57818348769626Q1599.6557431192373 436.10527296501704 1601.6087040516745 432.3253485796543L1601.6087040516745 432.3253485796543Q1602.364688928747 431.1283725242895 1602.6796826275272 431.1283725242895L1602.6796826275272 431.1283725242895Q1603.582664564031 431.1283725242895 1603.582664564031 433.6903212743686L1603.582664564031 433.6903212743686Q1603.582664564031 434.9082969096522 1603.2046721254947 436.48326540355333Q1602.826679686958 438.0792334773731 1602.070694809886 439.44420617208743L1602.070694809886 439.44420617208743Q1599.9497372380988 443.0771334980194 1597.0727947892397 447.44504612110524Q1594.19585234038 451.8339583241097 1591.1719128320897 455.9288764082526L1591.1719128320897 455.9288764082526Q1588.9039582008722 458.95281591654276 1584.8300396966479 462.4177466031253Q1580.7561211924235 465.90367686962645 1576.0522152906392 468.3186285602748Q1571.369308968773 470.73358025092324 1567.148393405118 470.73358025092324ZM1583.0240758236414 416.44966616113095L1583.0240758236414 416.44966616113095Q1590.5839245943666 407.5458442756099 1598.3537691642791 397.34004843513054Q1606.1446133141098 387.13425259465123 1611.289510394187 376.5504643156356L1611.289510394187 376.5504643156356Q1611.5835045130484 375.7944794385631 1612.654483088901 373.5265248073454Q1613.704462084835 371.2585701761278 1614.6074440213388 368.4446264670245Q1615.5314255377607 365.6516823378398 1615.5314255377607 363.6987214054024L1615.5314255377607 363.6987214054024Q1615.5314255377607 361.11577307540455 1613.5574650254043 361.11577307540455L1613.5574650254043 361.11577307540455L1612.5074860294703 361.11577307540455Q1610.5335255171144 361.11577307540455 1607.8875784473607 363.84571846483317Q1605.2416313776066 366.5546642743431 1602.5116859881782 371.0905735367784L1602.5116859881782 371.0905735367784Q1599.0467553015956 376.8444584344972 1595.707822094525 384.3203088855479Q1592.3898884673736 391.81715891651726 1589.2189518996524 400.1329925643152Q1586.0480153319318 408.4488262121132 1583.0240758236414 416.44966616113095ZM1629.5801445033585 397.2560501154558L1629.5801445033585 397.2560501154558Q1625.6532230585653 395.8910774207415 1625.6532230585653 392.1111530353788L1625.6532230585653 392.1111530353788Q1625.6532230585653 388.6462223487963 1628.4461671877498 384.92929670318966Q1631.2391113169347 381.23337063750165 1634.5780445240048 380.16239206164886L1634.5780445240048 380.16239206164886Q1635.3340294010777 379.86839794278734 1635.8590188990447 379.86839794278734Q1636.3840083970117 379.86839794278734 1636.9929962146534 379.86839794278734L1636.9929962146534 379.86839794278734Q1639.5549449647324 379.86839794278734 1641.2349113582272 381.3803676969324Q1642.893878171803 382.8923374510775 1642.893878171803 384.8662979634336L1642.893878171803 384.8662979634336Q1642.893878171803 387.57524377294357 1640.0169357229433 389.40220722586884L1640.0169357229433 389.40220722586884Q1637.748981091726 389.08721352708864 1635.6280235199392 390.45218622180295Q1633.507065948152 391.81715891651726 1631.932097454251 393.77011984895466Q1630.3361293804314 395.74408036131075 1629.5801445033585 397.2560501154558ZM1603.582664564031 470.73358025092324L1603.582664564031 470.73358025092324Q1601.6087040516745 470.73358025092324 1599.802740178668 469.91459663409466Q1597.975776725743 469.0746134373474 1596.7788006703777 466.659661746699L1596.7788006703777 466.659661746699Q1595.119833856802 463.026734420767 1595.119833856802 458.0288344001208L1595.119833856802 458.0288344001208Q1595.119833856802 452.5899432011822 1596.7788006703777 445.87007762720407Q1598.4377674839538 439.12921247330723 1601.1677128733822 432.0313544607928L1601.1677128733822 432.0313544607928Q1602.2176918693162 429.4694057107136 1603.8766586828924 425.6894813253509Q1605.5356254964681 421.9095569399882 1607.8035801276856 418.12963255462546Q1610.0715347589035 414.3497081692628 1613.0324755274378 411.85075815893964Q1615.972416716053 409.3518081486165 1619.4583469825538 409.3518081486165L1619.4583469825538 409.3518081486165Q1621.11731379613 409.3518081486165 1624.1412533044204 409.49880520804726Q1627.1651928127103 409.6458022674781 1628.5301655074245 409.49880520804726L1628.5301655074245 409.49880520804726Q1627.6271835709213 410.10779302568903 1626.4092079356378 411.9137568986957Q1625.1912323003544 413.740720351621 1624.1412533044204 415.6306825443024Q1623.091274308486 417.5206447369837 1622.4822864908442 418.5706237329178L1622.4822864908442 418.5706237329178Q1618.5553650460506 426.44546620242346 1615.0694347795497 434.1523120325797Q1611.5835045130484 441.85915786273586 1609.777540640042 448.9570158752503L1609.777540640042 448.9570158752503Q1609.4835465211804 450.1749915105338 1609.315549881831 451.39296714581735Q1609.1685528224002 452.5899432011822 1609.1685528224002 453.66092177703496L1609.1685528224002 453.66092177703496Q1609.1685528224002 458.0288344001208 1612.0454952712594 458.0288344001208L1612.0454952712594 458.0288344001208Q1613.2634709065428 458.0288344001208 1614.6914423410135 457.35684784272297Q1616.1194137754837 456.68486128532516 1618.0933742878397 455.17289153118L1618.0933742878397 455.17289153118Q1621.579304554341 452.44294614175146 1624.1412533044204 448.9570158752503L1624.1412533044204 448.9570158752503Q1627.1651928127103 445.0300944304568 1629.8951382021392 440.57818348769626Q1632.6040840116489 436.10527296501704 1634.5780445240048 432.3253485796543L1634.5780445240048 432.3253485796543Q1635.3340294010777 431.1283725242895 1635.6280235199392 431.1283725242895L1635.6280235199392 431.1283725242895Q1636.5310054564425 431.1283725242895 1636.5310054564425 433.6903212743686L1636.5310054564425 433.6903212743686Q1636.5310054564425 434.9082969096522 1636.1530130179062 436.48326540355333Q1635.77502057937 438.0792334773731 1635.0190357022975 439.44420617208743L1635.0190357022975 439.44420617208743Q1632.919077710429 443.0771334980194 1630.04213526157 447.44504612110524Q1627.1651928127103 451.8339583241097 1624.1412533044204 455.9288764082526L1624.1412533044204 455.9288764082526Q1622.0202957326333 458.7848192771933 1618.5553650460506 462.2707495436945Q1615.0694347795497 465.75667981019564 1611.1425133347561 468.2346302406001Q1607.2155918899625 470.73358025092324 1603.582664564031 470.73358025092324ZM1646.526805497735 471.04857394970344L1646.526805497735 471.04857394970344Q1639.5549449647324 471.04857394970344 1634.4940462043305 466.659661746699Q1629.4331474439282 462.2707495436945 1629.4331474439282 452.5899432011822L1629.4331474439282 452.5899432011822Q1629.4331474439282 445.4920851886678 1631.9950961940071 437.7852393585116Q1634.5780445240048 430.0573939484367 1639.3449491655456 423.42152669413326Q1644.0908542271677 416.76465985991115 1650.894718120821 412.52274471633746Q1657.6985820144737 408.30182915268244 1666.1824123016208 408.30182915268244L1666.1824123016208 408.30182915268244Q1673.1332732547048 408.30182915268244 1676.9761963798233 410.94777622243635Q1680.8401190848608 413.5937232921902 1682.4990858984365 417.961635915276Q1684.1580527120127 422.3505481182805 1684.1580527120127 427.34844813892676L1684.1580527120127 427.34844813892676Q1684.1580527120127 431.1283725242895 1683.3390690951842 434.9712956494082Q1682.4990858984365 438.83521835444566 1680.9871161442916 442.6151427398084L1680.9871161442916 442.6151427398084Q1683.5700644742897 445.6390822480986 1687.4969859190828 445.6390822480986L1687.4969859190828 445.6390822480986Q1691.717901482738 445.6390822480986 1695.35082880867 442.46814568037763L1695.35082880867 442.46814568037763Q1697.4717863804567 440.6411822274523 1699.2147515137076 437.8482380982676Q1700.957716646958 435.055293969083 1702.3016897617536 432.64034227843456L1702.3016897617536 432.64034227843456Q1702.7636805199645 431.73736034193126 1703.3726683376062 431.73736034193126L1703.3726683376062 431.73736034193126Q1704.1286532146787 431.73736034193126 1704.1286532146787 433.83731833379943L1704.1286532146787 433.83731833379943Q1704.1286532146787 435.20229102851374 1703.7506607761425 437.02925448143907Q1703.3726683376062 438.83521835444566 1702.1546927023228 440.6411822274523L1702.1546927023228 440.6411822274523Q1699.8867380711054 444.5891032521645 1697.4717863804567 446.6260625042766Q1695.0568346898085 448.66302175638873 1692.0328951815181 449.8809973916723L1692.0328951815181 449.8809973916723Q1689.7649405503007 450.7839793281756 1687.1819922203026 450.7839793281756L1687.1819922203026 450.7839793281756Q1682.4990858984365 450.7839793281756 1678.7191615130741 447.9070368793162L1678.7191615130741 447.9070368793162Q1677.522185457709 450.4689856293954 1675.6952220047838 453.198931018824L1675.6952220047838 453.198931018824Q1671.3063098017792 460.61178273011865 1664.3554488486957 465.81967854995173Q1657.4045878956122 471.04857394970344 1646.526805497735 471.04857394970344ZM1652.2596908155351 465.2946890519847L1652.2596908155351 465.2946890519847Q1655.7456210820365 465.2946890519847 1659.0005559694318 462.9427361010923Q1662.234491276909 460.61178273011865 1664.9644366663374 457.1258524636175Q1667.6943820557663 453.66092177703496 1669.7313413078782 449.8809973916723Q1671.7683005599906 446.10107300630955 1673.1332732547048 443.22413055745017L1673.1332732547048 443.22413055745017Q1667.9883761746278 438.83521835444566 1667.9883761746278 432.17835152022354L1667.9883761746278 432.17835152022354Q1667.9883761746278 427.7894393172191 1670.403327865276 425.37448762657067Q1672.8182795559246 422.95953593592225 1677.060194699498 423.2535300547838L1677.060194699498 423.2535300547838Q1676.9131976400677 419.78859936820135 1675.2542308264915 417.5206447369837Q1673.574264432997 415.2526901057661 1669.7943400476343 415.2526901057661L1669.7943400476343 415.2526901057661Q1666.3294093610516 415.2526901057661 1663.221471533087 417.3736476775529Q1660.1345332850406 419.4736056694211 1657.488586215287 422.72854055681677Q1654.8426391455328 425.98347544421244 1652.7846803135021 429.3854073910389Q1650.7477210613897 432.7873393378653 1649.3827483666755 435.51728472729394L1649.3827483666755 435.51728472729394Q1647.4297874342383 439.44420617208743 1645.7708206206626 445.0300944304568Q1644.0908542271677 450.6369822687448 1644.0908542271677 455.4668856500416L1644.0908542271677 455.4668856500416Q1644.0908542271677 459.70880079361535 1645.8338193604186 462.5017449228Q1647.576784493669 465.2946890519847 1652.2596908155351 465.2946890519847Z " fill="white" transform="matrix(0.5134589276782735,0,0,0.5134589276782735,0,78.01331000551824)"/></g></svg>