<svg xmlns="http://www.w3.org/2000/svg" version="1.1" xmlns:xlink="http://www.w3.org/1999/xlink" xmlns:svgjs="http://svgjs.dev/svgjs" width="100%" height="100%" viewBox="0 0 1000 600"><rect width="1000" height="600" x="0" y="0" fill="none"/><g><circle r="166.66666666666666" cx="352.2942759195963" cy="374.51651892444863" fill="gray" transform="matrix(0.6733910048596164,0,0,0.6733910048596166,0,47.80391828205907)"/><path d="M324.5748305912318 442.16918583764374L324.5748305912318 442.16918583764374Q320.4717774747311 442.16918583764374 317.1320830775794 440.45162871910856Q313.8241952937339 438.7340716005734 310.8343736429505 435.9987028562396L310.8343736429505 435.9987028562396Q306.73132052644985 432.1182960328824 301.674069010763 425.6933601450287Q296.64862410838236 419.2684242571749 291.27330645963343 411.8256767435226Q285.8979888108845 404.3829292298703 281.19061004156595 397.1946346226676Q276.4832312722474 389.97453340215867 273.30256994162676 384.47198930018493L273.30256994162676 384.47198930018493Q271.68043266301015 384.47198930018493 269.6130027981068 384.2493430070415Q267.5773795465095 384.02669671389805 265.73259597474953 383.54959751430493L265.73259597474953 383.54959751430493Q262.2974817376793 382.4045594352815 262.2974817376793 381.25952135625806L262.2974817376793 381.25952135625806Q262.2974817376793 380.33712957037807 263.66516610984615 379.8918369840912Q265.03285048201303 379.4465443978043 266.6549877606295 379.19209149135463L266.6549877606295 379.19209149135463Q274.1931551142005 378.0470534123312 284.9755970250045 375.88420370750913Q295.72623232250237 373.7213540026871 307.08119327281815 369.9363670192485Q318.40434760982765 366.15138003580995 328.35981757467033 360.99870868020446Q338.315287539513 355.84603732459897 344.5175771342233 348.84858239723354Q350.68806011562737 341.8829340831743 350.68806011562737 332.94527574413024L350.68806011562737 332.94527574413024Q350.68806011562737 325.8524009768462 346.5850069991267 321.04960236760894Q342.45014726931987 316.2149971450656 335.9297915415475 313.1297556543635Q329.40943581377513 310.04451416366146 321.839461846898 308.45418349835114Q314.26948788002085 306.8320462197346 307.30383956596154 306.2595271802229Q300.3063846385961 305.6870081407112 295.5035860293589 305.6870081407112L295.5035860293589 305.6870081407112Q283.6079126528376 305.6870081407112 269.3903565049633 308.45418349835114Q255.20460697039516 311.18955224268495 241.4641500221139 315.5470582656352Q227.72369307383266 319.90456428858556 217.19570406947827 325.15265548410963L217.19570406947827 325.15265548410963Q216.94125116302862 325.37530177725307 216.3687321235169 325.6297546837027Q215.7962130840052 325.8524009768462 215.3509204977183 325.8524009768462L215.3509204977183 325.8524009768462Q213.9832361255514 325.8524009768462 213.9832361255514 324.0076174050862L213.9832361255514 324.0076174050862Q213.9832361255514 319.42746508899245 219.00868102793206 315.8969310120035Q224.0659325436189 312.33459032170833 232.17661893670157 309.5992215773746Q240.31911194309046 306.8320462197346 249.70206286842142 304.891842808056Q259.0850137937524 302.95163939637746 268.1498985860212 301.80660131735397Q277.1829767649839 300.66156323833053 284.1804316923494 300.0890441988188Q291.1460800064086 299.5165251593071 294.13590165719205 299.5165251593071L294.13590165719205 299.5165251593071Q300.52903093173956 299.5165251593071 309.0213966844967 300.3116904919623Q317.48195582394766 301.1068558246174 326.2923877097669 303.3015121427457Q335.1346262088923 305.4643618475677 342.6727935624633 309.5992215773746Q350.2427675293405 313.7022746938752 354.91833968535286 319.99998412850414Q359.6257184546714 326.29769356313307 359.6257184546714 335.680644488464L359.6257184546714 335.680644488464Q359.6257184546714 347.13102527869836 352.7554899805308 355.6233910314556Q345.8852615063902 364.0839501709065 335.0073997556675 369.8091405660237Q324.1295380049449 375.5343309611409 311.6613455889119 378.87402535829256Q299.1613465595727 382.18191314213806 288.18806496893137 383.54959751430493L288.18806496893137 383.54959751430493Q290.70078742012174 389.97453340215867 295.1537132829907 398.9121917412027Q299.6384457591658 407.8180434669406 305.10918324783336 416.31040921969776Q310.6117273498071 424.7709683591487 316.24149790500564 430.4007389143473Q321.839461846898 435.9987028562396 326.1969678698483 435.9987028562396L326.1969678698483 435.9987028562396Q330.07737469320546 435.9987028562396 332.27203101133375 433.13610765868106Q334.4348807161558 430.2735124611224 335.3572725020358 425.91600643817213Q336.2796642879158 421.55850041522183 336.5023105810592 417.32822084549633Q336.7249568742027 413.0979412757709 336.7249568742027 410.36257253143714L336.7249568742027 410.36257253143714L336.7249568742027 408.96308154596403Q336.7249568742027 406.9274582943668 337.8699949532261 406.9274582943668L337.8699949532261 406.9274582943668Q339.93742481812956 406.9274582943668 341.5277554834399 409.44018074555714Q343.1498927620564 411.9529031967474 344.0404779346302 414.9427248475308Q344.9628697205102 417.9007398850081 344.9628697205102 419.5228771636246L344.9628697205102 419.5228771636246Q345.4399689201033 425.2480675587418 342.6727935624633 430.4007389143473Q339.93742481812956 435.55341026995274 335.1346262088923 438.8612980537982Q330.30002098634895 442.16918583764374 324.5748305912318 442.16918583764374ZM235.73895962699672 449.51651351137747L235.73895962699672 449.51651351137747Q230.6817081113099 449.51651351137747 228.64608485971266 445.9541728210823Q226.57865499480923 442.42363874409335 226.57865499480923 437.3663872284065L226.57865499480923 437.3663872284065Q226.57865499480923 429.82821987483555 230.01376923187954 418.9503581241129Q233.44888346894984 408.0724963733902 238.82420111769878 395.7951436371945Q244.19951876644768 383.54959751430493 250.40180836115798 371.6539241377837Q256.57229134256204 359.7264441479562 262.1702552844544 349.6755543431949Q267.80002583965296 339.5928579251274 271.45778636986677 333.3905683304171L271.45778636986677 333.3905683304171Q274.1931551142005 328.58776972117994 277.1829767649839 322.98980577928756Q280.1727984157674 317.36003522408896 283.6079126528376 313.0343358144449L283.6079126528376 313.0343358144449Q284.7529507318611 311.41219853582834 287.4883194761949 310.96690594954146Q290.22368822052863 310.4898067499484 291.8458254991452 310.4898067499484L291.8458254991452 310.4898067499484Q293.65880245759894 310.4898067499484 295.9488786156458 311.31677869590976Q298.23895477369274 312.11194402856495 298.23895477369274 314.6246664797552L298.23895477369274 314.6246664797552L298.23895477369274 315.0699590660421Q298.23895477369274 318.05978071682557 295.72623232250237 321.04960236760894L295.72623232250237 321.04960236760894Q285.42088961129144 337.74807435336743 275.2427733533053 353.1106685802652Q265.03285048201303 368.4414561938568 256.12699875627516 386.06231996549525L256.12699875627516 386.06231996549525Q254.05956889137173 389.75188710901523 250.40180836115798 396.49488912993104Q246.712241217638 403.23789115084685 242.70460794105597 411.2531577040109Q238.69697466447394 419.2684242571749 236.18425221328363 426.96562467727694Q233.6715297620933 434.63101848407274 234.1168223483802 440.3562088791899L234.1168223483802 440.3562088791899Q234.1168223483802 441.50124695821336 234.68934138789191 442.86893133038024Q235.26186042740363 444.2366157025471 236.88399770602015 444.2366157025471L236.88399770602015 444.2366157025471Q238.0290357850436 444.2366157025471 238.0290357850436 446.3040455674506L238.0290357850436 446.3040455674506Q238.0290357850436 447.449083646474 237.45651674553187 448.4668952722726Q236.88399770602015 449.51651351137747 235.73895962699672 449.51651351137747ZM407.27202518736897 446.0813992743071L407.27202518736897 446.0813992743071Q405.64988790875236 446.0813992743071 403.9323307902172 446.0813992743071Q402.21477367168205 446.0813992743071 401.0697355926586 445.85875298116366L401.0697355926586 445.85875298116366Q399.00230572775524 445.604300074714 394.199507118518 444.2366157025471Q389.39670850928076 442.86893133038024 384.2440371536753 440.70608162555817Q379.0913657980699 438.51142530742993 375.5290251077747 435.7760565630962Q371.9984910307858 433.00888120545625 371.9984910307858 429.82821987483555L371.9984910307858 429.82821987483555Q371.9984910307858 428.42872888936245 373.58882169609615 428.42872888936245L373.58882169609615 428.42872888936245Q377.5010351327595 428.42872888936245 381.50866840934157 430.4961587542659Q385.5163016859236 432.5635886191693 389.84200109556764 433.00888120545625L389.84200109556764 433.00888120545625Q391.68678466732763 433.26333411190586 393.8496343721497 433.35875395182444Q396.044290690278 433.4859804050493 398.77965943461174 433.4859804050493L398.77965943461174 433.4859804050493Q404.5048498297289 433.4859804050493 410.7071394244392 432.43636216594444Q416.87762240584334 431.4185505401459 421.2351284287936 428.6831817958121Q425.5926344517439 425.91600643817213 425.81528074488733 420.8905615357915L425.81528074488733 420.8905615357915Q425.81528074488733 417.67809359186464 421.68042101508047 412.7480685294026Q417.57736789857984 407.8180434669406 411.27965846395097 401.2976877391682Q404.98194902932204 394.77733201139586 398.77965943461174 386.8892919114566Q392.6091764532077 378.9694451982112 388.3788968834822 369.8091405660237Q384.1168107004505 360.6488359338362 384.1168107004505 350.82059242221834L384.1168107004505 350.82059242221834Q384.1168107004505 338.447819846104 390.09645400201737 329.28751521391644Q396.044290690278 320.127210581729 405.64988790875236 314.27479373338696Q415.28729174053296 308.45418349835114 426.7376725307673 305.5915883007926Q438.18805332100175 302.72899310323396 449.161334911643 302.72899310323396L449.161334911643 302.72899310323396Q454.66387901361674 302.72899310323396 459.4666776228539 303.39693198266434L459.4666776228539 303.39693198266434Q465.6689672175643 304.09667747540084 472.85726182476697 306.48217347336634Q480.0773630452758 308.8994760846381 485.35726085410613 313.8295011471001Q490.60535204963026 318.75952620956207 490.60535204963026 326.7747927627262L490.60535204963026 326.7747927627262Q490.60535204963026 335.2353519021771 485.2300344008813 343.0279721621977Q479.8547167521324 350.82059242221834 472.1893229453366 356.64120265725415Q464.5239291385408 362.4936195055962 457.17660146480705 365.4516345430734L457.17660146480705 365.4516345430734Q455.8089170926402 366.15138003580995 454.4412327204733 366.15138003580995L454.4412327204733 366.15138003580995Q453.29619464144986 365.70608744952307 453.29619464144986 365.0063419567865L453.29619464144986 365.0063419567865Q454.4412327204733 362.4936195055962 458.89415858334223 358.00888702942103Q463.37889105951734 353.5559611665521 468.7542087082662 348.05341706457835Q474.12952635701515 342.5508729626046 478.1371596335972 336.25316352797574Q482.14479291017926 329.9554540933468 482.14479291017926 323.78497111194275L482.14479291017926 323.78497111194275Q482.14479291017926 319.6501113821359 479.1549712593958 317.4872616773139Q476.19695622191864 315.3244119724918 472.1893229453366 314.1793738934683Q468.18168966875453 313.0343358144449 465.19186801797116 312.55723661485183L465.19186801797116 312.55723661485183Q463.8241836458043 312.33459032170833 462.45649927363735 312.33459032170833Q461.0888149014705 312.33459032170833 459.4666776228539 312.33459032170833L459.4666776228539 312.33459032170833Q449.161334911643 312.33459032170833 437.3610813750403 315.8969310120035Q425.5926344517439 319.42746508899245 415.03283883408335 325.8524009768462Q404.5048498297289 332.2455302513937 397.85726764873175 341.08776875051916Q391.2414920810408 349.89820063633834 391.2414920810408 360.6488359338362L391.2414920810408 360.6488359338362Q391.2414920810408 367.07377182168995 395.8216443971345 374.2938730421988Q400.40179671322824 381.4821676494015 407.27202518736897 389.0521416162787Q414.1422536615095 396.62211558315585 421.01248213565015 404.0648630968082Q427.8827106097908 411.5076106104605 432.46286292588456 418.47325892451977Q437.0430152419783 425.47071385188525 437.0430152419783 431.4185505401459L437.0430152419783 431.4185505401459Q437.0430152419783 437.14374093526305 432.11299017951626 440.3562088791899Q427.1829651170542 443.5686768231168 420.1855101896888 444.80913474205886Q413.2198618756296 446.0813992743071 407.27202518736897 446.0813992743071Z " fill="white" transform="matrix(0.6733910048596164,0,0,0.6733910048596166,0,47.80391828205907)"/><path d="M667.083106414831 401.60968508050985L667.083106414831 401.60968508050985Q664.6793797067564 401.60968508050985 662.7228579676259 400.6034739003856Q660.7849697688682 399.5972627202614 659.0334169738371 397.99477824821173L659.0334169738371 397.99477824821173Q656.6296902657626 395.7214863227459 653.6669573465081 391.95751116746635Q650.7228579676259 388.1935360121868 647.5737896446446 383.8332875649819Q644.4247213216632 379.4730391177769 641.6669573465081 375.26185899355335Q638.9091933713528 371.03204532895705 637.0458393340857 367.808442844485L637.0458393340857 367.808442844485Q636.0955287750794 367.808442844485 634.8843486508558 367.6780080618763Q633.6918020670049 367.5475732792676 632.61105672539 367.26807017367753L632.61105672539 367.26807017367753Q630.5986343651416 366.5972627202614 630.5986343651416 365.92645526684527L630.5986343651416 365.92645526684527Q630.5986343651416 365.3860825960378 631.3998766011664 365.1252130308204Q632.2011188371912 364.864343465603 633.1514293961975 364.71527514262164L633.1514293961975 364.71527514262164Q637.5675784645205 364.04446768920553 643.8843486508558 362.77738694386386Q650.1824852968185 361.5103061985223 656.834659209862 359.29291489417443Q663.4681995825329 357.0755235898266 669.3004977191788 354.05689004945395Q675.1327958558247 351.0382565090813 678.7663362284956 346.9388776270937Q682.3812430607937 342.8581322854788 682.3812430607937 337.62210744075827L682.3812430607937 337.62210744075827Q682.3812430607937 333.4668279376527 679.9775163527192 330.6531633413794Q677.555156104272 327.8208652047334 673.7352803278745 326.0134117885844Q669.915404551477 324.2059583724353 665.4806219427812 323.27428135380177Q661.0458393340857 322.32397079479557 656.9650939924707 321.9885670680875Q652.8657151104832 321.6531633413794 650.0520505142099 321.6531633413794L650.0520505142099 321.6531633413794Q643.083106414831 321.6531633413794 634.7539138682471 323.27428135380177Q626.4433548620359 324.87676582585146 618.3936654210422 327.42956085690736Q610.3439759800483 329.98235588796325 604.1762741166943 333.05689004945395L604.1762741166943 333.05689004945395Q604.0272057937129 333.18732483206264 603.6918020670049 333.336393155044Q603.3563983402969 333.4668279376527 603.0955287750794 333.4668279376527L603.0955287750794 333.4668279376527Q602.2942865390546 333.4668279376527 602.2942865390546 332.3860825960378L602.2942865390546 332.3860825960378Q602.2942865390546 329.7028527823732 605.2383859179365 327.63452980100675Q608.2011188371912 325.5475732792676 612.9526716322223 323.9450888072179Q617.7228579676259 322.32397079479557 623.219752377564 321.18732483206264Q628.7166467875018 320.0506788693297 634.0272057937129 319.3798714159136Q639.3191312595515 318.70906396249745 643.4185101415391 318.3736602357893Q647.499255483154 318.0382565090813 649.250808278185 318.0382565090813L649.250808278185 318.0382565090813Q652.9961498930918 318.0382565090813 657.971305172595 318.50409501839806Q662.9278269117253 318.96993352771483 668.0893175949552 320.2556478134291Q673.2694418185577 321.5227285587707 677.6855908868806 323.9450888072179Q682.1203734955764 326.3488155152925 684.8595039303589 330.0382565090813Q687.6172679055142 333.7276975028701 687.6172679055142 339.22459191280797L687.6172679055142 339.22459191280797Q687.6172679055142 345.93266644696945 683.5924231850173 350.9078217264726Q679.5675784645205 355.864343465603 673.194907657067 359.2183807326838Q666.8222368496135 362.57241799976447 659.5178890235267 364.52893973889496Q652.194907657067 366.4668279376527 645.7663362284956 367.26807017367753L645.7663362284956 367.26807017367753Q647.2383859179365 371.03204532895705 649.8470815701105 376.26807017367753Q652.474410762657 381.48546147802534 655.6793797067564 386.4606167575285Q658.9029821912285 391.41713849665894 662.2011188371912 394.7152751426217Q665.4806219427812 397.99477824821173 668.0334169738371 397.99477824821173L668.0334169738371 397.99477824821173Q670.306708899303 397.99477824821173 671.5924231850173 396.31775961467133Q672.8595039303589 394.64074098113093 673.3998766011664 392.08794595007504Q673.9402492719738 389.53515091901915 674.0706840545826 387.05689004945395Q674.2011188371912 384.57862917988876 674.2011188371912 382.97614470783907L674.2011188371912 382.97614470783907L674.2011188371912 382.1562689314415Q674.2011188371912 380.9637223475906 674.8719262906075 380.9637223475906L674.8719262906075 380.9637223475906Q676.083106414831 380.9637223475906 677.0147834334646 382.4357720370316Q677.9650939924707 383.9078217264726 678.4868331229055 385.6593745215036Q679.0272057937129 387.39229377616203 679.0272057937129 388.34260433516823L679.0272057937129 388.34260433516823Q679.306708899303 391.696641602249 677.6855908868806 394.7152751426217Q676.083106414831 397.73390868299435 673.2694418185577 399.6717968817521Q670.4371436819117 401.60968508050985 667.083106414831 401.60968508050985ZM615.0396281539614 405.9140329065968L615.0396281539614 405.9140329065968Q612.0768952347067 405.9140329065968 610.8843486508558 403.82707638485766Q609.6731685266323 401.7587534034912 609.6731685266323 398.7960204842365L609.6731685266323 398.7960204842365Q609.6731685266323 394.37987141591356 611.6855908868806 388.00720060846015Q613.6980132471291 381.63452980100675 616.8470815701105 374.44198321715584Q619.9961498930918 367.26807017367753 623.6296902657626 360.29912607429867Q627.2445970980608 353.3115484345471 630.5241002036508 347.4233496767831Q633.8222368496135 341.5165173786465 635.9650939924707 337.8829770059757L635.9650939924707 337.8829770059757Q637.5675784645205 335.0693124097024 639.3191312595515 331.78980930411234Q641.0706840545826 328.4916726581496 643.083106414831 325.95751116746635L643.083106414831 325.95751116746635Q643.7539138682471 325.00720060846015 645.3563983402969 324.7463310432428Q646.9588828123465 324.46682793765274 647.9091933713528 324.46682793765274L647.9091933713528 324.46682793765274Q648.971305172595 324.46682793765274 650.3129200794273 324.95129998734217Q651.6545349862595 325.41713849665894 651.6545349862595 326.8891881860999L651.6545349862595 326.8891881860999L651.6545349862595 327.15005775131726Q651.6545349862595 328.90161054634837 650.1824852968185 330.6531633413794L650.1824852968185 330.6531633413794Q644.1452182160732 340.4357720370316 638.1824852968185 349.4357720370316Q632.2011188371912 358.41713849665894 626.9837275328434 368.74011986311854L626.9837275328434 368.74011986311854Q625.7725474086199 370.90161054634837 623.6296902657626 374.85192110535456Q621.4681995825329 378.8022316643608 619.1203734955764 383.4978838382738Q616.7725474086199 388.1935360121868 615.3004977191788 392.7028527823732Q613.8284480297377 397.1935360121869 614.0893175949552 400.5475732792676L614.0893175949552 400.5475732792676Q614.0893175949552 401.2183807326838 614.4247213216634 402.0196229687086Q614.7601250483714 402.8208652047335 615.7104356073776 402.8208652047335L615.7104356073776 402.8208652047335Q616.3812430607937 402.8208652047335 616.3812430607937 404.03204532895705L616.3812430607937 404.03204532895705Q616.3812430607937 404.7028527823732 616.0458393340857 405.29912607429867Q615.7104356073776 405.9140329065968 615.0396281539614 405.9140329065968ZM712.3067088993031 348.76496458361544L712.3067088993031 348.76496458361544Q709.2135411974397 348.76496458361544 709.2135411974397 346.4730391177769L709.2135411974397 346.4730391177769Q709.2135411974397 344.8705546457272 710.9650939924708 342.9885670680875Q712.6980132471291 341.10657949044776 716.0520505142099 340.3053372544229L716.0520505142099 340.3053372544229Q718.0644728744584 339.76496458361544 719.3501871601726 339.7090639624974Q720.6172679055143 339.63452980100675 721.8284480297378 339.22459191280797L721.8284480297378 339.22459191280797Q721.2880753589304 341.77738694386386 719.61105672539 344.74011986311854Q717.9340380918496 347.68421924200055 715.250808278185 348.3550266954167L715.250808278185 348.3550266954167Q713.9091933713527 348.76496458361544 712.3067088993031 348.76496458361544ZM690.8408703899863 402.1500577513173L690.8408703899863 402.1500577513173Q688.6980132471291 402.1500577513173 686.8719262906073 400.41713849665894Q685.0644728744583 398.6655857016279 684.6731685266323 396.6531633413794L684.6731685266323 396.6531633413794Q685.0644728744583 394.1003683103235 686.4806219427812 390.4109273165347Q687.8781374707316 386.7214863227459 689.7601250483714 382.696641602249Q691.6421126260111 378.6717968817521 693.5241002036508 375.11279067057194Q695.4060877812906 371.5724179997645 696.7477026881229 369.4109273165347L696.7477026881229 369.4109273165347Q694.194907657067 371.7028527823732 691.306708899303 374.5165173786465Q688.4185101415391 377.33018197491975 685.8657151104832 379.752542223367L685.8657151104832 379.752542223367Q685.7352803278745 379.8829770059757 685.2694418185577 380.29291489417443Q684.803603309241 380.68421924200055 684.3936654210422 380.68421924200055L684.3936654210422 380.68421924200055Q683.4619884024087 380.68421924200055 683.4619884024087 379.8829770059757L683.4619884024087 379.8829770059757Q683.4619884024087 379.21216955255954 684.0023610732161 378.6717968817521L684.0023610732161 378.6717968817521Q687.6172679055142 374.6469521612552 691.5675784645205 370.6221074407583Q695.5365225638993 366.5972627202614 699.2818641788061 362.3115484345471L699.2818641788061 362.3115484345471Q700.4930443030297 360.83949874510614 701.3688207005453 359.9637223475906Q702.2445970980608 359.08794595007504 704.1265846757005 359.08794595007504L704.1265846757005 359.08794595007504Q704.9278269117254 359.08794595007504 706.6048455452658 359.4233496767831Q708.2818641788061 359.7587534034912 709.4185101415391 360.55999563951605Q710.555156104272 361.3612378755409 709.7539138682472 362.57241799976447L709.7539138682472 362.57241799976447Q708.8222368496137 364.04446768920553 706.530311383775 367.3985049562862Q704.2570194583093 370.75254222336696 701.3688207005453 375.05689004945395Q698.4806219427813 379.34260433516823 695.7414915079987 383.7028527823732Q692.9837275328434 388.0631012295782 691.2321747378123 391.5475732792676Q689.499255483154 395.0506788693297 689.499255483154 396.7835981239881L689.499255483154 396.7835981239881Q689.499255483154 397.58484036001295 690.0396281539614 397.58484036001295L690.0396281539614 397.58484036001295Q690.8408703899863 397.58484036001295 692.778758588744 396.112790670572Q694.7352803278744 394.64074098113093 696.6731685266323 392.9637223475906Q698.61105672539 391.28670371405025 699.2818641788061 390.7463310432428L699.2818641788061 390.7463310432428Q703.1762741166943 387.39229377616203 706.9402492719738 383.8332875649819Q710.6855908868807 380.29291489417443 714.0396281539614 376.3985049562862L714.0396281539614 376.3985049562862Q714.3191312595515 376.1190018506962 714.7849697688682 375.5972627202614Q715.250808278185 375.05689004945395 715.7911809489925 375.05689004945395L715.7911809489925 375.05689004945395Q716.4619884024087 375.05689004945395 716.4619884024087 375.8581322854788L716.4619884024087 375.8581322854788Q716.4619884024087 376.78980930411234 715.7911809489925 377.74011986311854L715.7911809489925 377.74011986311854Q714.0396281539614 379.8829770059757 711.8967710111043 381.96993352771483Q709.7539138682472 384.0382565090813 707.8719262906073 386.0506788693297L707.8719262906073 386.0506788693297Q704.3874542409179 389.53515091901915 701.1079511353279 392.9637223475906Q697.8098144893652 396.39229377616203 694.5862120048931 400.00720060846015L694.5862120048931 400.00720060846015Q693.915404551477 400.808442844485 692.9091933713528 401.47925029790116Q691.9029821912285 402.1500577513173 690.8408703899863 402.1500577513173ZM737.666957346508 401.60968508050985L737.666957346508 401.60968508050985Q736.7166467875019 401.60968508050985 736.7166467875019 400.13763539106884L736.7166467875019 400.13763539106884Q737.7973921291167 398.7960204842365 738.6731685266323 397.0631012295782Q739.530311383775 395.3115484345471 739.530311383775 393.96993352771483L739.530311383775 393.96993352771483Q739.530311383775 392.4978838382738 738.1886964769428 391.8829770059757Q736.8470815701105 391.28670371405025 734.834659209862 391.28670371405025L734.834659209862 391.28670371405025Q732.0209946135888 391.28670371405025 728.5365225638993 392.08794595007504Q725.0520505142099 392.88918818609994 722.2383859179366 393.76496458361544Q719.4060877812906 394.64074098113093 718.3439759800484 395.0506788693297L718.3439759800484 395.0506788693297Q717.5427337440235 395.3115484345471 716.7973921291167 396.18732483206264Q716.0520505142099 397.0631012295782 715.250808278185 397.45440557740426L715.250808278185 397.45440557740426Q713.1079511353279 398.6655857016279 710.834659209862 398.6655857016279L710.834659209862 398.6655857016279Q709.4930443030297 398.6655857016279 708.4122989614149 397.920244086721Q707.3315536197999 397.1935360121869 707.3315536197999 395.57241799976447L707.3315536197999 395.57241799976447Q707.3315536197999 394.2308030929322 708.4122989614149 393.16869129169L708.4122989614149 393.16869129169Q710.0147834334646 391.41713849665894 713.9091933713527 388.4730391177769Q717.8036033092409 385.5103061985223 722.5737896446446 381.8953993662241Q727.3253424396758 378.280492533926 732.0209946135888 374.6469521612552Q736.7166467875019 371.03204532895705 740.0706840545826 367.8829770059757Q743.4247213216632 364.71527514262164 744.2259635576881 362.85192110535456L744.2259635576881 362.85192110535456L744.2259635576881 362.57241799976447Q744.2259635576881 361.90161054634837 742.6234790856385 361.90161054634837Q741.0209946135888 361.90161054634837 740.3501871601726 361.90161054634837L740.3501871601726 361.90161054634837Q738.3377647999241 361.90161054634837 735.5800008247688 362.44198321715584Q732.8222368496137 362.98235588796325 730.3439759800484 363.9885670680875Q727.8657151104832 364.99477824821173 726.7849697688682 366.5972627202614L726.7849697688682 366.5972627202614Q726.3936654210422 367.00720060846015 726.0582616943341 367.21216955255954Q725.722857967626 367.3985049562862 725.0520505142099 367.3985049562862L725.0520505142099 367.3985049562862Q723.971305172595 367.26807017367753 722.6296902657626 366.336393155044Q721.2880753589304 365.3860825960378 721.2880753589304 364.04446768920553L721.2880753589304 364.04446768920553Q721.2880753589304 362.1811136519384 723.7104356073776 361.0258341488328Q726.1141623154521 359.8891881860999 729.6172679055143 359.4233496767831Q733.1017399552037 358.95751116746635 736.250808278185 358.752542223367Q739.3998766011664 358.5475732792676 741.0209946135888 358.5475732792676L741.0209946135888 358.5475732792676Q746.9091933713527 358.28670371405025 750.6731685266323 359.29291489417443Q754.4371436819117 360.29912607429867 754.4371436819117 362.44198321715584L754.4371436819117 362.44198321715584Q754.4371436819117 363.9140329065968 752.1452182160732 365.7960204842365L752.1452182160732 365.7960204842365Q746.778758588744 370.08173476995086 739.8098144893652 374.85192110535456Q732.8222368496137 379.62210744075827 725.778758588744 384.3736602357894Q718.7352803278744 389.1438465711931 712.9775163527191 393.42956085690736L712.9775163527191 393.42956085690736Q714.5800008247688 392.6283186208825 718.3998766011664 391.5475732792676Q722.2383859179366 390.48546147802534 726.7849697688682 389.60968508050985Q731.3501871601726 388.73390868299435 735.3750318806694 388.13763539106884Q739.3998766011664 387.5227285587707 741.1514293961974 387.5227285587707L741.1514293961974 387.5227285587707Q743.2942865390546 387.5227285587707 745.0458393340856 388.26807017367753Q746.778758588744 389.0134117885844 746.5178890235267 390.3550266954167L746.5178890235267 390.3550266954167Q745.9775163527191 393.29912607429867 744.2259635576881 395.9078217264726Q742.4930443030297 398.53515091901915 740.6855908868807 400.08173476995086Q738.859503930359 401.60968508050985 737.666957346508 401.60968508050985ZM756.4495660421602 399.336393155044L756.4495660421602 399.336393155044Q753.8967710111043 399.336393155044 751.6793797067564 396.6531633413794Q749.4619884024086 393.96993352771483 749.4619884024086 391.5475732792676L749.4619884024086 391.5475732792676Q749.4619884024086 390.87676582585146 749.5924231850173 390.48546147802534L749.5924231850173 390.48546147802534Q752.0147834334646 384.0382565090813 755.834659209862 378.6158962606341Q759.6545349862596 373.17490247181416 763.4185101415391 367.5475732792676L763.4185101415391 367.5475732792676Q763.5489449241478 367.3985049562862 763.5489449241478 367.13763539106884L763.5489449241478 367.13763539106884Q763.5489449241478 366.7276975028701 763.4185101415391 366.39229377616203Q763.2880753589303 366.05689004945395 763.2880753589303 365.6655857016279L763.2880753589303 365.6655857016279Q763.2880753589303 364.32397079479557 764.9650939924708 362.85192110535456Q766.6421126260111 361.3612378755409 768.7104356073776 360.29912607429867Q770.7973921291167 359.2183807326838 772.0085722533403 359.2183807326838L772.0085722533403 359.2183807326838Q773.4806219427813 359.2183807326838 774.8967710111043 360.22459191280797Q776.2942865390546 361.2308030929322 776.2942865390546 362.85192110535456L776.2942865390546 362.85192110535456Q774.9526716322223 363.9140329065968 772.3998766011664 366.5972627202614Q769.8657151104832 369.280492533926 766.9775163527191 372.7090639624974Q764.0893175949552 376.1190018506962 761.4806219427813 379.6780080618763Q758.8532927502347 383.23701427305645 757.1762741166943 386.2556478134291Q755.499255483154 389.27428135380177 755.499255483154 390.87676582585146L755.499255483154 390.87676582585146Q755.499255483154 392.2183807326838 756.7104356073776 392.2183807326838L756.7104356073776 392.2183807326838Q758.0520505142099 392.2183807326838 760.6607461663838 390.280492533926Q763.2880753589303 388.34260433516823 766.3626095204211 385.37987141591356Q769.4557772222844 382.4357720370316 772.3998766011664 379.21216955255954Q775.3626095204211 375.9885670680875 777.7104356073776 373.37987141591356Q780.0582616943341 370.75254222336696 780.9899387129676 369.55999563951605L780.9899387129676 369.55999563951605Q782.4619884024086 367.3985049562862 784.0085722533403 365.5910515401372Q785.555156104272 363.7835981239881 787.6980132471291 360.55999563951605L787.6980132471291 360.55999563951605Q788.778758588744 359.2183807326838 789.9899387129676 358.21216955255954Q791.1824852968185 357.2059583724353 792.5241002036508 357.2059583724353L792.5241002036508 357.2059583724353Q793.194907657067 357.2059583724353 794.5365225638993 357.87676582585146Q795.8781374707316 358.5475732792676 796.6980132471291 359.3488155152925L796.6980132471291 359.3488155152925Q797.499255483154 360.0196229687086 797.499255483154 360.96993352771483L797.499255483154 360.96993352771483Q797.499255483154 362.1811136519384 796.5489449241478 362.85192110535456L796.5489449241478 362.85192110535456Q794.9464604520981 364.864343465603 792.5986343651415 368.40471613641046Q790.250808278185 371.9637223475906 788.0334169738372 376.0631012295782Q785.8160256694894 380.1438465711931 784.3439759800484 383.77738694386386Q782.8719262906073 387.39229377616203 782.8719262906073 389.40471613641046L782.8719262906073 389.40471613641046Q782.8719262906073 391.28670371405025 783.9526716322223 391.41713849665894L783.9526716322223 391.41713849665894Q785.555156104272 391.28670371405025 788.6483238061354 388.6034739003856Q791.722857967626 385.920244086721 795.4122989614149 381.8208652047335Q799.1017399552037 377.74011986311854 802.5862120048931 373.37987141591356Q806.0893175949552 369.01962296870863 808.6234790856385 365.6655857016279L808.6234790856385 365.6655857016279Q809.0334169738372 363.2432254531806 809.3688207005453 361.17490247181416Q809.7042244272534 359.08794595007504 810.915404551477 356.27428135380177L810.915404551477 356.27428135380177Q811.5862120048931 354.80223166436076 812.6483238061354 353.7960204842366Q813.7290691477502 352.78980930411234 815.3315536197999 352.78980930411234L815.3315536197999 352.78980930411234Q816.8222368496137 352.78980930411234 818.0893175949552 353.7214863227459Q819.3563983402968 354.6531633413794 819.3563983402968 356.1438465711931L819.3563983402968 356.1438465711931Q819.3563983402968 357.87676582585146 818.0147834334646 359.3488155152925Q816.6731685266323 360.83949874510614 815.3315536197999 363.11279067057194Q813.9899387129676 365.3860825960378 813.9899387129676 369.55999563951605L813.9899387129676 369.55999563951605L813.9899387129676 370.08173476995086Q813.9899387129676 370.6221074407583 813.859503930359 371.4233496767831Q813.7290691477502 372.2432254531806 813.0582616943341 372.2432254531806L813.0582616943341 372.2432254531806Q812.1265846757005 372.2432254531806 811.0458393340856 371.16248011156574Q809.9650939924708 370.08173476995086 809.834659209862 369.1500577513173L809.834659209862 369.1500577513173Q806.4806219427813 372.9140329065968 802.6607461663838 377.8705546457273Q798.8408703899862 382.82707638485766 795.1514293961975 387.4668279376527Q791.4619884024086 392.08794595007504 788.3129200794273 395.3860825960378Q785.1452182160732 398.6655857016279 783.0023610732161 399.2059583724353L783.0023610732161 399.2059583724353Q782.4619884024086 399.336393155044 781.6607461663838 399.336393155044L781.6607461663838 399.336393155044Q780.1886964769428 399.336393155044 778.8470815701105 398.6655857016279Q777.5054666632782 397.99477824821173 776.2942865390546 396.2432254531807L776.2942865390546 396.2432254531807Q776.1638517564459 395.98235588796325 776.1638517564459 395.57241799976447Q776.1638517564459 395.18111365193846 776.0334169738372 394.90161054634837L776.0334169738372 394.90161054634837Q775.9029821912285 394.37987141591356 775.6980132471291 393.76496458361544Q775.4930443030297 393.16869129169 775.4930443030297 392.4978838382738L775.4930443030297 392.4978838382738Q775.4930443030297 389.40471613641046 777.3004977191788 385.24943663330487Q779.1079511353279 381.0941571301993 781.3998766011664 376.78980930411234Q783.6731685266323 372.50409501839806 785.1452182160732 369.280492533926L785.1452182160732 369.280492533926Q777.5054666632782 378.13142421094466 771.3936654210422 384.7835981239881Q765.3004977191788 391.41713849665894 759.6545349862596 397.73390868299435L759.6545349862596 397.73390868299435Q758.9837275328434 398.40471613641046 758.2570194583093 398.8705546457272Q757.5116778434025 399.336393155044 756.4495660421602 399.336393155044ZM835.4557772222844 400.5475732792676L835.4557772222844 400.5475732792676Q834.2632306384335 400.5475732792676 832.7166467875018 399.4668279376527Q831.1700629365702 398.40471613641046 830.0893175949552 396.9885670680875Q829.027205793713 395.57241799976447 829.027205793713 394.37987141591356L829.027205793713 394.37987141591356Q829.027205793713 392.36744905566513 830.499255483154 388.9388776270937Q831.971305172595 385.5103061985223 833.9278269117254 382.1562689314415Q835.8657151104832 378.8022316643608 836.9464604520981 377.1997471923111L836.9464604520981 377.1997471923111Q835.0644728744583 378.8022316643608 832.1762741166943 382.3612378755409Q829.2880753589303 385.920244086721 826.0085722533403 389.8705546457272Q822.7104356073776 393.83949874510614 819.6918020670049 396.6531633413794Q816.6731685266323 399.4668279376527 814.530311383775 399.4668279376527L814.530311383775 399.4668279376527Q811.5862120048931 399.4668279376527 809.778758588744 397.3985049562862Q807.9526716322223 395.3115484345471 807.9526716322223 392.36744905566513L807.9526716322223 392.36744905566513Q807.9526716322223 388.34260433516823 810.2445970980608 383.7028527823732Q812.5178890235267 379.08173476995086 816.2073300173155 374.7214863227459Q819.8967710111043 370.3612378755409 824.2570194583093 366.7276975028701Q828.6172679055143 363.11279067057194 832.8470815701105 360.96993352771483Q837.0768952347067 358.82707638485766 840.4309325017875 358.82707638485766L840.4309325017875 358.82707638485766Q844.0458393340856 358.82707638485766 846.3377647999241 360.504095018398Q848.61105672539 362.1811136519384 848.61105672539 365.53515091901915L848.61105672539 365.53515091901915Q848.61105672539 366.05689004945395 848.4060877812907 367.5475732792676Q848.2011188371912 369.01962296870863 847.3998766011664 369.01962296870863L847.3998766011664 369.01962296870863Q847.0085722533403 369.01962296870863 846.1327958558248 367.808442844485Q845.2570194583093 366.5972627202614 843.7849697688682 365.3860825960378Q842.3129200794273 364.1935360121869 840.0209946135888 364.1935360121869L840.0209946135888 364.1935360121869Q836.275652998682 364.1935360121869 832.1762741166943 366.93266644696945Q828.0768952347067 369.69043042212473 824.3315536197999 373.920244086721Q820.5675784645205 378.13142421094466 817.7539138682472 382.5662068196403Q814.9402492719738 387.0009894283359 813.4681995825329 390.2059583724353L813.4681995825329 390.2059583724353Q813.0582616943341 391.1562689314415 812.722857967626 392.2183807326838Q812.3874542409179 393.29912607429867 812.3874542409179 394.37987141591356L812.3874542409179 394.37987141591356Q812.3874542409179 395.57241799976447 813.0582616943341 395.57241799976447L813.0582616943341 395.57241799976447Q813.7290691477502 395.57241799976447 815.9464604520981 394.1003683103235Q818.163851756446 392.6283186208825 819.0955287750794 391.95751116746635L819.0955287750794 391.95751116746635Q823.7911809489925 388.6034739003856 828.0209946135888 384.31775961467133Q832.250808278185 380.0134117885844 835.6048455452658 375.44819439728L835.6048455452658 375.44819439728Q836.666957346508 373.97614470783907 837.6172679055143 372.50409501839806Q838.5489449241478 371.03204532895705 839.4806219427813 369.69043042212473L839.4806219427813 369.69043042212473Q840.1514293961975 368.74011986311854 840.8222368496137 368.74011986311854L840.8222368496137 368.74011986311854Q842.3129200794273 368.74011986311854 843.7104356073776 370.75254222336696Q845.1265846757005 372.76496458361544 845.1265846757005 374.2556478134291L845.1265846757005 374.2556478134291Q845.1265846757005 374.92645526684527 844.9216157316013 375.05689004945395Q844.7166467875018 375.18732483206264 844.0458393340856 375.8581322854788L844.0458393340856 375.8581322854788Q842.0334169738372 377.8705546457273 840.0955287750794 381.48546147802534Q838.139007035949 385.1190018506962 836.7414915079987 388.808442844485Q835.3253424396758 392.4978838382738 834.6545349862596 395.0506788693297L834.6545349862596 395.0506788693297Q834.5241002036508 395.4419832171558 834.4495660421602 396.05689004945395Q834.3936654210422 396.6531633413794 835.0644728744583 396.5227285587707L835.0644728744583 396.5227285587707Q836.4060877812907 396.112790670572 839.4247213216632 393.50409501839806Q842.4433548620359 390.87676582585146 846.0023610732161 387.4668279376527Q849.5427337440235 384.0382565090813 852.4309325017875 381.0941571301993Q855.3191312595516 378.13142421094466 856.250808278185 376.93887762709375L856.250808278185 376.93887762709375Q856.530311383775 376.65937452150365 856.8657151104832 376.32397079479557Q857.2011188371913 375.9885670680875 857.5924231850173 375.9885670680875L857.5924231850173 375.9885670680875Q858.5427337440236 375.9885670680875 858.5427337440236 376.93887762709375L858.5427337440236 376.93887762709375Q858.5427337440236 377.4606167575285 856.3998766011664 380.08794595007504Q854.2383859179366 382.696641602249 851.0334169738372 386.12521303082036Q847.8098144893652 389.53515091901915 844.4557772222844 392.8332875649819Q841.1017399552037 396.112790670572 838.6234790856385 398.33018197491975Q836.1265846757005 400.5475732792676 835.4557772222844 400.5475732792676ZM880.2694418185578 400.808442844485L880.2694418185578 400.808442844485Q878.2570194583092 400.808442844485 875.778758588744 399.6717968817521Q873.3004977191788 398.53515091901915 873.3004977191788 396.112790670572L873.3004977191788 396.112790670572Q873.3004977191788 393.29912607429867 875.443354862036 389.40471613641046Q877.5862120048931 385.5103061985223 880.5489449241478 381.29912607429867Q883.4930443030297 377.0693124097024 886.250808278185 373.17490247181416Q888.9899387129677 369.280492533926 890.2011188371913 366.5972627202614L890.2011188371913 366.5972627202614Q889.3998766011665 367.00720060846015 887.5924231850173 368.1438465711931Q885.7663362284956 369.280492533926 884.0334169738372 370.41713849665894Q882.2818641788061 371.5724179997645 881.4806219427813 372.2432254531806L881.4806219427813 372.2432254531806Q875.7042244272534 376.52893973889496 871.4930443030297 381.0941571301993Q867.2632306384336 385.6593745215036 862.9588828123466 391.5475732792676L862.9588828123466 391.5475732792676Q861.8967710111043 393.16869129169 860.7601250483714 394.90161054634837Q859.6048455452658 396.6531633413794 858.4122989614149 398.2556478134291L858.4122989614149 398.2556478134291Q857.8719262906073 398.92645526684527 856.5862120048931 399.5972627202614Q855.3191312595516 400.26807017367753 854.2383859179366 400.26807017367753L854.2383859179366 400.26807017367753Q852.5054666632782 400.26807017367753 852.5054666632782 398.40471613641046L852.5054666632782 398.40471613641046Q852.5054666632782 396.7835981239881 854.1824852968185 393.42956085690736Q855.859503930359 390.0755235898266 858.4122989614149 385.78980930411234Q860.946460452098 381.48546147802534 863.7787585887442 377.27428135380177Q866.5924231850173 373.04446768920553 868.8657151104832 369.6158962606341Q871.1576405763218 366.2059583724353 872.0893175949552 364.71527514262164L872.0893175949552 364.71527514262164Q871.8284480297378 365.1252130308204 870.6172679055143 366.13142421094466Q869.4060877812906 367.13763539106884 868.2694418185578 368.1438465711931Q867.1327958558248 369.1500577513173 866.5924231850173 369.55999563951605L866.5924231850173 369.55999563951605Q864.0396281539614 371.9637223475906 861.6172679055143 374.5165173786465Q859.2135411974397 377.0693124097024 856.7911809489925 379.62210744075827L856.7911809489925 379.62210744075827Q856.530311383775 379.8829770059757 855.7849697688683 380.4233496767832Q855.0582616943341 380.9637223475906 854.5178890235267 380.9637223475906L854.5178890235267 380.9637223475906Q853.8470815701105 380.9637223475906 853.8470815701105 380.29291489417443L853.8470815701105 380.29291489417443Q853.8470815701105 379.62210744075827 855.7290691477502 377.4606167575285Q857.5924231850173 375.31775961467133 860.4247213216632 372.3736602357894Q863.2383859179366 369.4109273165347 866.2570194583093 366.336393155044Q869.275652998682 363.2432254531806 871.5489449241478 360.83949874510614Q873.8408703899863 358.41713849665894 874.6421126260111 357.4854614780254L874.6421126260111 357.4854614780254Q875.9837275328434 355.7339086829943 877.5303113837751 354.6531633413794Q879.0582616943341 353.5910515401372 881.2197523775639 353.5910515401372L881.2197523775639 353.5910515401372Q882.4122989614149 353.5910515401372 884.163851756446 354.7276975028701Q885.915404551477 355.864343465603 885.915404551477 357.336393155044L885.915404551477 357.336393155044Q885.915404551477 357.87676582585146 885.6359014458869 358.00720060846015L885.6359014458869 358.00720060846015Q881.6110567253901 361.3612378755409 877.7911809489925 365.92645526684527Q873.971305172595 370.4916726581496 870.6172679055143 375.31775961467133Q867.2632306384336 380.1438465711931 864.4495660421602 384.31775961467133L864.4495660421602 384.31775961467133Q867.6545349862596 380.68421924200055 871.6793797067565 377.1252130308204Q875.7042244272534 373.58484036001295 879.4681995825329 370.4916726581496L879.4681995825329 370.4916726581496L888.9899387129677 362.7028527823732Q889.9402492719738 361.90161054634837 890.946460452098 360.96993352771483Q891.9526716322224 360.0196229687086 892.8843486508559 359.3488155152925L892.8843486508559 359.3488155152925Q893.9650939924708 358.6780080618763 895.2321747378124 358.752542223367Q896.499255483154 358.82707638485766 897.8408703899863 358.82707638485766L897.8408703899863 358.82707638485766Q899.3315536197999 358.82707638485766 900.7290691477502 359.6283186208825Q902.1452182160732 360.42956085690736 902.1452182160732 362.1811136519384L902.1452182160732 362.1811136519384Q902.1452182160732 363.9140329065968 901.2694418185578 364.78980930411234Q900.3936654210422 365.6655857016279 899.3315536197999 366.7276975028701L899.3315536197999 366.7276975028701Q897.0396281539614 368.8891881860999 893.7601250483714 372.3736602357894Q890.4619884024086 375.8581322854788 887.2570194583093 379.8829770059757Q884.0334169738372 383.9078217264726 881.8905598309801 388.00720060846015Q879.7290691477502 392.08794595007504 879.7290691477502 395.57241799976447L879.7290691477502 395.57241799976447Q879.7290691477502 395.98235588796325 879.7290691477502 396.39229377616203Q879.7290691477502 396.7835981239881 879.8781374707316 397.1935360121869L879.8781374707316 397.1935360121869Q882.6918020670049 396.112790670572 886.1017399552037 393.63452980100675Q889.5303113837751 391.1562689314415 893.0147834334646 388.0631012295782Q896.499255483154 384.9885670680875 899.5178890235267 381.8953993662241Q902.5365225638993 378.8022316643608 904.5489449241478 376.3985049562862L904.5489449241478 376.3985049562862Q904.8284480297378 376.1190018506962 905.163851756446 375.7276975028701Q905.499255483154 375.31775961467133 906.0396281539614 375.31775961467133L906.0396281539614 375.31775961467133Q906.7104356073776 375.31775961467133 906.7104356073776 376.26807017367753L906.7104356073776 376.26807017367753Q906.7104356073776 376.78980930411234 906.3004977191789 377.4606167575285L906.3004977191789 377.4606167575285Q903.747702688123 380.81465402460924 899.4619884024087 385.37987141591356Q895.1576405763218 389.9450888072179 890.6110567253901 394.0444676892055Q886.0458393340856 398.1252130308204 882.4122989614149 400.26807017367753L882.4122989614149 400.26807017367753Q881.4806219427813 400.808442844485 880.2694418185578 400.808442844485ZM973.3812430607937 367.808442844485L973.3812430607937 367.808442844485Q972.580000824769 367.808442844485 971.0334169738372 367.73390868299435Q969.4868331229055 367.6780080618763 968.1452182160732 367.26807017367753L968.1452182160732 367.26807017367753Q966.0023610732161 366.5972627202614 966.0023610732161 365.92645526684527L966.0023610732161 365.92645526684527Q966.0023610732161 365.3860825960378 966.8036033092409 365.1252130308204Q967.6048455452659 364.864343465603 968.555156104272 364.71527514262164L968.555156104272 364.71527514262164Q972.971305172595 364.04446768920553 979.2880753589304 362.7028527823732Q985.5862120048931 361.3612378755409 992.2942865390546 359.2183807326838Q999.0023610732161 357.0755235898266 1004.778758588744 353.98235588796325Q1010.5365225638993 350.9078217264726 1014.1700629365702 346.808442844485Q1017.7849697688683 342.7276975028701 1017.7849697688683 337.62210744075827L1017.7849697688683 337.62210744075827Q1017.7849697688683 333.4668279376527 1015.3812430607937 330.6531633413794Q1012.9588828123466 327.8208652047334 1009.139007035949 326.0134117885844Q1005.3191312595516 324.2059583724353 1000.8843486508559 323.27428135380177Q996.4495660421602 322.32397079479557 992.4247213216634 321.9885670680875Q988.3998766011665 321.6531633413794 985.5862120048931 321.6531633413794L985.5862120048931 321.6531633413794Q978.6172679055143 321.6531633413794 970.2321747378124 323.27428135380177Q961.8470815701106 324.87676582585146 953.8532927502348 327.42956085690736Q945.8781374707316 329.98235588796325 939.7104356073776 333.05689004945395L939.7104356073776 333.05689004945395Q939.580000824769 333.18732483206264 939.1700629365702 333.336393155044Q938.7601250483714 333.4668279376527 938.499255483154 333.4668279376527L938.499255483154 333.4668279376527Q937.8284480297378 333.4668279376527 937.8284480297378 332.3860825960378L937.8284480297378 332.3860825960378Q937.8284480297378 329.7028527823732 940.7725474086199 327.63452980100675Q943.7352803278744 325.5475732792676 948.4309325017877 323.9450888072179Q953.1265846757007 322.32397079479557 958.6980132471292 321.18732483206264Q964.250808278185 320.0506788693297 969.5613672843962 319.3798714159136Q974.8532927502348 318.70906396249745 978.8781374707316 318.3736602357893Q982.9029821912286 318.0382565090813 984.6545349862596 318.0382565090813L984.6545349862596 318.0382565090813Q988.2694418185578 318.0382565090813 993.0955287750795 318.50409501839806Q997.9402492719739 318.96993352771483 1003.027205793713 320.1811136519384Q1008.1327958558248 321.39229377616203 1012.4930443030297 323.60968508050985Q1016.8532927502348 325.808442844485 1019.7414915079987 329.23701427305645Q1022.6110567253901 332.6655857016279 1023.0209946135889 337.752542223367L1023.0209946135889 337.752542223367Q1023.5613672843962 344.3301819749198 1020.2073300173155 349.28670371405025Q1016.8532927502348 354.26185899355335 1011.0768952347067 357.8208652047335Q1005.3191312595516 361.3612378755409 998.4619884024086 363.57862917988876Q991.6234790856385 365.7960204842365 984.9899387129676 366.80223166436076Q978.3377647999242 367.808442844485 973.3812430607937 367.808442844485ZM948.5613672843963 401.2183807326838L948.5613672843963 401.2183807326838Q947.4806219427813 401.2183807326838 946.6793797067565 399.87676582585146Q945.8781374707316 398.53515091901915 945.4681995825329 396.9140329065968Q945.0768952347067 395.3115484345471 944.9464604520981 394.51030619852224L944.9464604520981 394.51030619852224Q944.5365225638994 389.9450888072179 946.3439759800484 383.77738694386386Q948.1514293961975 377.60968508050985 951.3750318806696 370.5662068196403Q954.5986343651416 363.5227285587707 958.7539138682472 356.40471613641046Q962.9091933713528 349.28670371405025 967.2694418185578 342.7835981239881Q971.6296902657626 336.280492533926 975.5241002036508 331.0444676892055L975.5241002036508 331.0444676892055Q976.4744107626572 329.8332875649819 977.5365225638993 327.96993352771483Q978.6172679055143 326.0879459500751 980.0147834334646 324.61589626063403Q981.4309325017874 323.1252130308204 983.0334169738372 323.1252130308204L983.0334169738372 323.1252130308204Q983.9837275328434 323.1252130308204 984.6545349862596 323.66558570162783L984.6545349862596 323.66558570162783Q985.8657151104832 324.336393155044 986.7973921291167 325.41713849665894Q987.7290691477502 326.47925029790116 987.8781374707316 327.69043042212473L987.8781374707316 327.69043042212473Q987.8781374707316 328.3612378755409 984.9899387129676 331.920244086721Q982.1017399552037 335.47925029790116 977.4806219427813 341.10657949044776Q972.8408703899863 346.752542223367 967.8098144893652 353.7960204842366Q962.778758588744 360.83949874510614 958.3626095204211 368.60968508050985Q953.9278269117254 376.3985049562862 951.3750318806696 384.2432254531806Q948.8222368496137 392.08794595007504 949.3626095204211 399.336393155044L949.3626095204211 399.336393155044L949.3626095204211 399.7463310432428Q949.3626095204211 400.26807017367753 949.2321747378124 400.752542223367Q949.1017399552037 401.2183807326838 948.5613672843963 401.2183807326838ZM1013.0893175949553 400.808442844485L1013.0893175949553 400.808442844485Q1009.194907657067 400.808442844485 1007.3315536198 397.65937452150365Q1005.4495660421602 394.51030619852224 1005.4495660421602 391.1562689314415L1005.4495660421602 391.1562689314415Q1005.4495660421602 386.5910515401372 1007.8532927502348 381.29912607429867Q1010.275652998682 375.9885670680875 1013.7042244272535 371.16248011156574Q1017.1141623154522 366.336393155044 1019.7973921291167 363.2432254531806L1019.7973921291167 363.2432254531806Q1020.4681995825329 362.44198321715584 1021.5489449241478 362.44198321715584L1021.5489449241478 362.44198321715584Q1022.7601250483714 362.44198321715584 1023.9526716322224 363.3736602357894L1023.9526716322224 363.3736602357894Q1026.7849697688685 361.3612378755409 1030.474410762657 359.7587534034912Q1034.163851756446 358.1562689314415 1037.6483238061355 358.1562689314415L1037.6483238061355 358.1562689314415Q1043.6855908868806 358.1562689314415 1043.6855908868806 364.32397079479557L1043.6855908868806 364.32397079479557Q1043.6855908868806 370.2308030929322 1040.7973921291168 375.18732483206264Q1037.9091933713528 380.1438465711931 1034.4247213216634 384.83949874510614L1034.4247213216634 384.83949874510614Q1033.4930443030298 386.0506788693297 1032.6172679055144 387.13142421094466Q1031.7414915079987 388.1935360121868 1030.660746166384 389.27428135380177L1030.660746166384 389.27428135380177Q1036.5675784645205 387.6717968817521 1041.002361073216 383.9078217264726Q1045.4185101415392 380.1438465711931 1049.7228579676262 376.1190018506962L1049.7228579676262 376.1190018506962Q1050.2632306384335 375.5972627202614 1050.7290691477501 375.26185899355335Q1051.194907657067 374.92645526684527 1051.996149893092 374.92645526684527L1051.996149893092 374.92645526684527Q1052.666957346508 374.92645526684527 1052.666957346508 375.8581322854788L1052.666957346508 375.8581322854788Q1052.666957346508 375.9885670680875 1052.2756529986818 376.52893973889496Q1051.865715110483 377.0693124097024 1051.7352803278745 377.33018197491975L1051.7352803278745 377.33018197491975Q1047.300497719179 382.696641602249 1040.7973921291168 387.336393155044Q1034.2942865390546 391.95751116746635 1027.1762741166945 393.0382565090813L1027.1762741166945 393.0382565090813Q1024.6234790856383 395.57241799976447 1020.747702688123 398.1997471923111Q1016.8532927502348 400.808442844485 1013.0893175949553 400.808442844485ZM1023.5613672843962 390.2059583724353L1023.5613672843962 390.2059583724353Q1024.1017399552038 390.2059583724353 1024.5675784645205 390.2059583724353Q1025.0334169738371 390.2059583724353 1025.5737896446449 390.0755235898266L1025.5737896446449 390.0755235898266Q1028.257019458309 386.85192110535456 1031.1452182160733 382.4357720370316Q1034.0147834334643 378.0009894283359 1036.0272057937132 373.24943663330487Q1038.0396281539615 368.47925029790116 1038.0396281539615 364.58484036001295L1038.0396281539615 364.58484036001295Q1038.0396281539615 362.1811136519384 1035.7663362284957 362.1811136519384L1035.7663362284957 362.1811136519384Q1033.4930443030298 362.1811136519384 1030.5303113837751 363.5227285587707Q1027.5862120048932 364.864343465603 1025.5737896446449 366.336393155044L1025.5737896446449 366.336393155044L1025.5737896446449 366.7276975028701Q1025.5737896446449 368.0693124097024 1023.4868331229056 370.5662068196403Q1021.4185101415391 373.04446768920553 1019.0706840545826 375.5972627202614Q1016.722857967626 378.13142421094466 1015.6421126260112 379.8829770059757L1015.6421126260112 379.8829770059757Q1015.2321747378124 384.31775961467133 1017.3936654210422 387.2618589935533Q1019.5365225638994 390.2059583724353 1023.5613672843962 390.2059583724353ZM1013.2197523775639 398.53515091901915L1013.2197523775639 398.53515091901915Q1015.7725474086199 398.53515091901915 1018.250808278185 396.6531633413794Q1020.747702688123 394.7711757637397 1022.4806219427813 393.16869129169L1022.4806219427813 393.16869129169Q1019.2570194583093 392.88918818609994 1016.6483238061354 390.9512999873421Q1014.0396281539614 389.0134117885844 1011.8781374707316 386.5910515401372L1011.8781374707316 386.5910515401372Q1011.4868331229055 387.39229377616203 1010.8160256694895 389.68421924200055Q1010.1452182160732 391.95751116746635 1010.1452182160732 394.2308030929322L1010.1452182160732 394.2308030929322Q1010.1452182160732 395.98235588796325 1010.8160256694895 397.24943663330487Q1011.4868331229055 398.53515091901915 1013.2197523775639 398.53515091901915ZM1061.2570194583093 400.9388776270937L1061.2570194583093 400.9388776270937Q1059.1141623154522 400.9388776270937 1056.7663362284957 398.74011986311854Q1054.4185101415392 396.5227285587707 1054.4185101415392 394.37987141591356L1054.4185101415392 394.37987141591356Q1054.4185101415392 391.696641602249 1056.300497719179 388.26807017367753Q1058.163851756446 384.83949874510614 1060.7166467875018 381.63452980100675Q1063.2694418185579 378.4109273165347 1065.1514293961975 376.0631012295782Q1067.0334169738371 373.71527514262164 1067.0334169738371 372.9140329065968L1067.0334169738371 372.9140329065968L1067.0334169738371 372.63452980100675Q1065.8222368496135 371.5724179997645 1064.7414915079987 370.5662068196403Q1063.6793797067567 369.55999563951605 1061.7973921291168 369.55999563951605L1061.7973921291168 369.55999563951605Q1060.4557772222843 369.55999563951605 1058.3688207005453 371.16248011156574Q1056.300497719179 372.76496458361544 1054.139007035949 374.92645526684527Q1051.996149893092 377.0693124097024 1050.2632306384335 378.9512999873421Q1048.5116778434026 380.81465402460924 1047.7104356073778 381.48546147802534L1047.7104356073778 381.48546147802534Q1047.17006293657 382.0258341488328 1046.7042244272534 382.1562689314415Q1046.2383859179367 382.3053372544229 1045.9588828123465 382.3053372544229L1045.9588828123465 382.3053372544229Q1045.4185101415392 382.3053372544229 1045.4185101415392 381.76496458361544L1045.4185101415392 381.76496458361544Q1045.4185101415392 381.22459191280797 1045.9588828123465 380.68421924200055L1045.9588828123465 380.68421924200055Q1048.1017399552038 377.8705546457273 1050.9340380918497 374.92645526684527Q1053.747702688123 371.9637223475906 1056.0209946135888 369.4854614780254Q1058.3129200794274 367.00720060846015 1058.7042244272534 365.92645526684527L1058.7042244272534 365.92645526684527Q1059.7849697688685 362.85192110535456 1060.9216157316012 360.42956085690736Q1062.0582616943343 358.00720060846015 1064.61105672539 355.864343465603L1064.61105672539 355.864343465603Q1065.691802067005 354.80223166436076 1067.163851756446 354.13142421094466Q1068.635901445887 353.4606167575285 1070.1079511353278 353.4606167575285L1070.1079511353278 353.4606167575285Q1071.4495660421603 353.4606167575285 1072.3253424396758 354.18732483206264Q1073.2011188371912 354.93266644696945 1073.2011188371912 356.40471613641046L1073.2011188371912 356.40471613641046Q1073.2011188371912 358.00720060846015 1071.7849697688685 359.6283186208825Q1070.387454240918 361.2308030929322 1068.5054666632782 362.6469521612552Q1066.6234790856383 364.04446768920553 1065.2073300173156 365.1252130308204Q1063.8098144893652 366.2059583724353 1063.940249271974 366.87676582585146L1063.940249271974 366.87676582585146Q1064.7414915079987 367.3985049562862 1067.0893175949552 368.2183807326838Q1069.437143681912 369.01962296870863 1070.387454240918 369.01962296870863L1070.387454240918 369.01962296870863Q1071.4495660421603 369.01962296870863 1072.3998766011664 368.60968508050985Q1073.3315536198002 368.2183807326838 1074.2632306384335 368.2183807326838L1074.2632306384335 368.2183807326838Q1075.604845545266 368.2183807326838 1076.946460452098 369.01962296870863Q1078.2880753589304 369.8208652047334 1078.2880753589304 371.4233496767831L1078.2880753589304 371.4233496767831Q1078.2880753589304 372.76496458361544 1077.2818641788062 373.920244086721Q1076.2756529986818 375.05689004945395 1075.2135411974398 375.8581322854788L1075.2135411974398 375.8581322854788Q1073.5924231850172 377.0693124097024 1070.9091933713528 379.4730391177769Q1068.2259635576881 381.8953993662241 1065.4868331229056 384.83949874510614Q1062.7290691477501 387.80223166436076 1060.7911809489924 390.69043042212473Q1058.834659209862 393.55999563951605 1058.834659209862 395.7214863227459L1058.834659209862 395.7214863227459Q1058.834659209862 396.2432254531807 1059.1141623154522 396.7835981239881L1059.1141623154522 396.7835981239881Q1059.244597098061 396.9140329065968 1059.6545349862595 396.9140329065968L1059.6545349862595 396.9140329065968Q1062.3377647999241 396.9140329065968 1065.691802067005 394.51030619852224Q1069.0458393340857 392.08794595007504 1072.4557772222845 388.6034739003856Q1075.8843486508558 385.1190018506962 1078.9029821912286 381.69043042212473Q1081.9216157316014 378.280492533926 1084.0644728744583 376.3985049562862L1084.0644728744583 376.3985049562862Q1084.3253424396758 376.1190018506962 1084.7352803278745 375.8581322854788Q1085.1452182160733 375.5972627202614 1085.5365225638993 375.5972627202614L1085.5365225638993 375.5972627202614Q1086.2073300173156 375.5972627202614 1086.2073300173156 376.52893973889496L1086.2073300173156 376.52893973889496Q1086.2073300173156 377.0693124097024 1084.3998766011664 379.21216955255954Q1082.5924231850172 381.3550266954167 1079.778758588744 384.31775961467133Q1076.946460452098 387.2618589935533 1073.9278269117253 390.3550266954167Q1070.9091933713528 393.42956085690736 1068.3750318806697 395.7773869438639Q1065.8222368496135 398.1252130308204 1064.7414915079987 399.0755235898266L1064.7414915079987 399.0755235898266Q1063.2694418185579 400.26807017367753 1062.5986343651416 400.6034739003856Q1061.9278269117253 400.9388776270937 1061.2570194583093 400.9388776270937ZM1090.3626095204213 402.8208652047335L1090.3626095204213 402.8208652047335Q1087.9588828123465 402.8208652047335 1086.2818641788062 401.2183807326838Q1084.604845545266 399.5972627202614 1083.7290691477504 397.24943663330487Q1082.8532927502347 394.90161054634837 1082.8532927502347 392.7587534034912L1082.8532927502347 392.7587534034912Q1082.8532927502347 390.6158962606341 1083.3936654210424 388.52893973889496Q1083.9340380918497 386.4606167575285 1084.865715110483 384.44819439728L1084.865715110483 384.44819439728Q1086.6172679055144 380.5537844593918 1089.0955287750794 375.7835981239881Q1091.5737896446449 371.03204532895705 1094.4619884024087 366.0009894283359Q1097.3501871601727 360.96993352771483 1100.2942865390546 356.81465402460924L1100.2942865390546 356.81465402460924Q1098.0209946135888 357.7463310432428 1095.002361073216 358.8829770059757Q1091.9837275328434 360.0196229687086 1091.0334169738371 360.0196229687086L1091.0334169738371 360.0196229687086Q1090.5116778434026 359.8891881860999 1090.306708899303 359.2183807326838Q1090.1017399552038 358.5475732792676 1090.1017399552038 357.87676582585146L1090.1017399552038 357.87676582585146Q1090.1017399552038 355.0631012295782 1092.7849697688685 354.13142421094466L1092.7849697688685 354.13142421094466Q1096.940249271974 352.78980930411234 1103.9278269117253 351.7090639624974L1103.9278269117253 351.7090639624974Q1109.0147834334646 345.0009894283359 1114.996149893092 338.29291489417443Q1120.9588828123465 331.58484036001295 1127.1265846757005 327.69043042212473L1127.1265846757005 327.69043042212473Q1128.3377647999241 326.8891881860999 1129.8098144893652 328.4357720370316Q1131.2818641788062 329.98235588796325 1131.4309325017875 331.58484036001295L1131.4309325017875 331.58484036001295Q1131.4309325017875 333.05689004945395 1130.3501871601725 333.5972627202614L1130.3501871601725 333.5972627202614Q1124.9837275328434 336.95129998734217 1120.4185101415392 341.1811136519384Q1115.8532927502347 345.4109273165347 1111.0272057937132 350.77738694386386L1111.0272057937132 350.77738694386386Q1113.7104356073776 350.36744905566513 1115.7228579676262 350.23701427305645Q1117.7352803278745 350.1065794904477 1118.2756529986818 350.1065794904477L1118.2756529986818 350.1065794904477Q1118.6855908868806 350.1065794904477 1119.6172679055144 350.03204532895705Q1120.5489449241477 349.95751116746635 1121.6296902657627 349.95751116746635L1121.6296902657627 349.95751116746635Q1123.2321747378123 349.95751116746635 1124.6483238061355 350.23701427305645Q1126.0644728744583 350.4978838382738 1126.0644728744583 351.16869129169L1126.0644728744583 351.16869129169Q1126.0644728744583 351.7090639624974 1124.9091933713528 352.0444676892055Q1123.7725474086196 352.37987141591356 1122.4309325017875 352.45440557740426Q1121.0893175949552 352.5103061985223 1120.4185101415392 352.640740981131L1120.4185101415392 352.640740981131Q1116.3936654210422 353.1811136519384 1113.2445970980607 353.7214863227459Q1110.0955287750794 354.26185899355335 1107.4122989614148 355.0631012295782L1107.4122989614148 355.0631012295782Q1104.3191312595513 358.82707638485766 1102.642112626011 361.3612378755409Q1100.9650939924709 363.9140329065968 1099.828448029738 366.0009894283359Q1098.691802067005 368.0693124097024 1097.0706840545827 370.6221074407583L1097.0706840545827 370.6221074407583Q1093.5862120048932 377.33018197491975 1091.1079511353278 384.31775961467133Q1088.6296902657627 391.28670371405025 1088.6296902657627 395.57241799976447L1088.6296902657627 395.57241799976447Q1088.6296902657627 396.2432254531807 1088.7601250483715 396.6531633413794Q1088.8905598309802 397.0631012295782 1089.5613672843963 397.0631012295782L1089.5613672843963 397.0631012295782Q1090.3626095204213 397.0631012295782 1091.1079511353278 396.57862917988876Q1091.8532927502347 396.112790670572 1092.3750318806697 395.57241799976447L1092.3750318806697 395.57241799976447Q1094.2570194583093 394.1003683103235 1095.9340380918497 392.16248011156574Q1097.61105672539 390.2059583724353 1099.2321747378123 388.4730391177769L1099.2321747378123 388.4730391177769Q1102.1762741166945 385.24943663330487 1105.2694418185579 382.1562689314415Q1108.3439759800485 379.08173476995086 1111.306708899303 375.9885670680875L1111.306708899303 375.9885670680875Q1111.5675784645205 375.7276975028701 1111.828448029738 375.5227285587707Q1112.1079511353278 375.31775961467133 1112.3688207005453 375.31775961467133L1112.3688207005453 375.31775961467133Q1113.3191312595516 375.31775961467133 1113.3191312595516 376.3985049562862L1113.3191312595516 376.3985049562862Q1113.3191312595516 376.78980930411234 1112.778758588744 377.60968508050985L1112.778758588744 377.60968508050985Q1111.1576405763217 379.752542223367 1109.2942865390546 381.8208652047335Q1107.4122989614148 383.9078217264726 1105.660746166384 386.0506788693297L1105.660746166384 386.0506788693297Q1102.1762741166945 390.2059583724353 1098.747702688123 394.2308030929322Q1095.3377647999241 398.2556478134291 1091.9837275328434 402.55999563951605L1091.9837275328434 402.55999563951605Q1091.5737896446449 402.69043042212473 1091.1824852968189 402.76496458361544Q1090.7725474086199 402.8208652047335 1090.3626095204213 402.8208652047335ZM1100.163851756446 449.5165173786465L1100.163851756446 449.5165173786465Q1087.5489449241477 449.5165173786465 1087.5489449241477 435.96993352771483L1087.5489449241477 435.96993352771483Q1087.5489449241477 430.1935360121868 1089.9713051725948 421.73390868299435L1089.9713051725948 421.73390868299435Q1091.7042244272534 416.10657949044776 1095.1327958558247 409.13763539106884Q1098.5613672843963 402.1500577513173 1103.05205051421 394.64074098113093Q1107.5427337440237 387.13142421094466 1112.5737896446449 379.5475732792676Q1117.6048455452658 371.9637223475906 1122.561367284396 364.99477824821173L1122.561367284396 364.99477824821173Q1120.2880753589302 365.7960204842365 1117.474410762657 366.7276975028701Q1114.660746166384 367.6780080618763 1113.17006293657 367.6780080618763L1113.17006293657 367.6780080618763Q1112.4992554831542 367.3985049562862 1112.3129200794274 366.6717968817521Q1112.1079511353278 365.92645526684527 1112.1079511353278 365.2556478134291L1112.1079511353278 365.2556478134291Q1112.1079511353278 363.5227285587707 1112.9837275328434 361.7711757637397Q1113.8408703899863 360.0196229687086 1115.5924231850172 359.8891881860999L1115.5924231850172 359.8891881860999Q1117.7352803278745 359.6283186208825 1120.9588828123465 359.29291489417443Q1124.1824852968186 358.95751116746635 1126.996149893092 358.6780080618763L1126.996149893092 358.6780080618763L1129.0085722533404 355.99477824821173Q1131.561367284396 352.37987141591356 1135.642112626011 346.8829770059757Q1139.741491507999 341.3860825960378 1144.8470815701105 335.0134117885844Q1149.9340380918497 328.640740981131 1155.7104356073778 322.32397079479557Q1161.4681995825329 316.0258341488328 1167.4495660421603 310.86434346560304Q1173.4122989614148 305.68421924200055 1179.1886964769428 302.60968508050985Q1184.946460452098 299.5165173786465 1190.05205051421 299.5165173786465L1190.05205051421 299.5165173786465Q1193.666957346508 299.5165173786465 1195.2135411974398 302.66558570162783Q1196.7601250483713 305.8332875649819 1196.7601250483713 309.0382565090813L1196.7601250483713 309.0382565090813Q1196.7601250483713 313.21216955255954 1194.6731685266323 316.3612378755409Q1192.6048455452658 319.51030619852224 1189.4557772222843 322.1935360121869Q1186.2880753589304 324.87676582585146 1182.9340380918497 327.55999563951605Q1179.5800008247688 330.2432254531807 1177.0458393340857 333.5227285587707Q1174.4930443030298 336.8208652047335 1173.691802067005 341.10657949044776L1173.691802067005 341.10657949044776Q1173.5427337440237 341.6469521612552 1173.4868331229054 342.39229377616203Q1173.4122989614148 343.1190018506962 1172.7414915079987 341.9078217264726L1172.7414915079987 341.9078217264726Q1171.8098144893652 340.5662068196403 1171.8098144893652 338.55378445939186L1171.8098144893652 338.55378445939186Q1171.8098144893652 334.808442844485 1174.9588828123465 329.98235588796325Q1178.1079511353278 325.13763539106884 1182.5986343651416 320.1811136519384Q1187.1079511353278 315.22459191280797 1191.132795855825 311.19974719231107L1191.132795855825 311.19974719231107Q1191.803603309241 310.52893973889496 1192.6048455452658 309.3736602357893Q1193.4060877812908 308.23701427305645 1193.4060877812908 307.30533725442285L1193.4060877812908 307.30533725442285Q1193.4060877812908 305.68421924200055 1190.4619884024087 305.68421924200055L1190.4619884024087 305.68421924200055Q1188.0396281539615 305.68421924200055 1184.219752377564 307.976144707839Q1180.3998766011664 310.24943663330487 1175.8905598309802 313.8829770059757Q1171.3998766011664 317.4978838382738 1167.0396281539615 321.39229377616203Q1162.6793797067564 325.2867037140502 1159.2694418185579 328.5662068196403Q1155.8408703899863 331.8457099252303 1154.2383859179367 333.4668279376527L1154.2383859179367 333.4668279376527Q1149.2632306384335 338.29291489417443 1143.0209946135888 345.0009894283359Q1136.7973921291168 351.7090639624974 1131.691802067005 358.28670371405025L1131.691802067005 358.28670371405025Q1134.2445970980607 358.1562689314415 1137.4681995825329 357.8208652047335Q1140.6731685266323 357.4854614780254 1143.8408703899863 357.2059583724353Q1146.9899387129676 356.9450888072179 1149.002361073216 356.9450888072179L1149.002361073216 356.9450888072179Q1149.3936654210422 356.9450888072179 1150.3439759800485 357.0755235898266Q1151.275652998682 357.2059583724353 1151.275652998682 357.7463310432428L1151.275652998682 357.7463310432428Q1151.275652998682 358.28670371405025 1149.9340380918497 358.4916726581496Q1148.5924231850174 358.6780080618763 1148.3315536198002 358.82707638485766L1148.3315536198002 358.82707638485766Q1145.6483238061355 359.2183807326838 1142.9650939924709 359.7587534034912Q1140.2818641788062 360.29912607429867 1137.5986343651416 360.83949874510614L1137.5986343651416 360.83949874510614Q1136.387454240918 361.1003683103235 1133.499255483154 361.8457099252303Q1130.61105672539 362.57241799976447 1128.0768952347066 363.2432254531806L1128.0768952347066 363.2432254531806Q1127.4060877812908 364.32397079479557 1126.7352803278745 365.33018197491975Q1126.0644728744583 366.336393155044 1125.524100203651 367.3985049562862L1125.524100203651 367.3985049562862Q1135.7166467875018 367.13763539106884 1140.2818641788062 372.76496458361544Q1144.8470815701105 378.4109273165347 1144.8470815701105 387.5227285587707L1144.8470815701105 387.5227285587707Q1144.8470815701105 393.83949874510614 1142.834659209862 401.08794595007504L1142.834659209862 401.08794595007504Q1140.5427337440237 409.65937452150365 1136.2570194583095 418.24943663330487Q1131.9526716322225 426.83949874510614 1126.194907657067 433.9575111674664Q1120.4185101415392 441.05689004945395 1113.7849697688685 445.28670371405025Q1107.132795855825 449.5165173786465 1100.163851756446 449.5165173786465ZM1102.1762741166945 446.16248011156574L1102.1762741166945 446.16248011156574Q1107.2818641788062 446.16248011156574 1111.9029821912286 443.0693124097024Q1116.524100203651 439.99477824821173 1120.6234790856383 435.0196229687086Q1124.7228579676262 430.0631012295782 1128.0023610732162 424.0258341488328Q1131.2818641788062 417.9885670680875 1133.7042244272534 412.00720060846015Q1136.1265846757005 406.04446768920553 1137.3191312595516 401.2183807326838L1137.3191312595516 401.2183807326838Q1138.139007035949 397.99477824821173 1138.6048455452658 394.90161054634837Q1139.0706840545827 391.82707638485766 1139.0706840545827 389.0134117885844L1139.0706840545827 389.0134117885844Q1139.0706840545827 381.48546147802534 1135.7166467875018 376.26807017367753Q1132.362609520421 371.03204532895705 1124.7228579676262 370.6221074407583L1124.7228579676262 370.6221074407583Q1123.5116778434026 372.2432254531806 1121.0893175949552 375.93266644696945Q1118.6855908868806 379.62210744075827 1115.666957346508 384.44819439728Q1112.6483238061355 389.27428135380177 1109.6855908868806 394.2308030929322Q1106.7414915079987 399.2059583724353 1104.3191312595513 403.5662068196403Q1101.915404551477 407.92645526684527 1100.5737896446449 410.74011986311854L1100.5737896446449 410.74011986311854Q1099.6234790856383 412.8829770059757 1097.8160256694896 417.18732483206264Q1096.0085722533404 421.4730391177769 1094.5924231850172 426.57862917988876Q1093.1949076570672 431.6655857016279 1093.1949076570672 436.1003683103235L1093.1949076570672 436.1003683103235Q1093.1949076570672 440.3860825960378 1095.2073300173156 443.27428135380177Q1097.219752377564 446.16248011156574 1102.1762741166945 446.16248011156574ZM1161.2073300173156 400.808442844485L1161.2073300173156 400.808442844485Q1157.3129200794274 400.808442844485 1155.4309325017875 397.65937452150365Q1153.5675784645205 394.51030619852224 1153.5675784645205 391.1562689314415L1153.5675784645205 391.1562689314415Q1153.5675784645205 386.5910515401372 1155.971305172595 381.29912607429867Q1158.3936654210422 375.9885670680875 1161.803603309241 371.16248011156574Q1165.2321747378123 366.336393155044 1167.915404551477 363.2432254531806L1167.915404551477 363.2432254531806Q1168.5862120048932 362.44198321715584 1169.666957346508 362.44198321715584L1169.666957346508 362.44198321715584Q1170.859503930359 362.44198321715584 1172.0706840545827 363.3736602357894L1172.0706840545827 363.3736602357894Q1174.8843486508558 361.3612378755409 1178.5737896446449 359.7587534034912Q1182.2632306384335 358.1562689314415 1185.7663362284957 358.1562689314415L1185.7663362284957 358.1562689314415Q1191.803603309241 358.1562689314415 1191.803603309241 364.32397079479557L1191.803603309241 364.32397079479557Q1191.803603309241 370.2308030929322 1188.915404551477 375.18732483206264Q1186.0272057937132 380.1438465711931 1182.5427337440237 384.83949874510614L1182.5427337440237 384.83949874510614Q1181.5924231850172 386.0506788693297 1180.7352803278745 387.13142421094466Q1179.859503930359 388.1935360121868 1178.778758588744 389.27428135380177L1178.778758588744 389.27428135380177Q1184.6855908868806 387.6717968817521 1189.1203734955764 383.9078217264726Q1193.5365225638993 380.1438465711931 1197.8408703899863 376.1190018506962L1197.8408703899863 376.1190018506962Q1198.362609520421 375.5972627202614 1198.8470815701105 375.26185899355335Q1199.3129200794274 374.92645526684527 1200.1141623154522 374.92645526684527L1200.1141623154522 374.92645526684527Q1200.7849697688685 374.92645526684527 1200.7849697688685 375.8581322854788L1200.7849697688685 375.8581322854788Q1200.7849697688685 375.9885670680875 1200.3750318806697 376.52893973889496Q1199.9837275328437 377.0693124097024 1199.8532927502347 377.33018197491975L1199.8532927502347 377.33018197491975Q1195.4185101415392 382.696641602249 1188.915404551477 387.336393155044Q1182.4122989614148 391.95751116746635 1175.2942865390546 393.0382565090813L1175.2942865390546 393.0382565090813Q1172.7414915079987 395.57241799976447 1168.8470815701105 398.1997471923111Q1164.971305172595 400.808442844485 1161.2073300173156 400.808442844485ZM1171.6793797067567 390.2059583724353L1171.6793797067567 390.2059583724353Q1172.2011188371912 390.2059583724353 1172.6855908868806 390.2059583724353Q1173.1514293961975 390.2059583724353 1173.691802067005 390.0755235898266L1173.691802067005 390.0755235898266Q1176.3750318806697 386.85192110535456 1179.244597098061 382.4357720370316Q1182.132795855825 378.0009894283359 1184.1452182160733 373.24943663330487Q1186.1576405763217 368.47925029790116 1186.1576405763217 364.58484036001295L1186.1576405763217 364.58484036001295Q1186.1576405763217 362.1811136519384 1183.8843486508558 362.1811136519384L1183.8843486508558 362.1811136519384Q1181.5924231850172 362.1811136519384 1178.6483238061355 363.5227285587707Q1175.7042244272534 364.864343465603 1173.691802067005 366.336393155044L1173.691802067005 366.336393155044L1173.691802067005 366.7276975028701Q1173.691802067005 368.0693124097024 1171.6048455452658 370.5662068196403Q1169.5178890235265 373.04446768920553 1167.17006293657 375.5972627202614Q1164.8222368496135 378.13142421094466 1163.7601250483715 379.8829770059757L1163.7601250483715 379.8829770059757Q1163.3501871601725 384.31775961467133 1165.4930443030298 387.2618589935533Q1167.6545349862595 390.2059583724353 1171.6793797067567 390.2059583724353ZM1161.3377647999241 398.53515091901915L1161.3377647999241 398.53515091901915Q1163.8905598309802 398.53515091901915 1166.3688207005453 396.6531633413794Q1168.8470815701105 394.7711757637397 1170.5986343651416 393.16869129169L1170.5986343651416 393.16869129169Q1167.3750318806697 392.88918818609994 1164.7663362284957 390.9512999873421Q1162.139007035949 389.0134117885844 1159.996149893092 386.5910515401372L1159.996149893092 386.5910515401372Q1159.6048455452658 387.39229377616203 1158.9340380918497 389.68421924200055Q1158.2632306384335 391.95751116746635 1158.2632306384335 394.2308030929322L1158.2632306384335 394.2308030929322Q1158.2632306384335 395.98235588796325 1158.9340380918497 397.24943663330487Q1159.6048455452658 398.53515091901915 1161.3377647999241 398.53515091901915ZM1203.7290691477504 400.6780080618763L1203.7290691477504 400.6780080618763Q1201.4557772222843 400.6780080618763 1198.2321747378123 398.92645526684527Q1195.0085722533404 397.1935360121869 1193.8160256694896 395.18111365193846L1193.8160256694896 395.18111365193846Q1192.996149893092 393.83949874510614 1192.996149893092 391.95751116746635L1192.996149893092 391.95751116746635Q1192.996149893092 387.6717968817521 1196.163851756446 380.47925029790116Q1199.3129200794274 373.3053372544229 1204.139007035949 364.99477824821173L1204.139007035949 364.99477824821173Q1206.2818641788062 361.2308030929322 1209.7104356073776 356.27428135380177Q1213.1203734955764 351.29912607429867 1217.4247213216634 346.00720060846015Q1221.7104356073776 340.71527514262164 1226.4806219427812 335.8705546457272Q1231.2321747378126 331.0444676892055 1236.0023610732162 327.42956085690736Q1240.7725474086199 323.7960204842366 1245.058261694334 322.32397079479557L1245.058261694334 322.32397079479557Q1246.8098144893654 321.6531633413794 1248.1514293961975 321.6531633413794L1248.1514293961975 321.6531633413794Q1250.6855908868808 321.6531633413794 1251.6918020670048 323.3301819749198Q1252.6980132471292 325.00720060846015 1254.44956604216 326.0879459500751L1254.44956604216 326.0879459500751Q1255.5303113837751 326.7587534034912 1255.5303113837751 328.2308030929322L1255.5303113837751 328.2308030929322Q1255.5303113837751 331.32397079479557 1252.1762741166942 335.60968508050985Q1248.8222368496138 339.8953993662241 1243.4557772222845 344.74011986311854Q1238.0893175949552 349.5662068196403 1231.9029821912284 354.31775961467133Q1225.7352803278743 359.08794595007504 1220.0334169738373 363.11279067057194Q1214.3315536198 367.13763539106884 1210.3067088993027 369.8208652047334Q1206.2818641788062 372.50409501839806 1205.219752377564 373.17490247181416L1205.219752377564 373.17490247181416Q1203.2073300173156 376.93887762709375 1201.4557772222843 381.76496458361544Q1199.7042244272534 386.5910515401372 1199.7042244272534 390.87676582585146L1199.7042244272534 390.87676582585146Q1199.7042244272534 392.4978838382738 1200.1886964769428 394.4357720370316Q1200.6545349862595 396.39229377616203 1202.7973921291168 396.39229377616203L1202.7973921291168 396.39229377616203Q1204.8098144893652 396.39229377616203 1207.4930443030298 394.90161054634837Q1210.1762741166942 393.42956085690736 1212.7290691477504 391.62210744075827Q1215.281864178806 389.81465402460924 1216.753913868247 388.6034739003856L1216.753913868247 388.6034739003856Q1220.2383859179365 385.78980930411234 1222.9216157316012 382.82707638485766Q1225.6048455452658 379.8829770059757 1229.2197523775637 376.1190018506962L1229.2197523775637 376.1190018506962Q1229.499255483154 375.8581322854788 1229.7601250483715 375.6531633413794Q1230.0396281539613 375.44819439728 1230.4309325017873 375.44819439728L1230.4309325017873 375.44819439728Q1231.2321747378126 375.44819439728 1231.2321747378126 376.3985049562862L1231.2321747378126 376.3985049562862Q1231.2321747378126 377.1997471923111 1230.5613672843963 377.8705546457273L1230.5613672843963 377.8705546457273Q1225.194907657067 383.77738694386386 1219.362609520421 390.0755235898266Q1213.5303113837751 396.39229377616203 1206.4122989614148 400.00720060846015L1206.4122989614148 400.00720060846015Q1205.0706840545827 400.6780080618763 1203.7290691477504 400.6780080618763ZM1209.5054666632782 366.2059583724353L1209.5054666632782 366.2059583724353Q1211.5178890235268 365.53515091901915 1215.1327958558247 362.9078217264726Q1218.7663362284954 360.29912607429867 1223.2570194583093 356.6655857016279Q1227.7477026881231 353.0506788693297 1232.3874542409178 348.95129998734217Q1237.0085722533402 344.8705546457272 1240.9588828123467 341.0506788693297Q1244.9278269117256 337.21216955255954 1247.5365225638996 334.4730391177769Q1250.1638517564459 331.71527514262164 1250.5551561042719 330.6531633413794L1250.5551561042719 330.6531633413794Q1250.8346592098621 329.8332875649819 1250.8346592098621 329.5724179997645L1250.8346592098621 329.5724179997645Q1250.8346592098621 328.4916726581496 1249.8284480297377 328.1003683103235Q1248.8222368496138 327.69043042212473 1247.6110567253902 327.69043042212473L1247.6110567253902 327.69043042212473Q1246.940249271974 327.69043042212473 1246.2694418185577 327.8208652047334Q1245.5986343651414 327.96993352771483 1245.058261694334 328.1003683103235L1245.058261694334 328.1003683103235Q1242.7849697688682 328.90161054634837 1239.020994613589 332.0506788693297Q1235.2570194583093 335.19974719231107 1230.971305172595 339.7090639624974Q1226.6855908868808 344.1997471923111 1222.4557772222845 349.1562689314415Q1218.2259635576881 354.13142421094466 1214.7973921291166 358.62210744075827Q1211.3874542409178 363.11279067057194 1209.5054666632782 366.2059583724353ZM1255.2508082781849 348.76496458361544L1255.2508082781849 348.76496458361544Q1252.1762741166942 348.76496458361544 1252.1762741166942 346.4730391177769L1252.1762741166942 346.4730391177769Q1252.1762741166942 344.8705546457272 1253.9091933713528 342.9885670680875Q1255.6607461663837 341.10657949044776 1259.0147834334646 340.3053372544229L1259.0147834334646 340.3053372544229Q1261.027205793713 339.76496458361544 1262.2942865390548 339.7090639624974Q1263.580000824769 339.63452980100675 1264.7725474086199 339.22459191280797L1264.7725474086199 339.22459191280797Q1264.2508082781849 341.77738694386386 1262.5737896446446 344.74011986311854Q1260.8967710111044 347.68421924200055 1258.2135411974398 348.3550266954167L1258.2135411974398 348.3550266954167Q1256.8719262906072 348.76496458361544 1255.2508082781849 348.76496458361544ZM1233.7849697688682 402.1500577513173L1233.7849697688682 402.1500577513173Q1231.6421126260113 402.1500577513173 1229.8346592098621 400.41713849665894Q1228.027205793713 398.6655857016279 1227.6172679055142 396.6531633413794L1227.6172679055142 396.6531633413794Q1228.027205793713 394.1003683103235 1229.4247213216634 390.4109273165347Q1230.8408703899865 386.7214863227459 1232.722857967626 382.696641602249Q1234.586212004893 378.6717968817521 1236.4681995825329 375.11279067057194Q1238.3501871601727 371.5724179997645 1239.6918020670048 369.4109273165347L1239.6918020670048 369.4109273165347Q1237.1390070359491 371.7028527823732 1234.2508082781849 374.5165173786465Q1231.3812430607938 377.33018197491975 1228.8284480297377 379.752542223367L1228.8284480297377 379.752542223367Q1228.6980132471292 379.8829770059757 1228.2135411974398 380.29291489417443Q1227.7477026881231 380.68421924200055 1227.3563983402967 380.68421924200055L1227.3563983402967 380.68421924200055Q1226.4060877812906 380.68421924200055 1226.4060877812906 379.8829770059757L1226.4060877812906 379.8829770059757Q1226.4060877812906 379.21216955255954 1226.9464604520979 378.6717968817521L1226.9464604520979 378.6717968817521Q1230.5613672843963 374.6469521612552 1234.5303113837751 370.6221074407583Q1238.4806219427812 366.5972627202614 1242.244597098061 362.3115484345471L1242.244597098061 362.3115484345471Q1243.4557772222845 360.83949874510614 1244.3129200794272 359.9637223475906Q1245.1886964769426 359.08794595007504 1247.0706840545824 359.08794595007504L1247.0706840545824 359.08794595007504Q1247.8719262906072 359.08794595007504 1249.548944924148 359.4233496767831Q1251.2259635576881 359.7587534034912 1252.362609520421 360.55999563951605Q1253.5178890235268 361.3612378755409 1252.6980132471292 362.57241799976447L1252.6980132471292 362.57241799976447Q1251.7663362284954 364.04446768920553 1249.4930443030296 367.3985049562862Q1247.2011188371914 370.75254222336696 1244.3129200794272 375.05689004945395Q1241.4433548620361 379.34260433516823 1238.6855908868808 383.7028527823732Q1235.9278269117256 388.0631012295782 1234.194907657067 391.5475732792676Q1232.4433548620361 395.0506788693297 1232.4433548620361 396.7835981239881L1232.4433548620361 396.7835981239881Q1232.4433548620361 397.58484036001295 1232.9837275328434 397.58484036001295L1232.9837275328434 397.58484036001295Q1233.7849697688682 397.58484036001295 1235.7414915079987 396.112790670572Q1237.6793797067564 394.64074098113093 1239.6172679055142 392.9637223475906Q1241.5737896446446 391.28670371405025 1242.244597098061 390.7463310432428L1242.244597098061 390.7463310432428Q1246.1390070359491 387.39229377616203 1249.8843486508556 383.8332875649819Q1253.6483238061353 380.29291489417443 1257.0023610732162 376.3985049562862L1257.0023610732162 376.3985049562862Q1257.2632306384337 376.1190018506962 1257.7290691477504 375.5972627202614Q1258.2135411974398 375.05689004945395 1258.7352803278743 375.05689004945395L1258.7352803278743 375.05689004945395Q1259.4060877812906 375.05689004945395 1259.4060877812906 375.8581322854788L1259.4060877812906 375.8581322854788Q1259.4060877812906 376.78980930411234 1258.7352803278743 377.74011986311854L1258.7352803278743 377.74011986311854Q1257.0023610732162 379.8829770059757 1254.8595039303589 381.96993352771483Q1252.6980132471292 384.0382565090813 1250.8346592098621 386.0506788693297L1250.8346592098621 386.0506788693297Q1247.3315536198 389.53515091901915 1244.0520505142097 392.9637223475906Q1240.7725474086199 396.39229377616203 1237.548944924148 400.00720060846015L1237.548944924148 400.00720060846015Q1236.8781374707316 400.808442844485 1235.8719262906072 401.47925029790116Q1234.8657151104833 402.1500577513173 1233.7849697688682 402.1500577513173ZM1259.8160256694894 400.808442844485L1259.8160256694894 400.808442844485Q1255.9216157316012 400.808442844485 1254.0396281539613 397.65937452150365Q1252.1762741166942 394.51030619852224 1252.1762741166942 391.1562689314415L1252.1762741166942 391.1562689314415Q1252.1762741166942 386.5910515401372 1254.580000824769 381.29912607429867Q1257.0023610732162 375.9885670680875 1260.412298961415 371.16248011156574Q1263.840870389986 366.336393155044 1266.5241002036507 363.2432254531806L1266.5241002036507 363.2432254531806Q1267.194907657067 362.44198321715584 1268.275652998682 362.44198321715584L1268.275652998682 362.44198321715584Q1269.4681995825329 362.44198321715584 1270.6793797067564 363.3736602357894L1270.6793797067564 363.3736602357894Q1273.4930443030296 361.3612378755409 1277.1824852968186 359.7587534034912Q1280.8719262906072 358.1562689314415 1284.3750318806694 358.1562689314415L1284.3750318806694 358.1562689314415Q1290.412298961415 358.1562689314415 1290.412298961415 364.32397079479557L1290.412298961415 364.32397079479557Q1290.412298961415 370.2308030929322 1287.5241002036507 375.18732483206264Q1284.635901445887 380.1438465711931 1281.1514293961975 384.83949874510614L1281.1514293961975 384.83949874510614Q1280.2011188371914 386.0506788693297 1279.3439759800483 387.13142421094466Q1278.4681995825329 388.1935360121868 1277.3874542409178 389.27428135380177L1277.3874542409178 389.27428135380177Q1283.2942865390544 387.6717968817521 1287.7290691477504 383.9078217264726Q1292.145218216073 380.1438465711931 1296.44956604216 376.1190018506962L1296.44956604216 376.1190018506962Q1296.971305172595 375.5972627202614 1297.4557772222845 375.26185899355335Q1297.9216157316012 374.92645526684527 1298.722857967626 374.92645526684527L1298.722857967626 374.92645526684527Q1299.3936654210422 374.92645526684527 1299.3936654210422 375.8581322854788L1299.3936654210422 375.8581322854788Q1299.3936654210422 375.9885670680875 1298.9837275328434 376.52893973889496Q1298.5924231850174 377.0693124097024 1298.4619884024085 377.33018197491975L1298.4619884024085 377.33018197491975Q1294.027205793713 382.696641602249 1287.5241002036507 387.336393155044Q1281.020994613589 391.95751116746635 1273.9029821912284 393.0382565090813L1273.9029821912284 393.0382565090813Q1271.3501871601727 395.57241799976447 1267.4557772222845 398.1997471923111Q1263.580000824769 400.808442844485 1259.8160256694894 400.808442844485ZM1270.2880753589304 390.2059583724353L1270.2880753589304 390.2059583724353Q1270.8098144893654 390.2059583724353 1271.2942865390544 390.2059583724353Q1271.7601250483715 390.2059583724353 1272.3004977191788 390.0755235898266L1272.3004977191788 390.0755235898266Q1274.9837275328434 386.85192110535456 1277.8532927502345 382.4357720370316Q1280.7414915079987 378.0009894283359 1282.753913868247 373.24943663330487Q1284.7663362284954 368.47925029790116 1284.7663362284954 364.58484036001295L1284.7663362284954 364.58484036001295Q1284.7663362284954 362.1811136519384 1282.4930443030296 362.1811136519384L1282.4930443030296 362.1811136519384Q1280.2011188371914 362.1811136519384 1277.2570194583093 363.5227285587707Q1274.3129200794272 364.864343465603 1272.3004977191788 366.336393155044L1272.3004977191788 366.336393155044L1272.3004977191788 366.7276975028701Q1272.3004977191788 368.0693124097024 1270.2135411974398 370.5662068196403Q1268.1265846757008 373.04446768920553 1265.7787585887443 375.5972627202614Q1263.4309325017878 378.13142421094466 1262.368820700545 379.8829770059757L1262.368820700545 379.8829770059757Q1261.9588828123467 384.31775961467133 1264.1017399552036 387.2618589935533Q1266.2632306384337 390.2059583724353 1270.2880753589304 390.2059583724353ZM1259.9464604520979 398.53515091901915L1259.9464604520979 398.53515091901915Q1262.499255483154 398.53515091901915 1264.977516352719 396.6531633413794Q1267.4557772222845 394.7711757637397 1269.2073300173154 393.16869129169L1269.2073300173154 393.16869129169Q1265.9837275328434 392.88918818609994 1263.3750318806694 390.9512999873421Q1260.7477026881231 389.0134117885844 1258.6048455452658 386.5910515401372L1258.6048455452658 386.5910515401372Q1258.2135411974398 387.39229377616203 1257.5427337440235 389.68421924200055Q1256.8719262906072 391.95751116746635 1256.8719262906072 394.2308030929322L1256.8719262906072 394.2308030929322Q1256.8719262906072 395.98235588796325 1257.5427337440235 397.24943663330487Q1258.2135411974398 398.53515091901915 1259.9464604520979 398.53515091901915Z " fill="white" transform="matrix(0.6733910048596164,0,0,0.6733910048596166,0,47.80391828205907)"/></g></svg>