<svg xmlns="http://www.w3.org/2000/svg" version="1.1" xmlns:xlink="http://www.w3.org/1999/xlink" xmlns:svgjs="http://svgjs.dev/svgjs" width="100%" height="100%" viewBox="0 0 1000 600"><rect width="1000" height="600" x="0" y="0" fill="none"/><g><circle r="166.66666666666666" cx="322.71523539225257" cy="344.9374835142878" fill="gray" transform="matrix(0.8010326854972798,0,0,0.8010326854972798,0,23.69381686062009)"/><path d="M360.4855814768921 412.5901634410207L360.4855814768921 412.5901634410207Q356.38252836039146 412.5901634410207 353.0428339632398 410.8726063224855Q349.7349461793942 409.15504920395034 346.74512452861086 406.4196804596166L346.74512452861086 406.4196804596166Q342.6420714121102 402.53927363625945 337.58481989642337 396.1143377484057Q332.55937499404274 389.68940186055187 327.1840573452938 382.24665434689956Q321.8087396965449 374.80390683324725 317.1013609272263 367.61561222604456Q312.3939821579078 360.39551100553564 309.213320827287 354.8929669035619L309.213320827287 354.8929669035619Q307.59118354867053 354.8929669035619 305.52375368376715 354.6703206104185Q303.4881304321699 354.447674317275 301.6433468604099 353.9705751176819L301.6433468604099 353.9705751176819Q298.20823262333954 352.8255370386585 298.20823262333954 351.68049895963503L298.20823262333954 351.68049895963503Q298.20823262333954 350.75810717375504 299.5759169955064 350.31281458746815Q300.9436013676734 349.86752200118127 302.5657386462899 349.61306909473166L302.5657386462899 349.61306909473166Q310.1039059998609 348.46803101570816 320.8863479106649 346.3051813108861Q331.63698320816275 344.14233160606415 342.9919441584784 340.3573446226255Q354.315098495488 336.5723576391869 364.27056846033065 331.4196862835815Q374.22603842517333 326.26701492797594 380.4283280198837 319.2695600006105Q386.5988110012877 312.3039116865513 386.5988110012877 303.36625334750727L386.5988110012877 303.36625334750727Q386.5988110012877 296.27337858022315 382.49575788478705 291.47057997098597Q378.3608981549802 286.63597474844255 371.8405424272079 283.5507332577405Q365.32018669943545 280.4654917670385 357.75021273255834 278.87516110172817Q350.1802387656811 277.2530238231116 343.2145904516219 276.6805047835999Q336.2171355242565 276.1079857440882 331.41433691501925 276.1079857440882L331.41433691501925 276.1079857440882Q319.518663538498 276.1079857440882 305.30110739062366 278.87516110172817Q291.11535785605554 281.6105298460619 277.3749009077743 285.9680358690122Q263.63444395949296 290.32554189196253 253.10645495513862 295.57363308748666L253.10645495513862 295.57363308748666Q252.85200204868895 295.79627938063004 252.27948300917726 296.0507322870797Q251.7069639696655 296.27337858022315 251.26167138337863 296.27337858022315L251.26167138337863 296.27337858022315Q249.89398701121175 296.27337858022315 249.89398701121175 294.42859500846316L249.89398701121175 294.42859500846316Q249.89398701121175 289.8484426923694 254.91943191359238 286.3179086153805Q259.9766834292792 282.75556792508536 268.0873698223619 280.02019918075155Q276.2298628287508 277.2530238231116 285.6128137540818 275.312820411433Q294.9957646794127 273.3726169997544 304.0606494716816 272.227578920731Q313.09372765064427 271.08254084170756 320.0911825780097 270.5100218021958Q327.056830892069 269.93750276268406 330.04665254285237 269.93750276268406L330.04665254285237 269.93750276268406Q336.4397818173999 269.93750276268406 344.9321475701571 270.73266809533925Q353.392706709608 271.52783342799444 362.2031385954273 273.72248974612273Q371.0453770945527 275.88533945094474 378.5835444481237 280.02019918075155Q386.1535184150008 284.12325229725224 390.82909057101324 290.42096173188116Q395.5364693403318 296.71867116651003 395.5364693403318 306.101622091841L395.5364693403318 306.101622091841Q395.5364693403318 317.5520028820753 388.6662408661912 326.04436863483255Q381.79601239205056 334.50492777428354 370.9181506413279 340.23011816940067Q360.0402888906052 345.9553085645179 347.5720964745723 349.2950029616696Q335.072097445233 352.602890745515 324.09881585459175 353.9705751176819L324.09881585459175 353.9705751176819Q326.6115383057821 360.39551100553564 331.06446416865094 369.33316934457974Q335.5491966448261 378.2390210703176 341.0199341334936 386.73138682307473Q346.5224782354675 395.1919459625257 352.1522487906659 400.82171651772427Q357.75021273255834 406.4196804596166 362.1077187555087 406.4196804596166L362.1077187555087 406.4196804596166Q365.98812557886583 406.4196804596166 368.18278189699413 403.557085262058Q370.3456316018161 400.69449006449935 371.2680233876962 396.3369840415491Q372.1904151735762 391.97947801859885 372.41306146671957 387.7491984488733Q372.63570775986307 383.51891887914786 372.63570775986307 380.7835501348141L372.63570775986307 380.7835501348141L372.63570775986307 379.384059149341Q372.63570775986307 377.34843589774374 373.78074583888645 377.34843589774374L373.78074583888645 377.34843589774374Q375.84817570378993 377.34843589774374 377.4385063691002 379.8611583489341Q379.0606436477168 382.37388080012437 379.95122882029057 385.36370245090785Q380.87362060617056 388.3217174883851 380.87362060617056 389.9438547670016L380.87362060617056 389.9438547670016Q381.3507198057637 395.66904516211883 378.5835444481237 400.82171651772427Q375.84817570378993 405.9743878733297 371.0453770945527 409.28227565717515Q366.21077187200933 412.5901634410207 360.4855814768921 412.5901634410207ZM271.64971051265707 419.93749111475444L271.64971051265707 419.93749111475444Q266.5924589969702 419.93749111475444 264.55683574537295 416.37515042445926Q262.4894058804696 412.8446163474703 262.4894058804696 407.78736483178346L262.4894058804696 407.78736483178346Q262.4894058804696 400.2491974782126 265.92452011753994 389.3713357274899Q269.3596343546102 378.49347397676723 274.7349520033591 366.21612124057145Q280.11026965210806 353.9705751176819 286.3125592468183 342.07490174116066Q292.4830422282224 330.1474217513332 298.08100617011473 320.09653194657193Q303.7107767253133 310.0138355285044 307.36853725552714 303.81154593379415L307.36853725552714 303.81154593379415Q310.1039059998609 299.0087473245569 313.09372765064427 293.4107833826646Q316.08354930142775 287.781012827466 319.518663538498 283.4553134178219L319.518663538498 283.4553134178219Q320.6637016175214 281.83317613920536 323.39907036185525 281.3878835529185Q326.134439106189 280.9107843533254 327.7565763848055 280.9107843533254L327.7565763848055 280.9107843533254Q329.56955334325926 280.9107843533254 331.85962950130613 281.73775629928673Q334.149705659353 282.5329216319419 334.149705659353 285.04564408313223L334.149705659353 285.04564408313223L334.149705659353 285.4909366694191Q334.149705659353 288.48075832020254 331.63698320816275 291.47057997098597L331.63698320816275 291.47057997098597Q321.33164049695176 308.1690519567444 311.1535242389657 323.5316461836422Q300.9436013676734 338.8624337972338 292.03774964193553 356.4832975688723L292.03774964193553 356.4832975688723Q289.97031977703205 360.17286471239225 286.3125592468183 366.91586673330806Q282.6229921032983 373.6588687542239 278.6153588267164 381.67413530738787Q274.6077255501343 389.68940186055187 272.09500309894395 397.3866022806539Q269.5822806477537 405.0519960874497 270.0275732340406 410.77718648256695L270.0275732340406 410.77718648256695Q270.0275732340406 411.9222245615903 270.60009227355226 413.2899089337572Q271.17261131306395 414.6575933059241 272.79474859168056 414.6575933059241L272.79474859168056 414.6575933059241Q273.93978667070394 414.6575933059241 273.93978667070394 416.72502317082757L273.93978667070394 416.72502317082757Q273.93978667070394 417.87006124985095 273.36726763119225 418.88787287564963Q272.79474859168056 419.93749111475444 271.64971051265707 419.93749111475444Z " fill="white" transform="matrix(0.8010326854972798,0,0,0.8010326854972798,0,23.69381686062009)"/><path d="M683.3068247630248 412.5901634410207L683.3068247630248 412.5901634410207Q679.2037716465242 412.5901634410207 675.8640772493725 410.8726063224855Q672.5561894655269 409.15504920395034 669.5663678147436 406.4196804596166L669.5663678147436 406.4196804596166Q665.4633146982429 402.53927363625945 660.4060631825561 396.1143377484057Q655.3806182801754 389.68940186055187 650.0053006314265 382.24665434689956Q644.6299829826776 374.80390683324725 639.922604213359 367.61561222604456Q635.2152254440404 360.39551100553564 632.0345641134198 354.8929669035619L632.0345641134198 354.8929669035619Q630.4124268348032 354.8929669035619 628.3449969698999 354.6703206104185Q626.3093737183026 354.447674317275 624.4645901465426 353.9705751176819L624.4645901465426 353.9705751176819Q621.0294759094724 352.8255370386585 621.0294759094724 351.68049895963503L621.0294759094724 351.68049895963503Q621.0294759094724 350.75810717375504 622.3971602816392 350.31281458746815Q623.7648446538061 349.86752200118127 625.3869819324226 349.61306909473166L625.3869819324226 349.61306909473166Q632.9251492859936 348.46803101570816 643.7075911967976 346.3051813108861Q654.4582264942954 344.14233160606415 665.8131874446111 340.3573446226255Q677.1363417816207 336.5723576391869 687.0918117464633 331.4196862835815Q697.047281711306 326.26701492797594 703.2495713060164 319.2695600006105Q709.4200542874204 312.3039116865513 709.4200542874204 303.36625334750727L709.4200542874204 303.36625334750727Q709.4200542874204 296.27337858022315 705.3170011709198 291.47057997098597Q701.1821414411129 286.63597474844255 694.6617857133406 283.5507332577405Q688.1414299855682 280.4654917670385 680.571456018691 278.87516110172817Q673.0014820518138 277.2530238231116 666.0358337377546 276.6805047835999Q659.0383788103892 276.1079857440882 654.235580201152 276.1079857440882L654.235580201152 276.1079857440882Q642.3399068246307 276.1079857440882 628.1223506767564 278.87516110172817Q613.9366011421881 281.6105298460619 600.1961441939069 285.9680358690122Q586.4556872456257 290.32554189196253 575.9276982412713 295.57363308748666L575.9276982412713 295.57363308748666Q575.6732453348217 295.79627938063004 575.10072629531 296.0507322870797Q574.5282072557983 296.27337858022315 574.0829146695113 296.27337858022315L574.0829146695113 296.27337858022315Q572.7152302973444 296.27337858022315 572.7152302973444 294.42859500846316L572.7152302973444 294.42859500846316Q572.7152302973444 289.8484426923694 577.7406751997252 286.3179086153805Q582.797926715412 282.75556792508536 590.9086131084947 280.02019918075155Q599.0511061148835 277.2530238231116 608.4340570402145 275.312820411433Q617.8170079655455 273.3726169997544 626.8818927578143 272.227578920731Q635.914970936777 271.08254084170756 642.9124258641424 270.5100218021958Q649.8780741782017 269.93750276268406 652.8678958289851 269.93750276268406L652.8678958289851 269.93750276268406Q659.2610251035326 269.93750276268406 667.7533908562898 270.73266809533925Q676.2139499957407 271.52783342799444 685.02438188156 273.72248974612273Q693.8666203806854 275.88533945094474 701.4047877342564 280.02019918075155Q708.9747617011335 284.12325229725224 713.6503338571459 290.42096173188116Q718.3577126264645 296.71867116651003 718.3577126264645 306.101622091841L718.3577126264645 306.101622091841Q718.3577126264645 317.5520028820753 711.4874841523239 326.04436863483255Q704.6172556781833 334.50492777428354 693.7393939274606 340.23011816940067Q682.8615321767379 345.9553085645179 670.3933397607049 349.2950029616696Q657.8933407313657 352.602890745515 646.9200591407244 353.9705751176819L646.9200591407244 353.9705751176819Q649.4327815919147 360.39551100553564 653.8857074547838 369.33316934457974Q658.3704399309588 378.2390210703176 663.8411774196264 386.73138682307473Q669.3437215216001 395.1919459625257 674.9734920767987 400.82171651772427Q680.571456018691 406.4196804596166 684.9289620416413 406.4196804596166L684.9289620416413 406.4196804596166Q688.8093688649985 406.4196804596166 691.0040251831268 403.557085262058Q693.1668748879488 400.69449006449935 694.0892666738289 396.3369840415491Q695.0116584597088 391.97947801859885 695.2343047528523 387.7491984488733Q695.4569510459958 383.51891887914786 695.4569510459958 380.7835501348141L695.4569510459958 380.7835501348141L695.4569510459958 379.384059149341Q695.4569510459958 377.34843589774374 696.6019891250191 377.34843589774374L696.6019891250191 377.34843589774374Q698.6694189899226 377.34843589774374 700.2597496552329 379.8611583489341Q701.8818869338495 382.37388080012437 702.7724721064233 385.36370245090785Q703.6948638923033 388.3217174883851 703.6948638923033 389.9438547670016L703.6948638923033 389.9438547670016Q704.1719630918963 395.66904516211883 701.4047877342564 400.82171651772427Q698.6694189899226 405.9743878733297 693.8666203806854 409.28227565717515Q689.032015158142 412.5901634410207 683.3068247630248 412.5901634410207ZM594.4709537987898 419.93749111475444L594.4709537987898 419.93749111475444Q589.4137022831029 419.93749111475444 587.3780790315058 416.37515042445926Q585.3106491666023 412.8446163474703 585.3106491666023 407.78736483178346L585.3106491666023 407.78736483178346Q585.3106491666023 400.2491974782126 588.7457634036726 389.3713357274899Q592.1808776407429 378.49347397676723 597.5561952894918 366.21612124057145Q602.9315129382406 353.9705751176819 609.133802532951 342.07490174116066Q615.304285514355 330.1474217513332 620.9022494562474 320.09653194657193Q626.532020011446 310.0138355285044 630.1897805416598 303.81154593379415L630.1897805416598 303.81154593379415Q632.9251492859936 299.0087473245569 635.914970936777 293.4107833826646Q638.9047925875603 287.781012827466 642.3399068246307 283.4553134178219L642.3399068246307 283.4553134178219Q643.4849449036541 281.83317613920536 646.2203136479878 281.3878835529185Q648.9556823923217 280.9107843533254 650.5778196709382 280.9107843533254L650.5778196709382 280.9107843533254Q652.390796629392 280.9107843533254 654.6808727874388 281.73775629928673Q656.9709489454857 282.5329216319419 656.9709489454857 285.04564408313223L656.9709489454857 285.04564408313223L656.9709489454857 285.4909366694191Q656.9709489454857 288.48075832020254 654.4582264942954 291.47057997098597L654.4582264942954 291.47057997098597Q644.1528837830845 308.1690519567444 633.9747675250984 323.5316461836422Q623.7648446538061 338.8624337972338 614.8589929280682 356.4832975688723L614.8589929280682 356.4832975688723Q612.7915630631647 360.17286471239225 609.133802532951 366.91586673330806Q605.444235389431 373.6588687542239 601.4366021128491 381.67413530738787Q597.428968836267 389.68940186055187 594.9162463850766 397.3866022806539Q592.4035239338863 405.0519960874497 592.8488165201733 410.77718648256695L592.8488165201733 410.77718648256695Q592.8488165201733 411.9222245615903 593.421335559685 413.2899089337572Q593.9938545991967 414.6575933059241 595.6159918778131 414.6575933059241L595.6159918778131 414.6575933059241Q596.7610299568366 414.6575933059241 596.7610299568366 416.72502317082757L596.7610299568366 416.72502317082757Q596.7610299568366 417.87006124985095 596.188510917325 418.88787287564963Q595.6159918778131 419.93749111475444 594.4709537987898 419.93749111475444ZM760.5014752571882 322.3866081046188L760.5014752571882 322.3866081046188Q755.221577448358 322.3866081046188 755.221577448358 318.4743946679553L755.221577448358 318.4743946679553Q755.221577448358 315.73902592362157 758.2113990991413 312.5265579796947Q761.1694141366186 309.3140900357679 766.8946045317357 307.946405663601L766.8946045317357 307.946405663601Q770.3297187688061 307.024013877721 772.5243750869342 306.9285940378023Q774.6872247917563 306.8013675845775 776.7546546566598 306.101622091841L776.7546546566598 306.101622091841Q775.8322628707798 310.45912811479127 772.9696676732212 315.5163796304782Q770.1070724756626 320.5418245328588 765.5269201595688 321.6868626118822L765.5269201595688 321.6868626118822Q763.236844001522 322.3866081046188 760.5014752571882 322.3866081046188ZM723.8602567284382 413.5125552269007L723.8602567284382 413.5125552269007Q720.2024961982245 413.5125552269007 717.0854480942162 410.55454018942345Q714.0002066035141 407.5647185386401 713.3322677240839 404.1296043015697L713.3322677240839 404.1296043015697Q714.0002066035141 399.77209827861947 716.4175092147859 393.47438884399054Q718.8030052127514 387.1766794093616 722.0154731566782 380.306450935221Q725.2279411006051 373.4362224610804 728.440409044532 367.36115931959495Q731.6528769884588 361.31790279141563 733.9429531465057 357.62833564789565L733.9429531465057 357.62833564789565Q729.5854471235554 361.54054908455913 724.6554220610933 366.34334769379626Q719.7253969986314 371.1461463030335 715.367890975681 375.28100603284037L715.367890975681 375.28100603284037Q715.1452446825376 375.50365232598375 714.3500793498824 376.20339781872036Q713.5549140172272 376.8713366981506 712.8551685244908 376.8713366981506L712.8551685244908 376.8713366981506Q711.2648378591804 376.8713366981506 711.2648378591804 375.50365232598375L711.2648378591804 375.50365232598375Q711.2648378591804 374.35861424696037 712.1872296450604 373.4362224610804L712.1872296450604 373.4362224610804Q718.3577126264645 366.56599398693976 725.1007146473803 359.69576551279914Q731.8755232816022 352.8255370386585 738.2686525561498 345.510015978231L738.2686525561498 345.510015978231Q740.3360824210532 342.99729352704065 741.8309932464449 341.50238270164897Q743.3259040718367 340.0074718762573 746.5383720157636 340.0074718762573L746.5383720157636 340.0074718762573Q747.9060563879304 340.0074718762573 750.768651585489 340.579990915769Q753.6312467830476 341.15250995528066 755.5714501947261 342.52019432744754Q757.5116536064048 343.8878786996144 756.1439692342379 345.9553085645179L756.1439692342379 345.9553085645179Q754.5536385689276 348.46803101570816 750.6414251322642 354.1932214108254Q746.761018308907 359.9184118059425 741.8309932464449 367.26573947967626Q736.900968183983 374.58126054010376 732.2253960279705 382.0240080537562Q727.518017258652 389.4667555674085 724.5281956078686 395.4145922556691Q721.5701805703914 401.39423555723596 721.5701805703914 404.3522505947132L721.5701805703914 404.3522505947132Q721.5701805703914 405.7199349668801 722.4925723562714 405.7199349668801L722.4925723562714 405.7199349668801Q723.8602567284382 405.7199349668801 727.1681445122837 403.2072125156897Q730.5078389094353 400.69449006449935 733.8157266932808 397.8318948669408Q737.1236144771264 394.9692996693822 738.2686525561498 394.04690788350223L738.2686525561498 394.04690788350223Q744.916234737147 388.3217174883851 751.3411706250007 382.24665434689956Q757.7342998995482 376.20339781872036 763.4594902946654 369.55581563772313L763.4594902946654 369.55581563772313Q763.9365894942584 369.07871643813 764.7317548269136 368.18813126555625Q765.5269201595688 367.26573947967626 766.4493119454488 367.26573947967626L766.4493119454488 367.26573947967626Q767.5943500244723 367.26573947967626 767.5943500244723 368.63342385184313L767.5943500244723 368.63342385184313Q767.5943500244723 370.2237545171535 766.4493119454488 371.84589179577L766.4493119454488 371.84589179577Q763.4594902946654 375.50365232598375 759.8017297644517 379.0659930162789Q756.1439692342379 382.59652709326787 752.9315012903111 386.03164133033823L752.9315012903111 386.03164133033823Q746.9836646020503 391.97947801859885 741.385700660158 397.8318948669408Q735.7559301049595 403.68431171528283 730.2533860029857 409.85479469668695L730.2533860029857 409.85479469668695Q729.1083479239624 411.22247906885383 727.3907908054272 412.3675171478772Q725.673233686892 413.5125552269007 723.8602567284382 413.5125552269007ZM803.7902759669354 412.5901634410207L803.7902759669354 412.5901634410207Q802.1681386883189 412.5901634410207 802.1681386883189 410.07744098983034L802.1681386883189 410.07744098983034Q804.0129222600789 407.78736483178346 805.5078330854706 404.8293497943063Q806.970937297556 401.83952814352284 806.970937297556 399.54945198547597L806.970937297556 399.54945198547597Q806.970937297556 397.0367295342857 804.6808611395091 395.9871112951808Q802.3907849814623 394.9692996693822 798.9556707443919 394.9692996693822L798.9556707443919 394.9692996693822Q794.1528721351548 394.9692996693822 788.2050354468942 396.3369840415491Q782.2571987586335 397.704668413716 777.4544001493963 399.19957923910766Q772.6197949268529 400.69449006449935 770.8068179683992 401.39423555723596L770.8068179683992 401.39423555723596Q769.4391335962323 401.83952814352284 768.166869063984 403.3344389689145Q766.8946045317357 404.8293497943063 765.5269201595688 405.4972886737366L765.5269201595688 405.4972886737366Q761.8691596293551 407.5647185386401 757.9887528059978 407.5647185386401L757.9887528059978 407.5647185386401Q755.6986766479511 407.5647185386401 753.8538930761911 406.2924540063918Q752.0091095044311 405.0519960874497 752.0091095044311 402.2848207298097L752.0091095044311 402.2848207298097Q752.0091095044311 399.99474457176285 753.8538930761911 398.1817676133091L753.8538930761911 398.1817676133091Q756.5892618205248 395.1919459625257 763.236844001522 390.1665010601451Q769.8844261825192 385.10924954445824 778.0269191889081 378.9387665630541Q786.1376055819907 372.76828358165 794.1528721351548 366.56599398693976Q802.1681386883189 360.39551100553564 807.8933290834361 355.0201933567867Q813.6185194785533 349.61306909473166 814.9862038507201 346.432407764111L814.9862038507201 346.432407764111L814.9862038507201 345.9553085645179Q814.9862038507201 344.8102704854944 812.2508351063864 344.8102704854944Q809.5154663620526 344.8102704854944 808.3704282830291 344.8102704854944L808.3704282830291 344.8102704854944Q804.9353140459588 344.8102704854944 800.2279352766402 345.7326622713744Q795.5205565073217 346.6550540572544 791.2902769375962 348.3726111757896Q787.0599973678708 350.09016829432477 785.2152137961107 352.8255370386585L785.2152137961107 352.8255370386585Q784.5472749166804 353.525282531395 783.9747558771687 353.8751552777633Q783.4022368376569 354.1932214108254 782.2571987586335 354.1932214108254L782.2571987586335 354.1932214108254Q780.4124151868735 353.9705751176819 778.1223390288267 352.38024445237164Q775.8322628707798 350.75810717375504 775.8322628707798 348.46803101570816L775.8322628707798 348.46803101570816Q775.8322628707798 345.2873696850875 779.9671226005867 343.31535966010273Q784.0701757170873 341.37515624842416 790.0498190186541 340.579990915769Q795.9976557069148 339.7848255831138 801.3729733556637 339.4349528367455Q806.7482910044126 339.0850800903773 809.5154663620526 339.0850800903773L809.5154663620526 339.0850800903773Q819.5663561668139 338.6397875040904 825.9912920546676 340.3573446226255Q832.4162279425213 342.07490174116066 832.4162279425213 345.7326622713744L832.4162279425213 345.7326622713744Q832.4162279425213 348.2453847225648 828.5040145058579 351.45785266649165L828.5040145058579 351.45785266649165Q819.3437098736704 358.77337372691915 807.4480364971491 366.91586673330806Q795.5205565073217 375.05835973969687 783.4976566775756 383.16904613277956Q771.4747568478294 391.3115391391685 761.6465133362117 398.627060199596L761.6465133362117 398.627060199596Q764.3818820805454 397.2593758274291 770.9022378083178 395.4145922556691Q777.4544001493963 393.60161529721535 785.2152137961107 392.10670447182366Q793.0078340561313 390.611793646432 799.878062530272 389.5939820206333Q806.7482910044126 388.5443637815285 809.738112655196 388.5443637815285L809.738112655196 388.5443637815285Q813.3958731854098 388.5443637815285 816.3856948361932 389.8166283137768Q819.3437098736704 391.0888928460251 818.8984172873835 393.37896900407196L818.8984172873835 393.37896900407196Q817.9760255015035 398.4044139064526 814.9862038507201 402.8573397693214Q812.0281888132429 407.3420722454966 808.9429473225408 409.98202114991176Q805.8258992185326 412.5901634410207 803.7902759669354 412.5901634410207ZM835.8513421795917 408.70975661766346L835.8513421795917 408.70975661766346Q831.4938361566414 408.70975661766346 827.7088491732027 404.1296043015697Q823.9238621897641 399.54945198547597 823.9238621897641 395.4145922556691L823.9238621897641 395.4145922556691Q823.9238621897641 394.2695541766457 824.1465084829076 393.60161529721535L824.1465084829076 393.60161529721535Q828.2813682127145 382.59652709326787 834.8017239404868 373.3408026211618Q841.3220796682592 364.0532715357494 847.747015556113 354.447674317275L847.747015556113 354.447674317275Q847.9696618492563 354.1932214108254 847.9696618492563 353.7479288245385L847.9696618492563 353.7479288245385Q847.9696618492563 353.0481833318019 847.747015556113 352.4756642922902Q847.5243692629695 351.90314525277853 847.5243692629695 351.23520637334815L847.5243692629695 351.23520637334815Q847.5243692629695 348.9451302153013 850.3869644605281 346.432407764111Q853.2495596580866 343.8878786996144 856.7800937350755 342.07490174116066Q860.3424344253707 340.23011816940067 862.4098642902742 340.23011816940067L862.4098642902742 340.23011816940067Q864.9225867414644 340.23011816940067 867.3398893527362 341.94767528793585Q869.7253853507017 343.66523240647103 869.7253853507017 346.432407764111L869.7253853507017 346.432407764111Q867.4353091926548 348.2453847225648 863.0778031697046 352.8255370386585Q858.7521037600604 357.40568935475227 853.8220786975983 363.2581062030943Q848.8920536351363 369.07871643813 844.4391277722675 375.15377957961556Q839.9543952960923 381.228842721101 837.0918000985337 386.3815140767064Q834.2292049009752 391.534185432312 834.2292049009752 394.2695541766457L834.2292049009752 394.2695541766457Q834.2292049009752 396.5596303346926 836.2966347658785 396.5596303346926L836.2966347658785 396.5596303346926Q838.5867109239255 396.5596303346926 843.0396367867943 393.25174255084704Q847.5243692629695 389.9438547670016 852.7724604584936 384.88660325131474Q858.0523582673238 379.8611583489341 863.0778031697046 374.35861424696037Q868.1350546853913 368.85607014498663 872.1426879619734 364.4031442821177Q876.1503212385553 359.9184118059425 877.7406519038657 357.8827885543454L877.7406519038657 357.8827885543454Q880.253374355056 354.1932214108254 882.8933232594711 351.10797992012334Q885.5332721638863 348.0227384294213 889.1910326941002 342.52019432744754L889.1910326941002 342.52019432744754Q891.0358162658601 340.23011816940067 893.1032461307634 338.5125610508655Q895.1388693823608 336.7950039323304 897.4289455404075 336.7950039323304L897.4289455404075 336.7950039323304Q898.573983619431 336.7950039323304 900.8640597774779 337.9400420113538Q903.1541359355249 339.0850800903773 904.5536269209979 340.45276446254417L904.5536269209979 340.45276446254417Q905.9213112931648 341.59780254156755 905.9213112931648 343.21993982018415L905.9213112931648 343.21993982018415Q905.9213112931648 345.2873696850875 904.2991740145483 346.432407764111L904.2991740145483 346.432407764111Q901.5638052702145 349.86752200118127 897.5561719936325 355.9107785293606Q893.5485387170504 361.985841670846 889.7635517336118 368.98329659821144Q885.9785647501733 375.94894491227075 883.4658422989829 382.151234506981Q880.9531198477925 388.3217174883851 880.9531198477925 391.75683172545536L880.9531198477925 391.75683172545536Q880.9531198477925 394.9692996693822 882.7979034195525 395.1919459625257L882.7979034195525 395.1919459625257Q885.5332721638863 394.9692996693822 890.8131699727167 390.3891473532885Q896.0612611682407 385.80899503719473 902.3589706028697 378.8115401098293Q908.6566800374985 371.84589179577 914.6045167257591 364.4031442821177Q920.584160027326 356.9603967684654 924.9098594369701 351.23520637334815L924.9098594369701 351.23520637334815Q925.6096049297066 347.1003466435413 926.1821239692184 343.56981256655234Q926.75464300873 340.0074718762573 928.8220728736335 335.20467326702004L928.8220728736335 335.20467326702004Q929.9671109526569 332.69195081582967 931.7800879111107 330.9743936972946Q933.6248714828707 329.2568365787594 936.3602402272045 329.2568365787594L936.3602402272045 329.2568365787594Q938.9047692917011 329.2568365787594 941.067618996523 330.8471672440697Q943.2304687013451 332.43749790938006 943.2304687013451 334.98202697387654L943.2304687013451 334.98202697387654Q943.2304687013451 337.9400420113538 940.9403925432982 340.45276446254417Q938.6503163852514 342.99729352704065 936.3602402272045 346.8777003503979Q934.0701640691576 350.75810717375504 934.0701640691576 357.8827885543454L934.0701640691576 357.8827885543454L934.0701640691576 358.77337372691915Q934.0701640691576 359.69576551279914 933.8475177760142 361.063449884966Q933.6248714828707 362.4629408704391 932.4798334038474 362.4629408704391L932.4798334038474 362.4629408704391Q930.889502738537 362.4629408704391 929.044719166777 360.61815729867914Q927.199935595017 358.77337372691915 926.9772893018735 357.18304306160877L926.9772893018735 357.18304306160877Q921.2520989067564 363.6079789494625 914.731743178984 372.0685380889135Q908.2113874512116 380.5290972283645 901.9136780165827 388.4489439416099Q895.6159685819539 396.3369840415491 890.240650933205 401.96675459674765Q884.8335266711498 407.5647185386401 881.175766140936 408.4871103245201L881.175766140936 408.4871103245201Q880.253374355056 408.70975661766346 878.8856899828891 408.70975661766346L878.8856899828891 408.70975661766346Q876.3729675316988 408.70975661766346 874.082891373652 407.5647185386401Q871.7928152156051 406.4196804596166 869.7253853507017 403.4298588088332L869.7253853507017 403.4298588088332Q869.5027390575582 402.98456622254633 869.5027390575582 402.2848207298097Q869.5027390575582 401.61688185037946 869.2800927644148 401.13978265078634L869.2800927644148 401.13978265078634Q869.0574464712713 400.2491974782126 868.7075737249031 399.19957923910766Q868.3577009785347 398.1817676133091 868.3577009785347 397.0367295342857L868.3577009785347 397.0367295342857Q868.3577009785347 391.75683172545536 871.4429424692369 384.66395695817135Q874.5281839599388 377.57108219088724 878.4403973966023 370.2237545171535Q882.3208042199594 362.908233456726 884.8335266711498 357.40568935475227L884.8335266711498 357.40568935475227Q871.7928152156051 372.5138306752004 861.3602460511693 383.86879162551617Q850.9594835000398 395.1919459625257 841.3220796682592 405.9743878733297L841.3220796682592 405.9743878733297Q840.1770415892357 407.1194259523532 838.9365836702937 407.91459128500827Q837.6643191380454 408.70975661766346 835.8513421795917 408.70975661766346ZM970.7113825979077 410.77718648256695L970.7113825979077 410.77718648256695Q968.6757593463103 410.77718648256695 966.0358104418953 408.93240291080696Q963.3958615374802 407.1194259523532 961.5510779657202 404.7021233410814Q959.7381010072663 402.2848207298097 959.7381010072663 400.2491974782126L959.7381010072663 400.2491974782126Q959.7381010072663 396.8140832411422 962.2508234584567 390.96166639280017Q964.7635459096471 385.10924954445824 968.1032403067986 379.384059149341Q971.4111280906441 373.6588687542239 973.2559116624042 370.92350000989L973.2559116624042 370.92350000989Q970.0434437184772 373.6588687542239 965.1134186560153 379.7339318957093Q960.1833935935532 385.80899503719473 954.5854296516609 392.55199705811054Q948.9556590964623 399.3268056923326 943.8029877408568 404.1296043015697Q938.6503163852514 408.93240291080696 934.9925558550376 408.93240291080696L934.9925558550376 408.93240291080696Q929.9671109526569 408.93240291080696 926.8818694619549 405.401868833818Q923.7648213579466 401.83952814352284 923.7648213579466 396.8140832411422L923.7648213579466 396.8140832411422Q923.7648213579466 389.9438547670016 927.6770347946101 382.0240080537562Q931.5574416179672 374.1359679538169 937.8551510525963 366.69322044016457Q944.1528604872251 359.25047292651226 951.5956080008774 353.0481833318019Q959.0383555145298 346.8777003503979 966.2584567350386 343.21993982018415Q973.4785579555476 339.5621792899704 979.2037483506648 339.5621792899704L979.2037483506648 339.5621792899704Q985.3742313320688 339.5621792899704 989.2864447687323 342.42477448752896Q993.1668515920894 345.2873696850875 993.1668515920894 351.01256008020476L993.1668515920894 351.01256008020476Q993.1668515920894 351.90314525277853 992.8169788457212 354.447674317275Q992.4671060993528 356.9603967684654 991.099421727186 356.9603967684654L991.099421727186 356.9603967684654Q990.4314828477557 356.9603967684654 988.936572022364 354.8929669035619Q987.4416611969723 352.8255370386585 984.928938745782 350.75810717375504Q982.4162162945915 348.7224839221579 978.5040028579282 348.7224839221579L978.5040028579282 348.7224839221579Q972.1108735833807 348.7224839221579 965.1134186560153 353.3980560781702Q958.1159637286498 358.10543484748877 951.7228344541022 365.3255360679977Q945.2978985662485 372.5138306752004 940.4950999570113 380.0838046420775Q935.6923013477742 387.6537786089547 933.1795788965838 393.12451609762223L933.1795788965838 393.12451609762223Q932.4798334038474 394.74665337623884 931.9073143643355 396.5596303346926Q931.3347953248239 398.4044139064526 931.3347953248239 400.2491974782126L931.3347953248239 400.2491974782126Q931.3347953248239 402.2848207298097 932.4798334038474 402.2848207298097L932.4798334038474 402.2848207298097Q933.6248714828707 402.2848207298097 937.4098584663093 399.77209827861947Q941.1948454497478 397.2593758274291 942.7851761150582 396.1143377484057L942.7851761150582 396.1143377484057Q950.8004426682223 390.3891473532885 958.0205438887313 383.073626292861Q965.2406451092402 375.72629861912725 970.9658355043573 367.93367835910664L970.9658355043573 367.93367835910664Q972.778812462811 365.42095590791627 974.4009497414277 362.908233456726Q975.9912804067378 360.39551100553564 977.5816110720482 358.10543484748877L977.5816110720482 358.10543484748877Q978.7266491510717 356.4832975688723 979.8716872300952 356.4832975688723L979.8716872300952 356.4832975688723Q982.4162162945915 356.4832975688723 984.8017122925571 359.9184118059425Q987.2190149038289 363.3535260430129 987.2190149038289 365.8980551075094L987.2190149038289 365.8980551075094Q987.2190149038289 367.0430931865329 986.8691421574606 367.26573947967626Q986.5192694110922 367.48838577281975 985.3742313320688 368.63342385184313L985.3742313320688 368.63342385184313Q981.9391170949986 372.0685380889135 978.631229311153 378.2390210703176Q975.2915349140014 384.44131066502786 972.9060389160359 390.7390200996568Q970.4887363047642 397.0367295342857 969.3436982257407 401.39423555723596L969.3436982257407 401.39423555723596Q969.1210519325973 402.06217443666634 968.9938254793724 403.11179267577114Q968.8984056394538 404.1296043015697 970.0434437184772 403.90695800842633L970.0434437184772 403.90695800842633Q972.3335198765242 403.2072125156897 977.4861912321296 398.7542866528208Q982.638862587735 394.2695541766457 988.7139257292206 388.4489439416099Q994.7571822573998 382.59652709326787 999.6872073198618 377.57108219088724Q1004.6172323823239 372.5138306752004 1006.2075630476343 370.4782074236031L1006.2075630476343 370.4782074236031Q1006.6846622472272 370.00110822401 1007.2571812867391 369.4285891844983Q1007.8297003262508 368.85607014498663 1008.497639205681 368.85607014498663L1008.497639205681 368.85607014498663Q1010.1197764842975 368.85607014498663 1010.1197764842975 370.4782074236031L1010.1197764842975 370.4782074236031Q1010.1197764842975 371.3687925961769 1006.4620159540839 375.85352507235206Q1002.7724488105639 380.306450935221 997.3017113218963 386.15886778356304Q991.7991672199227 391.97947801859885 986.0739768248054 397.6092485737974Q980.3487864296882 403.2072125156897 976.1185068599627 406.9921994991283Q971.8564206769311 410.77718648256695 970.7113825979077 410.77718648256695ZM1047.2062875993347 411.22247906885383L1047.2062875993347 411.22247906885383Q1043.771173362264 411.22247906885383 1039.540893792539 409.28227565717515Q1035.3106142228135 407.3420722454966 1035.3106142228135 403.2072125156897L1035.3106142228135 403.2072125156897Q1035.3106142228135 398.4044139064526 1038.968374753027 391.75683172545536Q1042.6261352832407 385.10924954445824 1047.6833867989276 377.92095493725554Q1052.708831701308 370.7008537167466 1057.416210470627 364.0532715357494Q1062.091782626639 357.40568935475227 1064.1592124915428 352.8255370386585L1064.1592124915428 352.8255370386585Q1062.791528119376 353.525282531395 1059.7062866286738 355.4654859430737Q1056.5892385246652 357.40568935475227 1053.6312234871884 359.34589276643084Q1050.6414018364048 361.31790279141563 1049.273717464238 362.4629408704391L1049.273717464238 362.4629408704391Q1039.413667339314 369.7784619308666 1032.2253727321113 377.57108219088724Q1025.0052715116026 385.36370245090785 1017.6579438378685 395.4145922556691L1017.6579438378685 395.4145922556691Q1015.8449668794149 398.1817676133091 1013.9047634677362 401.13978265078634Q1011.9327534427514 404.1296043015697 1009.8971301911541 406.86497304590347L1009.8971301911541 406.86497304590347Q1008.9747384052741 408.01001112492696 1006.7800820871458 409.15504920395034Q1004.6172323823239 410.30008728297383 1002.7724488105639 410.30008728297383L1002.7724488105639 410.30008728297383Q999.8144337730866 410.30008728297383 999.8144337730866 407.1194259523532L999.8144337730866 407.1194259523532Q999.8144337730866 404.3522505947132 1002.6770289706453 398.627060199596Q1005.5396241682038 392.90186980447885 1009.8971301911541 385.58634874405135Q1014.2228296007983 378.2390210703176 1019.0574348233417 371.0507264631149Q1023.8602334325788 363.830625242606 1027.740640255936 357.97820839426396Q1031.6528536925998 352.15759815922814 1033.2431843579097 349.61306909473166L1033.2431843579097 349.61306909473166Q1032.7978917716232 350.31281458746815 1030.7304619067195 352.03037170600334Q1028.6630320418162 353.7479288245385 1026.7228286301374 355.4654859430737Q1024.782625218459 357.18304306160877 1023.8602334325788 357.8827885543454L1023.8602334325788 357.8827885543454Q1019.5027274096285 361.985841670846 1015.3678676798216 366.34334769379626Q1011.2648145633209 370.7008537167466 1007.1299548335141 375.05835973969687L1007.1299548335141 375.05835973969687Q1006.6846622472272 375.50365232598375 1005.4123977149791 376.42604411186375Q1004.1719397960369 377.34843589774374 1003.249548010157 377.34843589774374L1003.249548010157 377.34843589774374Q1002.1045099311334 377.34843589774374 1002.1045099311334 376.20339781872036L1002.1045099311334 376.20339781872036Q1002.1045099311334 375.05835973969687 1005.3169778750604 371.3687925961769Q1008.497639205681 367.71103206596314 1013.3322444282244 362.6855871635825Q1018.1350430374616 357.62833564789565 1023.2877143930671 352.38024445237164Q1028.4403857486727 347.1003466435413 1032.3207925720299 342.99729352704065Q1036.2330060086933 338.8624337972338 1037.6006903808602 337.2721031319234L1037.6006903808602 337.2721031319234Q1039.890766538907 334.28228148114005 1042.5307154433222 332.43749790938006Q1045.138857734431 330.6245209509263 1048.828424877951 330.6245209509263L1048.828424877951 330.6245209509263Q1050.8640481295483 330.6245209509263 1053.853869780332 332.56472436260486Q1056.843691431115 334.50492777428354 1056.843691431115 337.0176502254738L1056.843691431115 337.0176502254738Q1056.843691431115 337.9400420113538 1056.3665922315222 338.1626883044973L1056.3665922315222 338.1626883044973Q1049.4963637573815 343.8878786996144 1042.9760080296091 351.68049895963503Q1036.4556523018368 359.47311921965564 1030.7304619067195 367.71103206596314Q1025.0052715116026 375.94894491227075 1020.2024729023651 383.073626292861L1020.2024729023651 383.073626292861Q1025.6732103910326 376.8713366981506 1032.5434388651734 370.7962735566652Q1039.413667339314 364.753017028486 1045.8386032271678 359.47311921965564L1045.8386032271678 359.47311921965564L1062.091782626639 346.1779548576613Q1063.7139199052558 344.8102704854944 1065.431477023791 343.21993982018415Q1067.149034142326 341.59780254156755 1068.7393648076363 340.45276446254417L1068.7393648076363 340.45276446254417Q1070.5841483793965 339.3077263835207 1072.7469980842184 339.4349528367455Q1074.9098477890407 339.5621792899704 1077.1999239470874 339.5621792899704L1077.1999239470874 339.5621792899704Q1079.744453011584 339.5621792899704 1082.1299490095494 340.9298636621373Q1084.547251620821 342.29754803430416 1084.547251620821 345.2873696850875L1084.547251620821 345.2873696850875Q1084.547251620821 348.2453847225648 1083.0523407954292 349.74029554795646Q1081.557429970038 351.23520637334815 1079.744453011584 353.0481833318019L1079.744453011584 353.0481833318019Q1075.8322395749205 356.7377504753219 1070.2342756330281 362.6855871635825Q1064.6045050778293 368.63342385184313 1059.1337675891618 375.50365232598375Q1053.6312234871884 382.37388080012437 1049.9734629569743 389.3713357274899Q1046.2838958134548 396.3369840415491 1046.2838958134548 402.2848207298097L1046.2838958134548 402.2848207298097Q1046.2838958134548 402.98456622254633 1046.2838958134548 403.68431171528283Q1046.2838958134548 404.3522505947132 1046.5383487199042 405.0519960874497L1046.5383487199042 405.0519960874497Q1051.3411473291412 403.2072125156897 1057.1617575641772 398.9769329459643Q1063.0141744125194 394.74665337623884 1068.9620111007798 389.4667555674085Q1074.9098477890407 384.21866437188436 1080.062519144646 378.9387665630541Q1085.2151905002515 373.6588687542239 1088.6503047373217 369.55581563772313L1088.6503047373217 369.55581563772313Q1089.127403936915 369.07871643813 1089.6999229764265 368.41077755869975Q1090.2724420159384 367.71103206596314 1091.1948338018183 367.71103206596314L1091.1948338018183 367.71103206596314Q1092.3398718808417 367.71103206596314 1092.3398718808417 369.33316934457974L1092.3398718808417 369.33316934457974Q1092.3398718808417 370.2237545171535 1091.6401263881053 371.3687925961769L1091.6401263881053 371.3687925961769Q1087.2826203651548 377.0939829912941 1079.9670993047275 384.88660325131474Q1072.6197716309935 392.67922351133535 1064.8589579842792 399.6766784387008Q1057.0663377242586 406.6423267527601 1050.8640481295483 410.30008728297383L1050.8640481295483 410.30008728297383Q1049.273717464238 411.22247906885383 1047.2062875993347 411.22247906885383Z " fill="white" transform="matrix(0.8010326854972798,0,0,0.8010326854972798,0,23.69381686062009)"/></g></svg>